<svg width="1200" height="400" xmlns="http://www.w3.org/2000/svg" xmlns:xlink="http://www.w3.org/1999/xlink">
<line x1="550" y1="250" x2="650" y2="250" stroke="black" stroke-width="2" />
<line x1="650" y1="250" x2="650" y2="150" stroke="black" stroke-width="2" />
<line x1="650" y1="150" x2="550" y2="150" stroke="black" stroke-width="2" />
<line x1="550" y1="150" x2="550" y2="250" stroke="black" stroke-width="2" />
<line x1="540" y1="176" x2="628" y2="191" stroke="black" stroke-width="2" />
<line x1="628" y1="191" x2="759" y2="123" stroke="black" stroke-width="2" />
<line x1="759" y1="123" x2="671" y2="108" stroke="black" stroke-width="2" />
<line x1="671" y1="108" x2="540" y2="176" stroke="black" stroke-width="2" />
<line x1="628" y1="124" x2="686" y2="149" stroke="black" stroke-width="2" />
<line x1="686" y1="149" x2="891" y2="122" stroke="black" stroke-width="2" />
<line x1="891" y1="122" x2="833" y2="98" stroke="black" stroke-width="2" />
<line x1="833" y1="98" x2="628" y2="124" stroke="black" stroke-width="2" />
<line x1="773" y1="102" x2="793" y2="128" stroke="black" stroke-width="2" />
<line x1="793" y1="128" x2="1009" y2="142" stroke="black" stroke-width="2" />
<line x1="1009" y1="142" x2="989" y2="116" stroke="black" stroke-width="2" />
<line x1="989" y1="116" x2="773" y2="102" stroke="black" stroke-width="2" />
<line x1="931" y1="110" x2="914" y2="131" stroke="black" stroke-width="2" />
<line x1="914" y1="131" x2="1087" y2="174" stroke="black" stroke-width="2" />
<line x1="1087" y1="174" x2="1104" y2="154" stroke="black" stroke-width="2" />
<line x1="1104" y1="154" x2="931" y2="110" stroke="black" stroke-width="2" />
<line x1="1060" y1="140" x2="1018" y2="152" stroke="black" stroke-width="2" />
<line x1="1018" y1="152" x2="1115" y2="209" stroke="black" stroke-width="2" />
<line x1="1115" y1="209" x2="1156" y2="197" stroke="black" stroke-width="2" />
<line x1="1156" y1="197" x2="1060" y2="140" stroke="black" stroke-width="2" />
<line x1="1135" y1="181" x2="1083" y2="182" stroke="black" stroke-width="2" />
<line x1="1083" y1="182" x2="1094" y2="236" stroke="black" stroke-width="2" />
<line x1="1094" y1="236" x2="1146" y2="235" stroke="black" stroke-width="2" />
<line x1="1146" y1="235" x2="1135" y2="181" stroke="black" stroke-width="2" />
<line x1="1148" y1="221" x2="1100" y2="213" stroke="black" stroke-width="2" />
<line x1="1100" y1="213" x2="1040" y2="252" stroke="black" stroke-width="2" />
<line x1="1040" y1="252" x2="1088" y2="259" stroke="black" stroke-width="2" />
<line x1="1088" y1="259" x2="1148" y2="221" stroke="black" stroke-width="2" />
<line x1="1108" y1="250" x2="1075" y2="237" stroke="black" stroke-width="2" />
<line x1="1075" y1="237" x2="971" y2="254" stroke="black" stroke-width="2" />
<line x1="971" y1="254" x2="1004" y2="267" stroke="black" stroke-width="2" />
<line x1="1004" y1="267" x2="1108" y2="250" stroke="black" stroke-width="2" />
<line x1="1035" y1="263" x2="1022" y2="250" stroke="black" stroke-width="2" />
<line x1="1022" y1="250" x2="908" y2="245" stroke="black" stroke-width="2" />
<line x1="908" y1="245" x2="921" y2="259" stroke="black" stroke-width="2" />
<line x1="921" y1="259" x2="1035" y2="263" stroke="black" stroke-width="2" />
<line x1="952" y1="261" x2="958" y2="250" stroke="black" stroke-width="2" />
<line x1="958" y1="250" x2="863" y2="229" stroke="black" stroke-width="2" />
<line x1="863" y1="229" x2="857" y2="240" stroke="black" stroke-width="2" />
<line x1="857" y1="240" x2="952" y2="261" stroke="black" stroke-width="2" />
<line x1="881" y1="247" x2="902" y2="240" stroke="black" stroke-width="2" />
<line x1="902" y1="240" x2="845" y2="211" stroke="black" stroke-width="2" />
<line x1="845" y1="211" x2="825" y2="217" stroke="black" stroke-width="2" />
<line x1="825" y1="217" x2="881" y2="247" stroke="black" stroke-width="2" />
<line x1="837" y1="226" x2="865" y2="224" stroke="black" stroke-width="2" />
<line x1="865" y1="224" x2="853" y2="195" stroke="black" stroke-width="2" />
<line x1="853" y1="195" x2="826" y2="197" stroke="black" stroke-width="2" />
<line x1="826" y1="197" x2="837" y2="226" stroke="black" stroke-width="2" />
<line x1="826" y1="205" x2="852" y2="208" stroke="black" stroke-width="2" />
<line x1="852" y1="208" x2="879" y2="186" stroke="black" stroke-width="2" />
<line x1="879" y1="186" x2="853" y2="183" stroke="black" stroke-width="2" />
<line x1="853" y1="183" x2="826" y2="205" stroke="black" stroke-width="2" />
<line x1="844" y1="188" x2="862" y2="195" stroke="black" stroke-width="2" />
<line x1="862" y1="195" x2="915" y2="184" stroke="black" stroke-width="2" />
<line x1="915" y1="184" x2="896" y2="178" stroke="black" stroke-width="2" />
<line x1="896" y1="178" x2="844" y2="188" stroke="black" stroke-width="2" />
<line x1="880" y1="180" x2="889" y2="187" stroke="black" stroke-width="2" />
<line x1="889" y1="187" x2="949" y2="188" stroke="black" stroke-width="2" />
<line x1="949" y1="188" x2="940" y2="181" stroke="black" stroke-width="2" />
<line x1="940" y1="181" x2="880" y2="180" stroke="black" stroke-width="2" />
<line x1="924" y1="180" x2="922" y2="186" stroke="black" stroke-width="2" />
<line x1="922" y1="186" x2="974" y2="196" stroke="black" stroke-width="2" />
<line x1="974" y1="196" x2="976" y2="190" stroke="black" stroke-width="2" />
<line x1="976" y1="190" x2="924" y2="180" stroke="black" stroke-width="2" />
<line x1="962" y1="187" x2="952" y2="191" stroke="black" stroke-width="2" />
<line x1="952" y1="191" x2="985" y2="206" stroke="black" stroke-width="2" />
<line x1="985" y1="206" x2="995" y2="202" stroke="black" stroke-width="2" />
<line x1="995" y1="202" x2="962" y2="187" stroke="black" stroke-width="2" />
<line x1="987" y1="198" x2="974" y2="199" stroke="black" stroke-width="2" />
<line x1="974" y1="199" x2="983" y2="214" stroke="black" stroke-width="2" />
<line x1="983" y1="214" x2="997" y2="213" stroke="black" stroke-width="2" />
<line x1="997" y1="213" x2="987" y2="198" stroke="black" stroke-width="2" />
<line x1="996" y1="209" x2="982" y2="207" stroke="black" stroke-width="2" />
<line x1="982" y1="207" x2="970" y2="219" stroke="black" stroke-width="2" />
<line x1="970" y1="219" x2="984" y2="221" stroke="black" stroke-width="2" />
<line x1="984" y1="221" x2="996" y2="209" stroke="black" stroke-width="2" />
<line x1="989" y1="218" x2="978" y2="215" stroke="black" stroke-width="2" />
<line x1="978" y1="215" x2="952" y2="221" stroke="black" stroke-width="2" />
<line x1="952" y1="221" x2="962" y2="224" stroke="black" stroke-width="2" />
<line x1="962" y1="224" x2="989" y2="218" stroke="black" stroke-width="2" />
<line x1="970" y1="223" x2="965" y2="219" stroke="black" stroke-width="2" />
<line x1="965" y1="219" x2="934" y2="219" stroke="black" stroke-width="2" />
<line x1="934" y1="219" x2="939" y2="223" stroke="black" stroke-width="2" />
<line x1="939" y1="223" x2="970" y2="223" stroke="black" stroke-width="2" />
<line x1="948" y1="223" x2="948" y2="220" stroke="black" stroke-width="2" />
<line x1="948" y1="220" x2="920" y2="215" stroke="black" stroke-width="2" />
<line x1="920" y1="215" x2="919" y2="219" stroke="black" stroke-width="2" />
<line x1="919" y1="219" x2="948" y2="223" stroke="black" stroke-width="2" />
<line x1="927" y1="220" x2="932" y2="218" stroke="black" stroke-width="2" />
<line x1="932" y1="218" x2="913" y2="210" stroke="black" stroke-width="2" />
<line x1="913" y1="210" x2="908" y2="213" stroke="black" stroke-width="2" />
<line x1="908" y1="213" x2="927" y2="220" stroke="black" stroke-width="2" />
<line x1="912" y1="215" x2="920" y2="214" stroke="black" stroke-width="2" />
<line x1="920" y1="214" x2="913" y2="206" stroke="black" stroke-width="2" />
<line x1="913" y1="206" x2="906" y2="207" stroke="black" stroke-width="2" />
<line x1="906" y1="207" x2="912" y2="215" stroke="black" stroke-width="2" />
<line x1="907" y1="209" x2="914" y2="209" stroke="black" stroke-width="2" />
<line x1="914" y1="209" x2="919" y2="203" stroke="black" stroke-width="2" />
<line x1="919" y1="203" x2="912" y2="202" stroke="black" stroke-width="2" />
<line x1="912" y1="202" x2="907" y2="209" stroke="black" stroke-width="2" />
<line x1="910" y1="204" x2="915" y2="205" stroke="black" stroke-width="2" />
<line x1="915" y1="205" x2="928" y2="202" stroke="black" stroke-width="2" />
<line x1="928" y1="202" x2="923" y2="200" stroke="black" stroke-width="2" />
<line x1="923" y1="200" x2="910" y2="204" stroke="black" stroke-width="2" />
<line x1="919" y1="201" x2="922" y2="203" stroke="black" stroke-width="2" />
<line x1="922" y1="203" x2="938" y2="202" stroke="black" stroke-width="2" />
<line x1="938" y1="202" x2="935" y2="200" stroke="black" stroke-width="2" />
<line x1="935" y1="200" x2="919" y2="201" stroke="black" stroke-width="2" />
<line x1="930" y1="200" x2="931" y2="202" stroke="black" stroke-width="2" />
<line x1="931" y1="202" x2="946" y2="204" stroke="black" stroke-width="2" />
<line x1="946" y1="204" x2="946" y2="203" stroke="black" stroke-width="2" />
<line x1="946" y1="203" x2="930" y2="200" stroke="black" stroke-width="2" />
<line x1="942" y1="202" x2="939" y2="203" stroke="black" stroke-width="2" />
<line x1="939" y1="203" x2="950" y2="207" stroke="black" stroke-width="2" />
<line x1="950" y1="207" x2="952" y2="206" stroke="black" stroke-width="2" />
<line x1="952" y1="206" x2="942" y2="202" stroke="black" stroke-width="2" />
<line x1="950" y1="205" x2="946" y2="205" stroke="black" stroke-width="2" />
<line x1="946" y1="205" x2="950" y2="209" stroke="black" stroke-width="2" />
<line x1="950" y1="209" x2="954" y2="209" stroke="black" stroke-width="2" />
<line x1="954" y1="209" x2="950" y2="205" stroke="black" stroke-width="2" />
<line x1="953" y1="208" x2="949" y2="207" stroke="black" stroke-width="2" />
<line x1="949" y1="207" x2="948" y2="211" stroke="black" stroke-width="2" />
<line x1="948" y1="211" x2="952" y2="211" stroke="black" stroke-width="2" />
<line x1="952" y1="211" x2="953" y2="208" stroke="black" stroke-width="2" />
<line x1="952" y1="210" x2="949" y2="210" stroke="black" stroke-width="2" />
<line x1="949" y1="210" x2="943" y2="212" stroke="black" stroke-width="2" />
<line x1="943" y1="212" x2="946" y2="213" stroke="black" stroke-width="2" />
<line x1="946" y1="213" x2="952" y2="210" stroke="black" stroke-width="2" />
<line x1="948" y1="212" x2="946" y2="211" stroke="black" stroke-width="2" />
<line x1="946" y1="211" x2="938" y2="212" stroke="black" stroke-width="2" />
<line x1="938" y1="212" x2="940" y2="213" stroke="black" stroke-width="2" />
<line x1="940" y1="213" x2="948" y2="212" stroke="black" stroke-width="2" />
<line x1="942" y1="213" x2="942" y2="212" stroke="black" stroke-width="2" />
<line x1="942" y1="212" x2="933" y2="211" stroke="black" stroke-width="2" />
<line x1="933" y1="211" x2="934" y2="212" stroke="black" stroke-width="2" />
<line x1="934" y1="212" x2="942" y2="213" stroke="black" stroke-width="2" />
<line x1="936" y1="212" x2="937" y2="211" stroke="black" stroke-width="2" />
<line x1="937" y1="211" x2="931" y2="209" stroke="black" stroke-width="2" />
<line x1="931" y1="209" x2="930" y2="210" stroke="black" stroke-width="2" />
<line x1="930" y1="210" x2="936" y2="212" stroke="black" stroke-width="2" />
<line x1="931" y1="211" x2="933" y2="210" stroke="black" stroke-width="2" />
<line x1="933" y1="210" x2="930" y2="208" stroke="black" stroke-width="2" />
<line x1="930" y1="208" x2="929" y2="208" stroke="black" stroke-width="2" />
<line x1="929" y1="208" x2="931" y2="211" stroke="black" stroke-width="2" />
<line x1="929" y1="209" x2="931" y2="209" stroke="black" stroke-width="2" />
<line x1="931" y1="209" x2="932" y2="207" stroke="black" stroke-width="2" />
<line x1="932" y1="207" x2="930" y2="207" stroke="black" stroke-width="2" />
<line x1="930" y1="207" x2="929" y2="209" stroke="black" stroke-width="2" />
<line x1="929" y1="207" x2="931" y2="208" stroke="black" stroke-width="2" />
<line x1="931" y1="208" x2="934" y2="207" stroke="black" stroke-width="2" />
<line x1="934" y1="207" x2="932" y2="206" stroke="black" stroke-width="2" />
<line x1="932" y1="206" x2="929" y2="207" stroke="black" stroke-width="2" />
<line x1="931" y1="207" x2="933" y2="207" stroke="black" stroke-width="2" />
<line x1="933" y1="207" x2="937" y2="207" stroke="black" stroke-width="2" />
<line x1="937" y1="207" x2="936" y2="206" stroke="black" stroke-width="2" />
<line x1="936" y1="206" x2="931" y2="207" stroke="black" stroke-width="2" />
</svg>
