<svg width="1000" height="800" xmlns="http://www.w3.org/2000/svg" xmlns:xlink="http://www.w3.org/1999/xlink">
<line x1="300" y1="600" x2="700" y2="600" stroke="black" stroke-width="2" />
<line x1="700" y1="600" x2="700" y2="200" stroke="black" stroke-width="2" />
<line x1="700" y1="200" x2="300" y2="200" stroke="black" stroke-width="2" />
<line x1="300" y1="200" x2="300" y2="600" stroke="black" stroke-width="2" />
<line x1="321" y1="585" x2="754" y2="529" stroke="black" stroke-width="2" />
<line x1="754" y1="529" x2="678" y2="214" stroke="black" stroke-width="2" />
<line x1="678" y1="214" x2="245" y2="270" stroke="black" stroke-width="2" />
<line x1="245" y1="270" x2="321" y2="585" stroke="black" stroke-width="2" />
<line x1="342" y1="570" x2="800" y2="466" stroke="black" stroke-width="2" />
<line x1="800" y1="466" x2="657" y2="229" stroke="black" stroke-width="2" />
<line x1="657" y1="229" x2="199" y2="333" stroke="black" stroke-width="2" />
<line x1="199" y1="333" x2="342" y2="570" stroke="black" stroke-width="2" />
<line x1="361" y1="556" x2="838" y2="410" stroke="black" stroke-width="2" />
<line x1="838" y1="410" x2="638" y2="243" stroke="black" stroke-width="2" />
<line x1="638" y1="243" x2="161" y2="389" stroke="black" stroke-width="2" />
<line x1="161" y1="389" x2="361" y2="556" stroke="black" stroke-width="2" />
<line x1="379" y1="542" x2="868" y2="361" stroke="black" stroke-width="2" />
<line x1="868" y1="361" x2="620" y2="257" stroke="black" stroke-width="2" />
<line x1="620" y1="257" x2="131" y2="438" stroke="black" stroke-width="2" />
<line x1="131" y1="438" x2="379" y2="542" stroke="black" stroke-width="2" />
<line x1="397" y1="528" x2="892" y2="318" stroke="black" stroke-width="2" />
<line x1="892" y1="318" x2="602" y2="271" stroke="black" stroke-width="2" />
<line x1="602" y1="271" x2="107" y2="481" stroke="black" stroke-width="2" />
<line x1="107" y1="481" x2="397" y2="528" stroke="black" stroke-width="2" />
<line x1="413" y1="515" x2="909" y2="281" stroke="black" stroke-width="2" />
<line x1="909" y1="281" x2="586" y2="284" stroke="black" stroke-width="2" />
<line x1="586" y1="284" x2="90" y2="518" stroke="black" stroke-width="2" />
<line x1="90" y1="518" x2="413" y2="515" stroke="black" stroke-width="2" />
<line x1="428" y1="503" x2="920" y2="249" stroke="black" stroke-width="2" />
<line x1="920" y1="249" x2="571" y2="296" stroke="black" stroke-width="2" />
<line x1="571" y1="296" x2="79" y2="550" stroke="black" stroke-width="2" />
<line x1="79" y1="550" x2="428" y2="503" stroke="black" stroke-width="2" />
<line x1="441" y1="491" x2="927" y2="222" stroke="black" stroke-width="2" />
<line x1="927" y1="222" x2="558" y2="308" stroke="black" stroke-width="2" />
<line x1="558" y1="308" x2="72" y2="577" stroke="black" stroke-width="2" />
<line x1="72" y1="577" x2="441" y2="491" stroke="black" stroke-width="2" />
<line x1="454" y1="480" x2="928" y2="201" stroke="black" stroke-width="2" />
<line x1="928" y1="201" x2="545" y2="319" stroke="black" stroke-width="2" />
<line x1="545" y1="319" x2="71" y2="598" stroke="black" stroke-width="2" />
<line x1="71" y1="598" x2="454" y2="480" stroke="black" stroke-width="2" />
<line x1="466" y1="469" x2="926" y2="183" stroke="black" stroke-width="2" />
<line x1="926" y1="183" x2="533" y2="330" stroke="black" stroke-width="2" />
<line x1="533" y1="330" x2="73" y2="616" stroke="black" stroke-width="2" />
<line x1="73" y1="616" x2="466" y2="469" stroke="black" stroke-width="2" />
<line x1="476" y1="459" x2="920" y2="170" stroke="black" stroke-width="2" />
<line x1="920" y1="170" x2="523" y2="340" stroke="black" stroke-width="2" />
<line x1="523" y1="340" x2="79" y2="629" stroke="black" stroke-width="2" />
<line x1="79" y1="629" x2="476" y2="459" stroke="black" stroke-width="2" />
<line x1="485" y1="450" x2="912" y2="160" stroke="black" stroke-width="2" />
<line x1="912" y1="160" x2="514" y2="349" stroke="black" stroke-width="2" />
<line x1="514" y1="349" x2="87" y2="639" stroke="black" stroke-width="2" />
<line x1="87" y1="639" x2="485" y2="450" stroke="black" stroke-width="2" />
<line x1="494" y1="441" x2="900" y2="154" stroke="black" stroke-width="2" />
<line x1="900" y1="154" x2="505" y2="358" stroke="black" stroke-width="2" />
<line x1="505" y1="358" x2="99" y2="645" stroke="black" stroke-width="2" />
<line x1="99" y1="645" x2="494" y2="441" stroke="black" stroke-width="2" />
<line x1="501" y1="433" x2="887" y2="150" stroke="black" stroke-width="2" />
<line x1="887" y1="150" x2="498" y2="366" stroke="black" stroke-width="2" />
<line x1="498" y1="366" x2="112" y2="649" stroke="black" stroke-width="2" />
<line x1="112" y1="649" x2="501" y2="433" stroke="black" stroke-width="2" />
<line x1="508" y1="426" x2="871" y2="149" stroke="black" stroke-width="2" />
<line x1="871" y1="149" x2="491" y2="373" stroke="black" stroke-width="2" />
<line x1="491" y1="373" x2="128" y2="650" stroke="black" stroke-width="2" />
<line x1="128" y1="650" x2="508" y2="426" stroke="black" stroke-width="2" />
<line x1="513" y1="419" x2="854" y2="151" stroke="black" stroke-width="2" />
<line x1="854" y1="151" x2="486" y2="380" stroke="black" stroke-width="2" />
<line x1="486" y1="380" x2="145" y2="648" stroke="black" stroke-width="2" />
<line x1="145" y1="648" x2="513" y2="419" stroke="black" stroke-width="2" />
<line x1="518" y1="413" x2="836" y2="154" stroke="black" stroke-width="2" />
<line x1="836" y1="154" x2="481" y2="386" stroke="black" stroke-width="2" />
<line x1="481" y1="386" x2="163" y2="645" stroke="black" stroke-width="2" />
<line x1="163" y1="645" x2="518" y2="413" stroke="black" stroke-width="2" />
<line x1="522" y1="407" x2="818" y2="159" stroke="black" stroke-width="2" />
<line x1="818" y1="159" x2="477" y2="392" stroke="black" stroke-width="2" />
<line x1="477" y1="392" x2="181" y2="640" stroke="black" stroke-width="2" />
<line x1="181" y1="640" x2="522" y2="407" stroke="black" stroke-width="2" />
<line x1="526" y1="403" x2="798" y2="166" stroke="black" stroke-width="2" />
<line x1="798" y1="166" x2="473" y2="396" stroke="black" stroke-width="2" />
<line x1="473" y1="396" x2="201" y2="633" stroke="black" stroke-width="2" />
<line x1="201" y1="633" x2="526" y2="403" stroke="black" stroke-width="2" />
<line x1="529" y1="398" x2="779" y2="174" stroke="black" stroke-width="2" />
<line x1="779" y1="174" x2="470" y2="401" stroke="black" stroke-width="2" />
<line x1="470" y1="401" x2="220" y2="625" stroke="black" stroke-width="2" />
<line x1="220" y1="625" x2="529" y2="398" stroke="black" stroke-width="2" />
<line x1="531" y1="395" x2="759" y2="183" stroke="black" stroke-width="2" />
<line x1="759" y1="183" x2="468" y2="404" stroke="black" stroke-width="2" />
<line x1="468" y1="404" x2="240" y2="616" stroke="black" stroke-width="2" />
<line x1="240" y1="616" x2="531" y2="395" stroke="black" stroke-width="2" />
<line x1="532" y1="391" x2="739" y2="193" stroke="black" stroke-width="2" />
<line x1="739" y1="193" x2="467" y2="408" stroke="black" stroke-width="2" />
<line x1="467" y1="408" x2="260" y2="606" stroke="black" stroke-width="2" />
<line x1="260" y1="606" x2="532" y2="391" stroke="black" stroke-width="2" />
<line x1="534" y1="388" x2="720" y2="204" stroke="black" stroke-width="2" />
<line x1="720" y1="204" x2="465" y2="411" stroke="black" stroke-width="2" />
<line x1="465" y1="411" x2="279" y2="595" stroke="black" stroke-width="2" />
<line x1="279" y1="595" x2="534" y2="388" stroke="black" stroke-width="2" />
<line x1="534" y1="386" x2="701" y2="215" stroke="black" stroke-width="2" />
<line x1="701" y1="215" x2="465" y2="413" stroke="black" stroke-width="2" />
<line x1="465" y1="413" x2="298" y2="584" stroke="black" stroke-width="2" />
<line x1="298" y1="584" x2="534" y2="386" stroke="black" stroke-width="2" />
<line x1="535" y1="384" x2="682" y2="226" stroke="black" stroke-width="2" />
<line x1="682" y1="226" x2="464" y2="415" stroke="black" stroke-width="2" />
<line x1="464" y1="415" x2="317" y2="573" stroke="black" stroke-width="2" />
<line x1="317" y1="573" x2="535" y2="384" stroke="black" stroke-width="2" />
<line x1="535" y1="382" x2="664" y2="237" stroke="black" stroke-width="2" />
<line x1="664" y1="237" x2="464" y2="417" stroke="black" stroke-width="2" />
<line x1="464" y1="417" x2="335" y2="562" stroke="black" stroke-width="2" />
<line x1="335" y1="562" x2="535" y2="382" stroke="black" stroke-width="2" />
<line x1="534" y1="381" x2="647" y2="249" stroke="black" stroke-width="2" />
<line x1="647" y1="249" x2="465" y2="418" stroke="black" stroke-width="2" />
<line x1="465" y1="418" x2="352" y2="550" stroke="black" stroke-width="2" />
<line x1="352" y1="550" x2="534" y2="381" stroke="black" stroke-width="2" />
<line x1="534" y1="380" x2="630" y2="260" stroke="black" stroke-width="2" />
<line x1="630" y1="260" x2="465" y2="419" stroke="black" stroke-width="2" />
<line x1="465" y1="419" x2="369" y2="539" stroke="black" stroke-width="2" />
<line x1="369" y1="539" x2="534" y2="380" stroke="black" stroke-width="2" />
<line x1="533" y1="380" x2="615" y2="272" stroke="black" stroke-width="2" />
<line x1="615" y1="272" x2="466" y2="419" stroke="black" stroke-width="2" />
<line x1="466" y1="419" x2="384" y2="527" stroke="black" stroke-width="2" />
<line x1="384" y1="527" x2="533" y2="380" stroke="black" stroke-width="2" />
<line x1="532" y1="379" x2="600" y2="283" stroke="black" stroke-width="2" />
<line x1="600" y1="283" x2="467" y2="420" stroke="black" stroke-width="2" />
<line x1="467" y1="420" x2="399" y2="516" stroke="black" stroke-width="2" />
<line x1="399" y1="516" x2="532" y2="379" stroke="black" stroke-width="2" />
<line x1="531" y1="379" x2="586" y2="294" stroke="black" stroke-width="2" />
<line x1="586" y1="294" x2="468" y2="420" stroke="black" stroke-width="2" />
<line x1="468" y1="420" x2="413" y2="505" stroke="black" stroke-width="2" />
<line x1="413" y1="505" x2="531" y2="379" stroke="black" stroke-width="2" />
<line x1="529" y1="379" x2="573" y2="304" stroke="black" stroke-width="2" />
<line x1="573" y1="304" x2="470" y2="420" stroke="black" stroke-width="2" />
<line x1="470" y1="420" x2="426" y2="495" stroke="black" stroke-width="2" />
<line x1="426" y1="495" x2="529" y2="379" stroke="black" stroke-width="2" />
<line x1="528" y1="379" x2="561" y2="314" stroke="black" stroke-width="2" />
<line x1="561" y1="314" x2="471" y2="420" stroke="black" stroke-width="2" />
<line x1="471" y1="420" x2="438" y2="485" stroke="black" stroke-width="2" />
<line x1="438" y1="485" x2="528" y2="379" stroke="black" stroke-width="2" />
<line x1="526" y1="380" x2="549" y2="324" stroke="black" stroke-width="2" />
<line x1="549" y1="324" x2="473" y2="419" stroke="black" stroke-width="2" />
<line x1="473" y1="419" x2="450" y2="475" stroke="black" stroke-width="2" />
<line x1="450" y1="475" x2="526" y2="380" stroke="black" stroke-width="2" />
<line x1="525" y1="380" x2="539" y2="333" stroke="black" stroke-width="2" />
<line x1="539" y1="333" x2="474" y2="419" stroke="black" stroke-width="2" />
<line x1="474" y1="419" x2="460" y2="466" stroke="black" stroke-width="2" />
<line x1="460" y1="466" x2="525" y2="380" stroke="black" stroke-width="2" />
<line x1="523" y1="381" x2="530" y2="342" stroke="black" stroke-width="2" />
<line x1="530" y1="342" x2="476" y2="418" stroke="black" stroke-width="2" />
<line x1="476" y1="418" x2="469" y2="457" stroke="black" stroke-width="2" />
<line x1="469" y1="457" x2="523" y2="381" stroke="black" stroke-width="2" />
<line x1="522" y1="381" x2="521" y2="350" stroke="black" stroke-width="2" />
<line x1="521" y1="350" x2="477" y2="418" stroke="black" stroke-width="2" />
<line x1="477" y1="418" x2="478" y2="449" stroke="black" stroke-width="2" />
<line x1="478" y1="449" x2="522" y2="381" stroke="black" stroke-width="2" />
<line x1="520" y1="382" x2="513" y2="357" stroke="black" stroke-width="2" />
<line x1="513" y1="357" x2="479" y2="417" stroke="black" stroke-width="2" />
<line x1="479" y1="417" x2="486" y2="442" stroke="black" stroke-width="2" />
<line x1="486" y1="442" x2="520" y2="382" stroke="black" stroke-width="2" />
<line x1="518" y1="383" x2="507" y2="364" stroke="black" stroke-width="2" />
<line x1="507" y1="364" x2="481" y2="416" stroke="black" stroke-width="2" />
<line x1="481" y1="416" x2="492" y2="435" stroke="black" stroke-width="2" />
<line x1="492" y1="435" x2="518" y2="383" stroke="black" stroke-width="2" />
<line x1="517" y1="384" x2="500" y2="371" stroke="black" stroke-width="2" />
<line x1="500" y1="371" x2="482" y2="415" stroke="black" stroke-width="2" />
<line x1="482" y1="415" x2="499" y2="428" stroke="black" stroke-width="2" />
<line x1="499" y1="428" x2="517" y2="384" stroke="black" stroke-width="2" />
<line x1="515" y1="385" x2="495" y2="377" stroke="black" stroke-width="2" />
<line x1="495" y1="377" x2="484" y2="414" stroke="black" stroke-width="2" />
<line x1="484" y1="414" x2="504" y2="422" stroke="black" stroke-width="2" />
<line x1="504" y1="422" x2="515" y2="385" stroke="black" stroke-width="2" />
<line x1="514" y1="386" x2="490" y2="382" stroke="black" stroke-width="2" />
<line x1="490" y1="382" x2="485" y2="413" stroke="black" stroke-width="2" />
<line x1="485" y1="413" x2="509" y2="417" stroke="black" stroke-width="2" />
<line x1="509" y1="417" x2="514" y2="386" stroke="black" stroke-width="2" />
<line x1="512" y1="387" x2="486" y2="387" stroke="black" stroke-width="2" />
<line x1="486" y1="387" x2="487" y2="412" stroke="black" stroke-width="2" />
<line x1="487" y1="412" x2="513" y2="412" stroke="black" stroke-width="2" />
<line x1="513" y1="412" x2="512" y2="387" stroke="black" stroke-width="2" />
<line x1="511" y1="388" x2="483" y2="392" stroke="black" stroke-width="2" />
<line x1="483" y1="392" x2="488" y2="411" stroke="black" stroke-width="2" />
<line x1="488" y1="411" x2="516" y2="407" stroke="black" stroke-width="2" />
<line x1="516" y1="407" x2="511" y2="388" stroke="black" stroke-width="2" />
<line x1="510" y1="389" x2="480" y2="396" stroke="black" stroke-width="2" />
<line x1="480" y1="396" x2="489" y2="410" stroke="black" stroke-width="2" />
<line x1="489" y1="410" x2="519" y2="403" stroke="black" stroke-width="2" />
<line x1="519" y1="403" x2="510" y2="389" stroke="black" stroke-width="2" />
<line x1="508" y1="390" x2="477" y2="399" stroke="black" stroke-width="2" />
<line x1="477" y1="399" x2="491" y2="409" stroke="black" stroke-width="2" />
<line x1="491" y1="409" x2="522" y2="400" stroke="black" stroke-width="2" />
<line x1="522" y1="400" x2="508" y2="390" stroke="black" stroke-width="2" />
<line x1="507" y1="390" x2="476" y2="402" stroke="black" stroke-width="2" />
<line x1="476" y1="402" x2="492" y2="409" stroke="black" stroke-width="2" />
<line x1="492" y1="409" x2="523" y2="397" stroke="black" stroke-width="2" />
<line x1="523" y1="397" x2="507" y2="390" stroke="black" stroke-width="2" />
<line x1="506" y1="391" x2="474" y2="405" stroke="black" stroke-width="2" />
<line x1="474" y1="405" x2="493" y2="408" stroke="black" stroke-width="2" />
<line x1="493" y1="408" x2="525" y2="394" stroke="black" stroke-width="2" />
<line x1="525" y1="394" x2="506" y2="391" stroke="black" stroke-width="2" />
<line x1="505" y1="392" x2="473" y2="407" stroke="black" stroke-width="2" />
<line x1="473" y1="407" x2="494" y2="407" stroke="black" stroke-width="2" />
<line x1="494" y1="407" x2="526" y2="392" stroke="black" stroke-width="2" />
<line x1="526" y1="392" x2="505" y2="392" stroke="black" stroke-width="2" />
<line x1="504" y1="393" x2="472" y2="409" stroke="black" stroke-width="2" />
<line x1="472" y1="409" x2="495" y2="406" stroke="black" stroke-width="2" />
<line x1="495" y1="406" x2="527" y2="390" stroke="black" stroke-width="2" />
<line x1="527" y1="390" x2="504" y2="393" stroke="black" stroke-width="2" />
<line x1="503" y1="394" x2="472" y2="411" stroke="black" stroke-width="2" />
<line x1="472" y1="411" x2="496" y2="405" stroke="black" stroke-width="2" />
<line x1="496" y1="405" x2="527" y2="388" stroke="black" stroke-width="2" />
<line x1="527" y1="388" x2="503" y2="394" stroke="black" stroke-width="2" />
<line x1="502" y1="394" x2="472" y2="412" stroke="black" stroke-width="2" />
<line x1="472" y1="412" x2="497" y2="405" stroke="black" stroke-width="2" />
<line x1="497" y1="405" x2="527" y2="387" stroke="black" stroke-width="2" />
<line x1="527" y1="387" x2="502" y2="394" stroke="black" stroke-width="2" />
<line x1="502" y1="395" x2="472" y2="414" stroke="black" stroke-width="2" />
<line x1="472" y1="414" x2="497" y2="404" stroke="black" stroke-width="2" />
<line x1="497" y1="404" x2="527" y2="385" stroke="black" stroke-width="2" />
<line x1="527" y1="385" x2="502" y2="395" stroke="black" stroke-width="2" />
<line x1="501" y1="396" x2="472" y2="414" stroke="black" stroke-width="2" />
<line x1="472" y1="414" x2="498" y2="403" stroke="black" stroke-width="2" />
<line x1="498" y1="403" x2="527" y2="385" stroke="black" stroke-width="2" />
<line x1="527" y1="385" x2="501" y2="396" stroke="black" stroke-width="2" />
<line x1="500" y1="396" x2="473" y2="415" stroke="black" stroke-width="2" />
<line x1="473" y1="415" x2="499" y2="403" stroke="black" stroke-width="2" />
<line x1="499" y1="403" x2="526" y2="384" stroke="black" stroke-width="2" />
<line x1="526" y1="384" x2="500" y2="396" stroke="black" stroke-width="2" />
<line x1="500" y1="397" x2="474" y2="415" stroke="black" stroke-width="2" />
<line x1="474" y1="415" x2="499" y2="402" stroke="black" stroke-width="2" />
<line x1="499" y1="402" x2="525" y2="384" stroke="black" stroke-width="2" />
<line x1="525" y1="384" x2="500" y2="397" stroke="black" stroke-width="2" />
<line x1="499" y1="397" x2="475" y2="416" stroke="black" stroke-width="2" />
<line x1="475" y1="416" x2="500" y2="402" stroke="black" stroke-width="2" />
<line x1="500" y1="402" x2="524" y2="383" stroke="black" stroke-width="2" />
<line x1="524" y1="383" x2="499" y2="397" stroke="black" stroke-width="2" />
<line x1="499" y1="398" x2="476" y2="416" stroke="black" stroke-width="2" />
<line x1="476" y1="416" x2="500" y2="401" stroke="black" stroke-width="2" />
<line x1="500" y1="401" x2="523" y2="383" stroke="black" stroke-width="2" />
<line x1="523" y1="383" x2="499" y2="398" stroke="black" stroke-width="2" />
<line x1="499" y1="398" x2="477" y2="416" stroke="black" stroke-width="2" />
<line x1="477" y1="416" x2="500" y2="401" stroke="black" stroke-width="2" />
<line x1="500" y1="401" x2="522" y2="383" stroke="black" stroke-width="2" />
<line x1="522" y1="383" x2="499" y2="398" stroke="black" stroke-width="2" />
</svg>
