<svg width="1000" height="800" xmlns="http://www.w3.org/2000/svg" xmlns:xlink="http://www.w3.org/1999/xlink">
<line x1="500" y1="400" x2="510" y2="400" stroke="black" stroke-width="2" />
<line x1="510" y1="400" x2="510" y2="390" stroke="black" stroke-width="2" />
<line x1="510" y1="390" x2="500" y2="390" stroke="black" stroke-width="2" />
<line x1="500" y1="390" x2="500" y2="400" stroke="black" stroke-width="2" />
<line x1="501" y1="398" x2="510" y2="393" stroke="black" stroke-width="2" />
<line x1="510" y1="393" x2="506" y2="383" stroke="black" stroke-width="2" />
<line x1="506" y1="383" x2="496" y2="388" stroke="black" stroke-width="2" />
<line x1="496" y1="388" x2="501" y2="398" stroke="black" stroke-width="2" />
<line x1="501" y1="395" x2="508" y2="386" stroke="black" stroke-width="2" />
<line x1="508" y1="386" x2="499" y2="378" stroke="black" stroke-width="2" />
<line x1="499" y1="378" x2="491" y2="387" stroke="black" stroke-width="2" />
<line x1="491" y1="387" x2="501" y2="395" stroke="black" stroke-width="2" />
<line x1="499" y1="393" x2="503" y2="380" stroke="black" stroke-width="2" />
<line x1="503" y1="380" x2="490" y2="376" stroke="black" stroke-width="2" />
<line x1="490" y1="376" x2="487" y2="389" stroke="black" stroke-width="2" />
<line x1="487" y1="389" x2="499" y2="393" stroke="black" stroke-width="2" />
<line x1="497" y1="391" x2="495" y2="376" stroke="black" stroke-width="2" />
<line x1="495" y1="376" x2="480" y2="379" stroke="black" stroke-width="2" />
<line x1="480" y1="379" x2="483" y2="393" stroke="black" stroke-width="2" />
<line x1="483" y1="393" x2="497" y2="391" stroke="black" stroke-width="2" />
<line x1="494" y1="390" x2="485" y2="376" stroke="black" stroke-width="2" />
<line x1="485" y1="376" x2="472" y2="386" stroke="black" stroke-width="2" />
<line x1="472" y1="386" x2="481" y2="399" stroke="black" stroke-width="2" />
<line x1="481" y1="399" x2="494" y2="390" stroke="black" stroke-width="2" />
<line x1="491" y1="390" x2="475" y2="381" stroke="black" stroke-width="2" />
<line x1="475" y1="381" x2="466" y2="397" stroke="black" stroke-width="2" />
<line x1="466" y1="397" x2="482" y2="406" stroke="black" stroke-width="2" />
<line x1="482" y1="406" x2="491" y2="390" stroke="black" stroke-width="2" />
<line x1="487" y1="392" x2="468" y2="391" stroke="black" stroke-width="2" />
<line x1="468" y1="391" x2="466" y2="410" stroke="black" stroke-width="2" />
<line x1="466" y1="410" x2="486" y2="412" stroke="black" stroke-width="2" />
<line x1="486" y1="412" x2="487" y2="392" stroke="black" stroke-width="2" />
<line x1="485" y1="396" x2="465" y2="403" stroke="black" stroke-width="2" />
<line x1="465" y1="403" x2="472" y2="424" stroke="black" stroke-width="2" />
<line x1="472" y1="424" x2="492" y2="416" stroke="black" stroke-width="2" />
<line x1="492" y1="416" x2="485" y2="396" stroke="black" stroke-width="2" />
<line x1="484" y1="401" x2="468" y2="418" stroke="black" stroke-width="2" />
<line x1="468" y1="418" x2="484" y2="434" stroke="black" stroke-width="2" />
<line x1="484" y1="434" x2="501" y2="418" stroke="black" stroke-width="2" />
<line x1="501" y1="418" x2="484" y2="401" stroke="black" stroke-width="2" />
<line x1="486" y1="406" x2="477" y2="430" stroke="black" stroke-width="2" />
<line x1="477" y1="430" x2="502" y2="439" stroke="black" stroke-width="2" />
<line x1="502" y1="439" x2="510" y2="415" stroke="black" stroke-width="2" />
<line x1="510" y1="415" x2="486" y2="406" stroke="black" stroke-width="2" />
<line x1="490" y1="410" x2="493" y2="438" stroke="black" stroke-width="2" />
<line x1="493" y1="438" x2="521" y2="436" stroke="black" stroke-width="2" />
<line x1="521" y1="436" x2="519" y2="408" stroke="black" stroke-width="2" />
<line x1="519" y1="408" x2="490" y2="410" stroke="black" stroke-width="2" />
<line x1="496" y1="412" x2="512" y2="440" stroke="black" stroke-width="2" />
<line x1="512" y1="440" x2="539" y2="424" stroke="black" stroke-width="2" />
<line x1="539" y1="424" x2="523" y2="397" stroke="black" stroke-width="2" />
<line x1="523" y1="397" x2="496" y2="412" stroke="black" stroke-width="2" />
<line x1="503" y1="412" x2="531" y2="432" stroke="black" stroke-width="2" />
<line x1="531" y1="432" x2="551" y2="403" stroke="black" stroke-width="2" />
<line x1="551" y1="403" x2="523" y2="384" stroke="black" stroke-width="2" />
<line x1="523" y1="384" x2="503" y2="412" stroke="black" stroke-width="2" />
<line x1="510" y1="408" x2="547" y2="415" stroke="black" stroke-width="2" />
<line x1="547" y1="415" x2="554" y2="377" stroke="black" stroke-width="2" />
<line x1="554" y1="377" x2="516" y2="371" stroke="black" stroke-width="2" />
<line x1="516" y1="371" x2="510" y2="408" stroke="black" stroke-width="2" />
<line x1="515" y1="401" x2="555" y2="391" stroke="black" stroke-width="2" />
<line x1="555" y1="391" x2="544" y2="350" stroke="black" stroke-width="2" />
<line x1="544" y1="350" x2="504" y2="361" stroke="black" stroke-width="2" />
<line x1="504" y1="361" x2="515" y2="401" stroke="black" stroke-width="2" />
<line x1="517" y1="392" x2="552" y2="363" stroke="black" stroke-width="2" />
<line x1="552" y1="363" x2="522" y2="328" stroke="black" stroke-width="2" />
<line x1="522" y1="328" x2="487" y2="357" stroke="black" stroke-width="2" />
<line x1="487" y1="357" x2="517" y2="392" stroke="black" stroke-width="2" />
<line x1="514" y1="382" x2="536" y2="337" stroke="black" stroke-width="2" />
<line x1="536" y1="337" x2="490" y2="315" stroke="black" stroke-width="2" />
<line x1="490" y1="315" x2="469" y2="361" stroke="black" stroke-width="2" />
<line x1="469" y1="361" x2="514" y2="382" stroke="black" stroke-width="2" />
<line x1="507" y1="373" x2="507" y2="318" stroke="black" stroke-width="2" />
<line x1="507" y1="318" x2="452" y2="318" stroke="black" stroke-width="2" />
<line x1="452" y1="318" x2="452" y2="373" stroke="black" stroke-width="2" />
<line x1="452" y1="373" x2="507" y2="373" stroke="black" stroke-width="2" />
<line x1="496" y1="368" x2="470" y2="312" stroke="black" stroke-width="2" />
<line x1="470" y1="312" x2="415" y2="338" stroke="black" stroke-width="2" />
<line x1="415" y1="338" x2="441" y2="394" stroke="black" stroke-width="2" />
<line x1="441" y1="394" x2="496" y2="368" stroke="black" stroke-width="2" />
<line x1="483" y1="368" x2="431" y2="324" stroke="black" stroke-width="2" />
<line x1="431" y1="324" x2="388" y2="376" stroke="black" stroke-width="2" />
<line x1="388" y1="376" x2="439" y2="419" stroke="black" stroke-width="2" />
<line x1="439" y1="419" x2="483" y2="368" stroke="black" stroke-width="2" />
<line x1="469" y1="374" x2="397" y2="354" stroke="black" stroke-width="2" />
<line x1="397" y1="354" x2="378" y2="426" stroke="black" stroke-width="2" />
<line x1="378" y1="426" x2="450" y2="445" stroke="black" stroke-width="2" />
<line x1="450" y1="445" x2="469" y2="374" stroke="black" stroke-width="2" />
<line x1="458" y1="386" x2="378" y2="400" stroke="black" stroke-width="2" />
<line x1="378" y1="400" x2="392" y2="480" stroke="black" stroke-width="2" />
<line x1="392" y1="480" x2="472" y2="466" stroke="black" stroke-width="2" />
<line x1="472" y1="466" x2="458" y2="386" stroke="black" stroke-width="2" />
<line x1="453" y1="403" x2="379" y2="455" stroke="black" stroke-width="2" />
<line x1="379" y1="455" x2="431" y2="528" stroke="black" stroke-width="2" />
<line x1="431" y1="528" x2="504" y2="477" stroke="black" stroke-width="2" />
<line x1="504" y1="477" x2="453" y2="403" stroke="black" stroke-width="2" />
<line x1="456" y1="423" x2="406" y2="508" stroke="black" stroke-width="2" />
<line x1="406" y1="508" x2="492" y2="558" stroke="black" stroke-width="2" />
<line x1="492" y1="558" x2="541" y2="472" stroke="black" stroke-width="2" />
<line x1="541" y1="472" x2="456" y2="423" stroke="black" stroke-width="2" />
<line x1="468" y1="442" x2="458" y2="549" stroke="black" stroke-width="2" />
<line x1="458" y1="549" x2="566" y2="559" stroke="black" stroke-width="2" />
<line x1="566" y1="559" x2="576" y2="451" stroke="black" stroke-width="2" />
<line x1="576" y1="451" x2="468" y2="442" stroke="black" stroke-width="2" />
<line x1="488" y1="454" x2="529" y2="566" stroke="black" stroke-width="2" />
<line x1="529" y1="566" x2="641" y2="525" stroke="black" stroke-width="2" />
<line x1="641" y1="525" x2="600" y2="413" stroke="black" stroke-width="2" />
<line x1="600" y1="413" x2="488" y2="454" stroke="black" stroke-width="2" />
<line x1="515" y1="457" x2="607" y2="550" stroke="black" stroke-width="2" />
<line x1="607" y1="550" x2="700" y2="457" stroke="black" stroke-width="2" />
<line x1="700" y1="457" x2="607" y2="365" stroke="black" stroke-width="2" />
<line x1="607" y1="365" x2="515" y2="457" stroke="black" stroke-width="2" />
<line x1="543" y1="448" x2="678" y2="497" stroke="black" stroke-width="2" />
<line x1="678" y1="497" x2="727" y2="362" stroke="black" stroke-width="2" />
<line x1="727" y1="362" x2="592" y2="312" stroke="black" stroke-width="2" />
<line x1="592" y1="312" x2="543" y2="448" stroke="black" stroke-width="2" />
<line x1="566" y1="426" x2="724" y2="412" stroke="black" stroke-width="2" />
<line x1="724" y1="412" x2="710" y2="254" stroke="black" stroke-width="2" />
<line x1="710" y1="254" x2="552" y2="268" stroke="black" stroke-width="2" />
<line x1="552" y1="268" x2="566" y2="426" stroke="black" stroke-width="2" />
<line x1="579" y1="393" x2="730" y2="306" stroke="black" stroke-width="2" />
<line x1="730" y1="306" x2="643" y2="154" stroke="black" stroke-width="2" />
<line x1="643" y1="154" x2="492" y2="242" stroke="black" stroke-width="2" />
<line x1="492" y1="242" x2="579" y2="393" stroke="black" stroke-width="2" />
<line x1="577" y1="354" x2="687" y2="197" stroke="black" stroke-width="2" />
<line x1="687" y1="197" x2="530" y2="87" stroke="black" stroke-width="2" />
<line x1="530" y1="87" x2="419" y2="244" stroke="black" stroke-width="2" />
<line x1="419" y1="244" x2="577" y2="354" stroke="black" stroke-width="2" />
<line x1="556" y1="316" x2="593" y2="108" stroke="black" stroke-width="2" />
<line x1="593" y1="108" x2="385" y2="72" stroke="black" stroke-width="2" />
<line x1="385" y1="72" x2="348" y2="279" stroke="black" stroke-width="2" />
<line x1="348" y1="279" x2="556" y2="316" stroke="black" stroke-width="2" />
<line x1="518" y1="288" x2="458" y2="64" stroke="black" stroke-width="2" />
<line x1="458" y1="64" x2="234" y2="124" stroke="black" stroke-width="2" />
<line x1="234" y1="124" x2="294" y2="348" stroke="black" stroke-width="2" />
<line x1="294" y1="348" x2="518" y2="288" stroke="black" stroke-width="2" />
<line x1="467" y1="278" x2="303" y2="82" stroke="black" stroke-width="2" />
<line x1="303" y1="82" x2="108" y2="246" stroke="black" stroke-width="2" />
<line x1="108" y1="246" x2="272" y2="442" stroke="black" stroke-width="2" />
<line x1="272" y1="442" x2="467" y2="278" stroke="black" stroke-width="2" />
<line x1="412" y1="291" x2="157" y2="172" stroke="black" stroke-width="2" />
<line x1="157" y1="172" x2="38" y2="427" stroke="black" stroke-width="2" />
<line x1="38" y1="427" x2="293" y2="546" stroke="black" stroke-width="2" />
<line x1="293" y1="546" x2="412" y2="291" stroke="black" stroke-width="2" />
<line x1="363" y1="330" x2="54" y2="330" stroke="black" stroke-width="2" />
<line x1="54" y1="330" x2="54" y2="639" stroke="black" stroke-width="2" />
<line x1="54" y1="639" x2="363" y2="639" stroke="black" stroke-width="2" />
<line x1="363" y1="639" x2="363" y2="330" stroke="black" stroke-width="2" />
</svg>
