<svg width="1000" height="1000" xmlns="http://www.w3.org/2000/svg" xmlns:xlink="http://www.w3.org/1999/xlink">
<line x1="500" y1="500" x2="506" y2="480" stroke="black" stroke-width="1" />
<line x1="506" y1="480" x2="490" y2="469" stroke="black" stroke-width="1" />
<line x1="490" y1="469" x2="473" y2="480" stroke="black" stroke-width="1" />
<line x1="473" y1="480" x2="480" y2="500" stroke="black" stroke-width="1" />
<line x1="480" y1="500" x2="500" y2="500" stroke="black" stroke-width="1" />
<line x1="500" y1="500" x2="480" y2="500" stroke="black" stroke-width="1" />
<line x1="480" y1="500" x2="463" y2="488" stroke="black" stroke-width="1" />
<line x1="463" y1="488" x2="447" y2="500" stroke="black" stroke-width="1" />
<line x1="447" y1="500" x2="453" y2="519" stroke="black" stroke-width="1" />
<line x1="453" y1="519" x2="473" y2="519" stroke="black" stroke-width="1" />
<line x1="473" y1="519" x2="480" y2="500" stroke="black" stroke-width="1" />
<line x1="480" y1="500" x2="473" y2="519" stroke="black" stroke-width="1" />
<line x1="473" y1="519" x2="457" y2="530" stroke="black" stroke-width="1" />
<line x1="457" y1="530" x2="463" y2="549" stroke="black" stroke-width="1" />
<line x1="463" y1="549" x2="483" y2="549" stroke="black" stroke-width="1" />
<line x1="483" y1="549" x2="490" y2="530" stroke="black" stroke-width="1" />
<line x1="490" y1="530" x2="473" y2="519" stroke="black" stroke-width="1" />
<line x1="473" y1="519" x2="490" y2="530" stroke="black" stroke-width="1" />
<line x1="490" y1="530" x2="496" y2="549" stroke="black" stroke-width="1" />
<line x1="496" y1="549" x2="516" y2="549" stroke="black" stroke-width="1" />
<line x1="516" y1="549" x2="522" y2="530" stroke="black" stroke-width="1" />
<line x1="522" y1="530" x2="506" y2="519" stroke="black" stroke-width="1" />
<line x1="506" y1="519" x2="490" y2="530" stroke="black" stroke-width="1" />
<line x1="490" y1="530" x2="506" y2="519" stroke="black" stroke-width="1" />
<line x1="506" y1="519" x2="526" y2="519" stroke="black" stroke-width="1" />
<line x1="526" y1="519" x2="532" y2="500" stroke="black" stroke-width="1" />
<line x1="532" y1="500" x2="516" y2="488" stroke="black" stroke-width="1" />
<line x1="516" y1="488" x2="500" y2="500" stroke="black" stroke-width="1" />
<line x1="500" y1="500" x2="506" y2="519" stroke="black" stroke-width="1" />
<line x1="506" y1="519" x2="500" y2="500" stroke="black" stroke-width="1" />
<line x1="500" y1="500" x2="432" y2="549" stroke="black" stroke-width="3" />
<line x1="432" y1="549" x2="438" y2="530" stroke="black" stroke-width="1" />
<line x1="438" y1="530" x2="422" y2="518" stroke="black" stroke-width="1" />
<line x1="422" y1="518" x2="405" y2="530" stroke="black" stroke-width="1" />
<line x1="405" y1="530" x2="412" y2="549" stroke="black" stroke-width="1" />
<line x1="412" y1="549" x2="432" y2="549" stroke="black" stroke-width="1" />
<line x1="432" y1="549" x2="412" y2="549" stroke="black" stroke-width="1" />
<line x1="412" y1="549" x2="395" y2="537" stroke="black" stroke-width="1" />
<line x1="395" y1="537" x2="379" y2="549" stroke="black" stroke-width="1" />
<line x1="379" y1="549" x2="385" y2="568" stroke="black" stroke-width="1" />
<line x1="385" y1="568" x2="405" y2="568" stroke="black" stroke-width="1" />
<line x1="405" y1="568" x2="412" y2="549" stroke="black" stroke-width="1" />
<line x1="412" y1="549" x2="405" y2="568" stroke="black" stroke-width="1" />
<line x1="405" y1="568" x2="389" y2="580" stroke="black" stroke-width="1" />
<line x1="389" y1="580" x2="395" y2="599" stroke="black" stroke-width="1" />
<line x1="395" y1="599" x2="415" y2="599" stroke="black" stroke-width="1" />
<line x1="415" y1="599" x2="422" y2="580" stroke="black" stroke-width="1" />
<line x1="422" y1="580" x2="405" y2="568" stroke="black" stroke-width="1" />
<line x1="405" y1="568" x2="422" y2="580" stroke="black" stroke-width="1" />
<line x1="422" y1="580" x2="428" y2="599" stroke="black" stroke-width="1" />
<line x1="428" y1="599" x2="448" y2="599" stroke="black" stroke-width="1" />
<line x1="448" y1="599" x2="454" y2="580" stroke="black" stroke-width="1" />
<line x1="454" y1="580" x2="438" y2="568" stroke="black" stroke-width="1" />
<line x1="438" y1="568" x2="422" y2="580" stroke="black" stroke-width="1" />
<line x1="422" y1="580" x2="438" y2="568" stroke="black" stroke-width="1" />
<line x1="438" y1="568" x2="458" y2="568" stroke="black" stroke-width="1" />
<line x1="458" y1="568" x2="464" y2="549" stroke="black" stroke-width="1" />
<line x1="464" y1="549" x2="448" y2="537" stroke="black" stroke-width="1" />
<line x1="448" y1="537" x2="432" y2="549" stroke="black" stroke-width="1" />
<line x1="432" y1="549" x2="438" y2="568" stroke="black" stroke-width="1" />
<line x1="438" y1="568" x2="432" y2="549" stroke="black" stroke-width="1" />
<line x1="432" y1="549" x2="458" y2="629" stroke="black" stroke-width="3" />
<line x1="458" y1="629" x2="464" y2="610" stroke="black" stroke-width="1" />
<line x1="464" y1="610" x2="448" y2="598" stroke="black" stroke-width="1" />
<line x1="448" y1="598" x2="431" y2="610" stroke="black" stroke-width="1" />
<line x1="431" y1="610" x2="438" y2="629" stroke="black" stroke-width="1" />
<line x1="438" y1="629" x2="458" y2="629" stroke="black" stroke-width="1" />
<line x1="458" y1="629" x2="438" y2="629" stroke="black" stroke-width="1" />
<line x1="438" y1="629" x2="421" y2="617" stroke="black" stroke-width="1" />
<line x1="421" y1="617" x2="405" y2="629" stroke="black" stroke-width="1" />
<line x1="405" y1="629" x2="411" y2="648" stroke="black" stroke-width="1" />
<line x1="411" y1="648" x2="431" y2="648" stroke="black" stroke-width="1" />
<line x1="431" y1="648" x2="438" y2="629" stroke="black" stroke-width="1" />
<line x1="438" y1="629" x2="431" y2="648" stroke="black" stroke-width="1" />
<line x1="431" y1="648" x2="415" y2="660" stroke="black" stroke-width="1" />
<line x1="415" y1="660" x2="421" y2="679" stroke="black" stroke-width="1" />
<line x1="421" y1="679" x2="441" y2="679" stroke="black" stroke-width="1" />
<line x1="441" y1="679" x2="448" y2="660" stroke="black" stroke-width="1" />
<line x1="448" y1="660" x2="431" y2="648" stroke="black" stroke-width="1" />
<line x1="431" y1="648" x2="448" y2="660" stroke="black" stroke-width="1" />
<line x1="448" y1="660" x2="454" y2="679" stroke="black" stroke-width="1" />
<line x1="454" y1="679" x2="474" y2="679" stroke="black" stroke-width="1" />
<line x1="474" y1="679" x2="480" y2="660" stroke="black" stroke-width="1" />
<line x1="480" y1="660" x2="464" y2="648" stroke="black" stroke-width="1" />
<line x1="464" y1="648" x2="448" y2="660" stroke="black" stroke-width="1" />
<line x1="448" y1="660" x2="464" y2="648" stroke="black" stroke-width="1" />
<line x1="464" y1="648" x2="484" y2="648" stroke="black" stroke-width="1" />
<line x1="484" y1="648" x2="490" y2="629" stroke="black" stroke-width="1" />
<line x1="490" y1="629" x2="474" y2="617" stroke="black" stroke-width="1" />
<line x1="474" y1="617" x2="458" y2="629" stroke="black" stroke-width="1" />
<line x1="458" y1="629" x2="464" y2="648" stroke="black" stroke-width="1" />
<line x1="464" y1="648" x2="458" y2="629" stroke="black" stroke-width="1" />
<line x1="458" y1="629" x2="542" y2="629" stroke="black" stroke-width="3" />
<line x1="542" y1="629" x2="548" y2="610" stroke="black" stroke-width="1" />
<line x1="548" y1="610" x2="532" y2="598" stroke="black" stroke-width="1" />
<line x1="532" y1="598" x2="515" y2="610" stroke="black" stroke-width="1" />
<line x1="515" y1="610" x2="522" y2="629" stroke="black" stroke-width="1" />
<line x1="522" y1="629" x2="542" y2="629" stroke="black" stroke-width="1" />
<line x1="542" y1="629" x2="522" y2="629" stroke="black" stroke-width="1" />
<line x1="522" y1="629" x2="505" y2="617" stroke="black" stroke-width="1" />
<line x1="505" y1="617" x2="489" y2="629" stroke="black" stroke-width="1" />
<line x1="489" y1="629" x2="495" y2="648" stroke="black" stroke-width="1" />
<line x1="495" y1="648" x2="515" y2="648" stroke="black" stroke-width="1" />
<line x1="515" y1="648" x2="522" y2="629" stroke="black" stroke-width="1" />
<line x1="522" y1="629" x2="515" y2="648" stroke="black" stroke-width="1" />
<line x1="515" y1="648" x2="499" y2="660" stroke="black" stroke-width="1" />
<line x1="499" y1="660" x2="505" y2="679" stroke="black" stroke-width="1" />
<line x1="505" y1="679" x2="525" y2="679" stroke="black" stroke-width="1" />
<line x1="525" y1="679" x2="532" y2="660" stroke="black" stroke-width="1" />
<line x1="532" y1="660" x2="515" y2="648" stroke="black" stroke-width="1" />
<line x1="515" y1="648" x2="532" y2="660" stroke="black" stroke-width="1" />
<line x1="532" y1="660" x2="538" y2="679" stroke="black" stroke-width="1" />
<line x1="538" y1="679" x2="558" y2="679" stroke="black" stroke-width="1" />
<line x1="558" y1="679" x2="564" y2="660" stroke="black" stroke-width="1" />
<line x1="564" y1="660" x2="548" y2="648" stroke="black" stroke-width="1" />
<line x1="548" y1="648" x2="532" y2="660" stroke="black" stroke-width="1" />
<line x1="532" y1="660" x2="548" y2="648" stroke="black" stroke-width="1" />
<line x1="548" y1="648" x2="568" y2="648" stroke="black" stroke-width="1" />
<line x1="568" y1="648" x2="574" y2="629" stroke="black" stroke-width="1" />
<line x1="574" y1="629" x2="558" y2="617" stroke="black" stroke-width="1" />
<line x1="558" y1="617" x2="542" y2="629" stroke="black" stroke-width="1" />
<line x1="542" y1="629" x2="548" y2="648" stroke="black" stroke-width="1" />
<line x1="548" y1="648" x2="542" y2="629" stroke="black" stroke-width="1" />
<line x1="542" y1="629" x2="567" y2="549" stroke="black" stroke-width="3" />
<line x1="567" y1="549" x2="574" y2="530" stroke="black" stroke-width="1" />
<line x1="574" y1="530" x2="557" y2="518" stroke="black" stroke-width="1" />
<line x1="557" y1="518" x2="541" y2="530" stroke="black" stroke-width="1" />
<line x1="541" y1="530" x2="547" y2="549" stroke="black" stroke-width="1" />
<line x1="547" y1="549" x2="567" y2="549" stroke="black" stroke-width="1" />
<line x1="567" y1="549" x2="547" y2="549" stroke="black" stroke-width="1" />
<line x1="547" y1="549" x2="531" y2="537" stroke="black" stroke-width="1" />
<line x1="531" y1="537" x2="515" y2="549" stroke="black" stroke-width="1" />
<line x1="515" y1="549" x2="521" y2="568" stroke="black" stroke-width="1" />
<line x1="521" y1="568" x2="541" y2="568" stroke="black" stroke-width="1" />
<line x1="541" y1="568" x2="547" y2="549" stroke="black" stroke-width="1" />
<line x1="547" y1="549" x2="541" y2="568" stroke="black" stroke-width="1" />
<line x1="541" y1="568" x2="525" y2="580" stroke="black" stroke-width="1" />
<line x1="525" y1="580" x2="531" y2="599" stroke="black" stroke-width="1" />
<line x1="531" y1="599" x2="551" y2="599" stroke="black" stroke-width="1" />
<line x1="551" y1="599" x2="557" y2="580" stroke="black" stroke-width="1" />
<line x1="557" y1="580" x2="541" y2="568" stroke="black" stroke-width="1" />
<line x1="541" y1="568" x2="557" y2="580" stroke="black" stroke-width="1" />
<line x1="557" y1="580" x2="564" y2="599" stroke="black" stroke-width="1" />
<line x1="564" y1="599" x2="584" y2="599" stroke="black" stroke-width="1" />
<line x1="584" y1="599" x2="590" y2="580" stroke="black" stroke-width="1" />
<line x1="590" y1="580" x2="574" y2="568" stroke="black" stroke-width="1" />
<line x1="574" y1="568" x2="557" y2="580" stroke="black" stroke-width="1" />
<line x1="557" y1="580" x2="574" y2="568" stroke="black" stroke-width="1" />
<line x1="574" y1="568" x2="594" y2="568" stroke="black" stroke-width="1" />
<line x1="594" y1="568" x2="600" y2="549" stroke="black" stroke-width="1" />
<line x1="600" y1="549" x2="584" y2="537" stroke="black" stroke-width="1" />
<line x1="584" y1="537" x2="567" y2="549" stroke="black" stroke-width="1" />
<line x1="567" y1="549" x2="574" y2="568" stroke="black" stroke-width="1" />
<line x1="574" y1="568" x2="567" y2="549" stroke="black" stroke-width="1" />
<line x1="567" y1="549" x2="500" y2="500" stroke="black" stroke-width="3" />
<line x1="500" y1="500" x2="506" y2="480" stroke="black" stroke-width="1" />
<line x1="506" y1="480" x2="490" y2="469" stroke="black" stroke-width="1" />
<line x1="490" y1="469" x2="473" y2="480" stroke="black" stroke-width="1" />
<line x1="473" y1="480" x2="480" y2="500" stroke="black" stroke-width="1" />
<line x1="480" y1="500" x2="500" y2="500" stroke="black" stroke-width="1" />
<line x1="500" y1="500" x2="480" y2="500" stroke="black" stroke-width="1" />
<line x1="480" y1="500" x2="463" y2="488" stroke="black" stroke-width="1" />
<line x1="463" y1="488" x2="447" y2="500" stroke="black" stroke-width="1" />
<line x1="447" y1="500" x2="453" y2="519" stroke="black" stroke-width="1" />
<line x1="453" y1="519" x2="473" y2="519" stroke="black" stroke-width="1" />
<line x1="473" y1="519" x2="480" y2="500" stroke="black" stroke-width="1" />
<line x1="480" y1="500" x2="473" y2="519" stroke="black" stroke-width="1" />
<line x1="473" y1="519" x2="457" y2="530" stroke="black" stroke-width="1" />
<line x1="457" y1="530" x2="463" y2="549" stroke="black" stroke-width="1" />
<line x1="463" y1="549" x2="483" y2="549" stroke="black" stroke-width="1" />
<line x1="483" y1="549" x2="490" y2="530" stroke="black" stroke-width="1" />
<line x1="490" y1="530" x2="473" y2="519" stroke="black" stroke-width="1" />
<line x1="473" y1="519" x2="490" y2="530" stroke="black" stroke-width="1" />
<line x1="490" y1="530" x2="496" y2="549" stroke="black" stroke-width="1" />
<line x1="496" y1="549" x2="516" y2="549" stroke="black" stroke-width="1" />
<line x1="516" y1="549" x2="522" y2="530" stroke="black" stroke-width="1" />
<line x1="522" y1="530" x2="506" y2="519" stroke="black" stroke-width="1" />
<line x1="506" y1="519" x2="490" y2="530" stroke="black" stroke-width="1" />
<line x1="490" y1="530" x2="506" y2="519" stroke="black" stroke-width="1" />
<line x1="506" y1="519" x2="526" y2="519" stroke="black" stroke-width="1" />
<line x1="526" y1="519" x2="532" y2="500" stroke="black" stroke-width="1" />
<line x1="532" y1="500" x2="516" y2="488" stroke="black" stroke-width="1" />
<line x1="516" y1="488" x2="500" y2="500" stroke="black" stroke-width="1" />
<line x1="500" y1="500" x2="506" y2="519" stroke="black" stroke-width="1" />
<line x1="506" y1="519" x2="500" y2="500" stroke="black" stroke-width="1" />
<line x1="500" y1="500" x2="432" y2="549" stroke="black" stroke-width="3" />
<line x1="432" y1="549" x2="438" y2="530" stroke="black" stroke-width="1" />
<line x1="438" y1="530" x2="422" y2="518" stroke="black" stroke-width="1" />
<line x1="422" y1="518" x2="405" y2="530" stroke="black" stroke-width="1" />
<line x1="405" y1="530" x2="412" y2="549" stroke="black" stroke-width="1" />
<line x1="412" y1="549" x2="432" y2="549" stroke="black" stroke-width="1" />
<line x1="432" y1="549" x2="412" y2="549" stroke="black" stroke-width="1" />
<line x1="412" y1="549" x2="395" y2="537" stroke="black" stroke-width="1" />
<line x1="395" y1="537" x2="379" y2="549" stroke="black" stroke-width="1" />
<line x1="379" y1="549" x2="385" y2="568" stroke="black" stroke-width="1" />
<line x1="385" y1="568" x2="405" y2="568" stroke="black" stroke-width="1" />
<line x1="405" y1="568" x2="412" y2="549" stroke="black" stroke-width="1" />
<line x1="412" y1="549" x2="405" y2="568" stroke="black" stroke-width="1" />
<line x1="405" y1="568" x2="389" y2="580" stroke="black" stroke-width="1" />
<line x1="389" y1="580" x2="395" y2="599" stroke="black" stroke-width="1" />
<line x1="395" y1="599" x2="415" y2="599" stroke="black" stroke-width="1" />
<line x1="415" y1="599" x2="422" y2="580" stroke="black" stroke-width="1" />
<line x1="422" y1="580" x2="405" y2="568" stroke="black" stroke-width="1" />
<line x1="405" y1="568" x2="422" y2="580" stroke="black" stroke-width="1" />
<line x1="422" y1="580" x2="428" y2="599" stroke="black" stroke-width="1" />
<line x1="428" y1="599" x2="448" y2="599" stroke="black" stroke-width="1" />
<line x1="448" y1="599" x2="454" y2="580" stroke="black" stroke-width="1" />
<line x1="454" y1="580" x2="438" y2="568" stroke="black" stroke-width="1" />
<line x1="438" y1="568" x2="422" y2="580" stroke="black" stroke-width="1" />
<line x1="422" y1="580" x2="438" y2="568" stroke="black" stroke-width="1" />
<line x1="438" y1="568" x2="458" y2="568" stroke="black" stroke-width="1" />
<line x1="458" y1="568" x2="464" y2="549" stroke="black" stroke-width="1" />
<line x1="464" y1="549" x2="448" y2="537" stroke="black" stroke-width="1" />
<line x1="448" y1="537" x2="432" y2="549" stroke="black" stroke-width="1" />
<line x1="432" y1="549" x2="438" y2="568" stroke="black" stroke-width="1" />
<line x1="438" y1="568" x2="432" y2="549" stroke="black" stroke-width="1" />
<line x1="432" y1="549" x2="458" y2="629" stroke="black" stroke-width="3" />
<line x1="458" y1="629" x2="464" y2="610" stroke="black" stroke-width="1" />
<line x1="464" y1="610" x2="448" y2="598" stroke="black" stroke-width="1" />
<line x1="448" y1="598" x2="431" y2="610" stroke="black" stroke-width="1" />
<line x1="431" y1="610" x2="438" y2="629" stroke="black" stroke-width="1" />
<line x1="438" y1="629" x2="458" y2="629" stroke="black" stroke-width="1" />
<line x1="458" y1="629" x2="438" y2="629" stroke="black" stroke-width="1" />
<line x1="438" y1="629" x2="421" y2="617" stroke="black" stroke-width="1" />
<line x1="421" y1="617" x2="405" y2="629" stroke="black" stroke-width="1" />
<line x1="405" y1="629" x2="411" y2="648" stroke="black" stroke-width="1" />
<line x1="411" y1="648" x2="431" y2="648" stroke="black" stroke-width="1" />
<line x1="431" y1="648" x2="438" y2="629" stroke="black" stroke-width="1" />
<line x1="438" y1="629" x2="431" y2="648" stroke="black" stroke-width="1" />
<line x1="431" y1="648" x2="415" y2="660" stroke="black" stroke-width="1" />
<line x1="415" y1="660" x2="421" y2="679" stroke="black" stroke-width="1" />
<line x1="421" y1="679" x2="441" y2="679" stroke="black" stroke-width="1" />
<line x1="441" y1="679" x2="448" y2="660" stroke="black" stroke-width="1" />
<line x1="448" y1="660" x2="431" y2="648" stroke="black" stroke-width="1" />
<line x1="431" y1="648" x2="448" y2="660" stroke="black" stroke-width="1" />
<line x1="448" y1="660" x2="454" y2="679" stroke="black" stroke-width="1" />
<line x1="454" y1="679" x2="474" y2="679" stroke="black" stroke-width="1" />
<line x1="474" y1="679" x2="480" y2="660" stroke="black" stroke-width="1" />
<line x1="480" y1="660" x2="464" y2="648" stroke="black" stroke-width="1" />
<line x1="464" y1="648" x2="448" y2="660" stroke="black" stroke-width="1" />
<line x1="448" y1="660" x2="464" y2="648" stroke="black" stroke-width="1" />
<line x1="464" y1="648" x2="484" y2="648" stroke="black" stroke-width="1" />
<line x1="484" y1="648" x2="490" y2="629" stroke="black" stroke-width="1" />
<line x1="490" y1="629" x2="474" y2="617" stroke="black" stroke-width="1" />
<line x1="474" y1="617" x2="458" y2="629" stroke="black" stroke-width="1" />
<line x1="458" y1="629" x2="464" y2="648" stroke="black" stroke-width="1" />
<line x1="464" y1="648" x2="458" y2="629" stroke="black" stroke-width="1" />
<line x1="458" y1="629" x2="542" y2="629" stroke="black" stroke-width="3" />
<line x1="542" y1="629" x2="548" y2="610" stroke="black" stroke-width="1" />
<line x1="548" y1="610" x2="532" y2="598" stroke="black" stroke-width="1" />
<line x1="532" y1="598" x2="515" y2="610" stroke="black" stroke-width="1" />
<line x1="515" y1="610" x2="522" y2="629" stroke="black" stroke-width="1" />
<line x1="522" y1="629" x2="542" y2="629" stroke="black" stroke-width="1" />
<line x1="542" y1="629" x2="522" y2="629" stroke="black" stroke-width="1" />
<line x1="522" y1="629" x2="505" y2="617" stroke="black" stroke-width="1" />
<line x1="505" y1="617" x2="489" y2="629" stroke="black" stroke-width="1" />
<line x1="489" y1="629" x2="495" y2="648" stroke="black" stroke-width="1" />
<line x1="495" y1="648" x2="515" y2="648" stroke="black" stroke-width="1" />
<line x1="515" y1="648" x2="522" y2="629" stroke="black" stroke-width="1" />
<line x1="522" y1="629" x2="515" y2="648" stroke="black" stroke-width="1" />
<line x1="515" y1="648" x2="499" y2="660" stroke="black" stroke-width="1" />
<line x1="499" y1="660" x2="505" y2="679" stroke="black" stroke-width="1" />
<line x1="505" y1="679" x2="525" y2="679" stroke="black" stroke-width="1" />
<line x1="525" y1="679" x2="532" y2="660" stroke="black" stroke-width="1" />
<line x1="532" y1="660" x2="515" y2="648" stroke="black" stroke-width="1" />
<line x1="515" y1="648" x2="532" y2="660" stroke="black" stroke-width="1" />
<line x1="532" y1="660" x2="538" y2="679" stroke="black" stroke-width="1" />
<line x1="538" y1="679" x2="558" y2="679" stroke="black" stroke-width="1" />
<line x1="558" y1="679" x2="564" y2="660" stroke="black" stroke-width="1" />
<line x1="564" y1="660" x2="548" y2="648" stroke="black" stroke-width="1" />
<line x1="548" y1="648" x2="532" y2="660" stroke="black" stroke-width="1" />
<line x1="532" y1="660" x2="548" y2="648" stroke="black" stroke-width="1" />
<line x1="548" y1="648" x2="568" y2="648" stroke="black" stroke-width="1" />
<line x1="568" y1="648" x2="574" y2="629" stroke="black" stroke-width="1" />
<line x1="574" y1="629" x2="558" y2="617" stroke="black" stroke-width="1" />
<line x1="558" y1="617" x2="542" y2="629" stroke="black" stroke-width="1" />
<line x1="542" y1="629" x2="548" y2="648" stroke="black" stroke-width="1" />
<line x1="548" y1="648" x2="542" y2="629" stroke="black" stroke-width="1" />
<line x1="542" y1="629" x2="567" y2="549" stroke="black" stroke-width="3" />
<line x1="567" y1="549" x2="574" y2="530" stroke="black" stroke-width="1" />
<line x1="574" y1="530" x2="557" y2="518" stroke="black" stroke-width="1" />
<line x1="557" y1="518" x2="541" y2="530" stroke="black" stroke-width="1" />
<line x1="541" y1="530" x2="547" y2="549" stroke="black" stroke-width="1" />
<line x1="547" y1="549" x2="567" y2="549" stroke="black" stroke-width="1" />
<line x1="567" y1="549" x2="547" y2="549" stroke="black" stroke-width="1" />
<line x1="547" y1="549" x2="531" y2="537" stroke="black" stroke-width="1" />
<line x1="531" y1="537" x2="515" y2="549" stroke="black" stroke-width="1" />
<line x1="515" y1="549" x2="521" y2="568" stroke="black" stroke-width="1" />
<line x1="521" y1="568" x2="541" y2="568" stroke="black" stroke-width="1" />
<line x1="541" y1="568" x2="547" y2="549" stroke="black" stroke-width="1" />
<line x1="547" y1="549" x2="541" y2="568" stroke="black" stroke-width="1" />
<line x1="541" y1="568" x2="525" y2="580" stroke="black" stroke-width="1" />
<line x1="525" y1="580" x2="531" y2="599" stroke="black" stroke-width="1" />
<line x1="531" y1="599" x2="551" y2="599" stroke="black" stroke-width="1" />
<line x1="551" y1="599" x2="557" y2="580" stroke="black" stroke-width="1" />
<line x1="557" y1="580" x2="541" y2="568" stroke="black" stroke-width="1" />
<line x1="541" y1="568" x2="557" y2="580" stroke="black" stroke-width="1" />
<line x1="557" y1="580" x2="564" y2="599" stroke="black" stroke-width="1" />
<line x1="564" y1="599" x2="584" y2="599" stroke="black" stroke-width="1" />
<line x1="584" y1="599" x2="590" y2="580" stroke="black" stroke-width="1" />
<line x1="590" y1="580" x2="574" y2="568" stroke="black" stroke-width="1" />
<line x1="574" y1="568" x2="557" y2="580" stroke="black" stroke-width="1" />
<line x1="557" y1="580" x2="574" y2="568" stroke="black" stroke-width="1" />
<line x1="574" y1="568" x2="594" y2="568" stroke="black" stroke-width="1" />
<line x1="594" y1="568" x2="600" y2="549" stroke="black" stroke-width="1" />
<line x1="600" y1="549" x2="584" y2="537" stroke="black" stroke-width="1" />
<line x1="584" y1="537" x2="567" y2="549" stroke="black" stroke-width="1" />
<line x1="567" y1="549" x2="574" y2="568" stroke="black" stroke-width="1" />
<line x1="574" y1="568" x2="567" y2="549" stroke="black" stroke-width="1" />
<line x1="567" y1="549" x2="500" y2="500" stroke="black" stroke-width="3" />
</svg>
