<svg width="800" height="600" xmlns="http://www.w3.org/2000/svg" xmlns:xlink="http://www.w3.org/1999/xlink">
<line x1="400" y1="100" x2="359" y2="497" stroke="black" stroke-width="1"/>
<line x1="359" y1="497" x2="440" y2="106" stroke="black" stroke-width="1"/>
<line x1="440" y1="106" x2="320" y2="487" stroke="black" stroke-width="1"/>
<line x1="320" y1="487" x2="478" y2="120" stroke="black" stroke-width="1"/>
<line x1="478" y1="120" x2="283" y2="469" stroke="black" stroke-width="1"/>
<line x1="283" y1="469" x2="512" y2="141" stroke="black" stroke-width="1"/>
<line x1="512" y1="141" x2="251" y2="445" stroke="black" stroke-width="1"/>
<line x1="251" y1="445" x2="541" y2="169" stroke="black" stroke-width="1"/>
<line x1="541" y1="169" x2="225" y2="414" stroke="black" stroke-width="1"/>
<line x1="225" y1="414" x2="564" y2="202" stroke="black" stroke-width="1"/>
<line x1="564" y1="202" x2="205" y2="378" stroke="black" stroke-width="1"/>
<line x1="205" y1="378" x2="580" y2="240" stroke="black" stroke-width="1"/>
<line x1="580" y1="240" x2="193" y2="340" stroke="black" stroke-width="1"/>
<line x1="193" y1="340" x2="589" y2="279" stroke="black" stroke-width="1"/>
<line x1="589" y1="279" x2="189" y2="299" stroke="black" stroke-width="1"/>
<line x1="189" y1="299" x2="589" y2="320" stroke="black" stroke-width="1"/>
<line x1="589" y1="320" x2="193" y2="259" stroke="black" stroke-width="1"/>
<line x1="193" y1="259" x2="580" y2="359" stroke="black" stroke-width="1"/>
<line x1="580" y1="359" x2="205" y2="221" stroke="black" stroke-width="1"/>
<line x1="205" y1="221" x2="564" y2="397" stroke="black" stroke-width="1"/>
<line x1="564" y1="397" x2="225" y2="185" stroke="black" stroke-width="1"/>
<line x1="225" y1="185" x2="541" y2="430" stroke="black" stroke-width="1"/>
<line x1="541" y1="430" x2="251" y2="154" stroke="black" stroke-width="1"/>
<line x1="251" y1="154" x2="512" y2="458" stroke="black" stroke-width="1"/>
<line x1="512" y1="458" x2="283" y2="130" stroke="black" stroke-width="1"/>
<line x1="283" y1="130" x2="478" y2="479" stroke="black" stroke-width="1"/>
<line x1="478" y1="479" x2="320" y2="112" stroke="black" stroke-width="1"/>
<line x1="320" y1="112" x2="440" y2="493" stroke="black" stroke-width="1"/>
<line x1="440" y1="493" x2="359" y2="102" stroke="black" stroke-width="1"/>
<line x1="359" y1="102" x2="399" y2="500" stroke="black" stroke-width="1"/>
<line x1="399" y1="500" x2="400" y2="100" stroke="black" stroke-width="1"/>
</svg>
