<svg width="400" height="400" xmlns="http://www.w3.org/2000/svg" xmlns:xlink="http://www.w3.org/1999/xlink">
<line x1="217" y1="30" x2="200" y2="0" stroke="black" stroke-width="1" />
<line x1="200" y1="0" x2="182" y2="30" stroke="black" stroke-width="1" />
<line x1="165" y1="60" x2="200" y2="60" stroke="black" stroke-width="1" />
<line x1="182" y1="30" x2="165" y2="60" stroke="black" stroke-width="1" />
<line x1="235" y1="60" x2="217" y2="30" stroke="black" stroke-width="1" />
<line x1="165" y1="60" x2="147" y2="90" stroke="black" stroke-width="1" />
<line x1="217" y1="90" x2="252" y2="90" stroke="black" stroke-width="1" />
<line x1="252" y1="90" x2="235" y2="60" stroke="black" stroke-width="1" />
<line x1="130" y1="121" x2="165" y2="121" stroke="black" stroke-width="1" />
<line x1="147" y1="90" x2="130" y2="121" stroke="black" stroke-width="1" />
<line x1="200" y1="121" x2="182" y2="90" stroke="black" stroke-width="1" />
<line x1="200" y1="121" x2="235" y2="121" stroke="black" stroke-width="1" />
<line x1="217" y1="90" x2="200" y2="121" stroke="black" stroke-width="1" />
<line x1="270" y1="121" x2="252" y2="90" stroke="black" stroke-width="1" />
<line x1="130" y1="121" x2="112" y2="151" stroke="black" stroke-width="1" />
<line x1="147" y1="151" x2="182" y2="151" stroke="black" stroke-width="1" />
<line x1="165" y1="121" x2="147" y2="151" stroke="black" stroke-width="1" />
<line x1="235" y1="121" x2="217" y2="151" stroke="black" stroke-width="1" />
<line x1="287" y1="151" x2="270" y2="121" stroke="black" stroke-width="1" />
<line x1="112" y1="151" x2="95" y2="181" stroke="black" stroke-width="1" />
<line x1="130" y1="181" x2="165" y2="181" stroke="black" stroke-width="1" />
<line x1="165" y1="181" x2="147" y2="151" stroke="black" stroke-width="1" />
<line x1="200" y1="181" x2="235" y2="181" stroke="black" stroke-width="1" />
<line x1="235" y1="181" x2="217" y2="151" stroke="black" stroke-width="1" />
<line x1="235" y1="181" x2="270" y2="181" stroke="black" stroke-width="1" />
<line x1="252" y1="151" x2="235" y2="181" stroke="black" stroke-width="1" />
<line x1="305" y1="181" x2="287" y2="151" stroke="black" stroke-width="1" />
<line x1="95" y1="181" x2="77" y2="212" stroke="black" stroke-width="1" />
<line x1="147" y1="212" x2="182" y2="212" stroke="black" stroke-width="1" />
<line x1="165" y1="181" x2="147" y2="212" stroke="black" stroke-width="1" />
<line x1="252" y1="212" x2="287" y2="212" stroke="black" stroke-width="1" />
<line x1="270" y1="181" x2="252" y2="212" stroke="black" stroke-width="1" />
<line x1="322" y1="212" x2="305" y2="181" stroke="black" stroke-width="1" />
<line x1="77" y1="212" x2="60" y2="242" stroke="black" stroke-width="1" />
<line x1="95" y1="242" x2="130" y2="242" stroke="black" stroke-width="1" />
<line x1="112" y1="212" x2="95" y2="242" stroke="black" stroke-width="1" />
<line x1="200" y1="242" x2="182" y2="212" stroke="black" stroke-width="1" />
<line x1="217" y1="212" x2="200" y2="242" stroke="black" stroke-width="1" />
<line x1="235" y1="242" x2="270" y2="242" stroke="black" stroke-width="1" />
<line x1="270" y1="242" x2="252" y2="212" stroke="black" stroke-width="1" />
<line x1="340" y1="242" x2="322" y2="212" stroke="black" stroke-width="1" />
<line x1="60" y1="242" x2="42" y2="272" stroke="black" stroke-width="1" />
<line x1="77" y1="272" x2="112" y2="272" stroke="black" stroke-width="1" />
<line x1="112" y1="272" x2="95" y2="242" stroke="black" stroke-width="1" />
<line x1="182" y1="272" x2="165" y2="242" stroke="black" stroke-width="1" />
<line x1="165" y1="242" x2="147" y2="272" stroke="black" stroke-width="1" />
<line x1="182" y1="272" x2="217" y2="272" stroke="black" stroke-width="1" />
<line x1="200" y1="242" x2="182" y2="272" stroke="black" stroke-width="1" />
<line x1="287" y1="272" x2="322" y2="272" stroke="black" stroke-width="1" />
<line x1="322" y1="272" x2="305" y2="242" stroke="black" stroke-width="1" />
<line x1="357" y1="272" x2="340" y2="242" stroke="black" stroke-width="1" />
<line x1="25" y1="303" x2="60" y2="303" stroke="black" stroke-width="1" />
<line x1="42" y1="272" x2="25" y2="303" stroke="black" stroke-width="1" />
<line x1="95" y1="303" x2="130" y2="303" stroke="black" stroke-width="1" />
<line x1="112" y1="272" x2="95" y2="303" stroke="black" stroke-width="1" />
<line x1="235" y1="303" x2="217" y2="272" stroke="black" stroke-width="1" />
<line x1="270" y1="303" x2="252" y2="272" stroke="black" stroke-width="1" />
<line x1="252" y1="272" x2="235" y2="303" stroke="black" stroke-width="1" />
<line x1="287" y1="272" x2="270" y2="303" stroke="black" stroke-width="1" />
<line x1="305" y1="303" x2="340" y2="303" stroke="black" stroke-width="1" />
<line x1="322" y1="272" x2="305" y2="303" stroke="black" stroke-width="1" />
<line x1="375" y1="303" x2="357" y2="272" stroke="black" stroke-width="1" />
<line x1="7" y1="333" x2="42" y2="333" stroke="black" stroke-width="1" />
<line x1="25" y1="303" x2="7" y2="333" stroke="black" stroke-width="1" />
<line x1="42" y1="333" x2="77" y2="333" stroke="black" stroke-width="1" />
<line x1="77" y1="333" x2="112" y2="333" stroke="black" stroke-width="1" />
<line x1="112" y1="333" x2="147" y2="333" stroke="black" stroke-width="1" />
<line x1="147" y1="333" x2="130" y2="303" stroke="black" stroke-width="1" />
<line x1="147" y1="333" x2="182" y2="333" stroke="black" stroke-width="1" />
<line x1="182" y1="333" x2="165" y2="303" stroke="black" stroke-width="1" />
<line x1="182" y1="333" x2="217" y2="333" stroke="black" stroke-width="1" />
<line x1="200" y1="303" x2="182" y2="333" stroke="black" stroke-width="1" />
<line x1="217" y1="333" x2="252" y2="333" stroke="black" stroke-width="1" />
<line x1="252" y1="333" x2="287" y2="333" stroke="black" stroke-width="1" />
<line x1="287" y1="333" x2="322" y2="333" stroke="black" stroke-width="1" />
<line x1="322" y1="333" x2="357" y2="333" stroke="black" stroke-width="1" />
<line x1="357" y1="333" x2="392" y2="333" stroke="black" stroke-width="1" />
<line x1="392" y1="333" x2="375" y2="303" stroke="black" stroke-width="1" />
</svg>
