<svg width="1000" height="1000" xmlns="http://www.w3.org/2000/svg" xmlns:xlink="http://www.w3.org/1999/xlink">
<circle cx="855" cy="884" r="4" stroke="black" stroke-width="1" fill="red" />
<circle cx="793" cy="142" r="4" stroke="black" stroke-width="1" fill="red" />
<circle cx="854" cy="589" r="4" stroke="black" stroke-width="1" fill="red" />
<circle cx="756" cy="102" r="4" stroke="black" stroke-width="1" fill="red" />
<circle cx="221" cy="761" r="4" stroke="black" stroke-width="1" fill="red" />
<circle cx="518" cy="706" r="4" stroke="black" stroke-width="1" fill="red" />
<circle cx="458" cy="409" r="4" stroke="black" stroke-width="1" fill="red" />
<circle cx="743" cy="747" r="4" stroke="black" stroke-width="1" fill="red" />
<circle cx="249" cy="472" r="4" stroke="black" stroke-width="1" fill="red" />
<circle cx="233" cy="315" r="4" stroke="black" stroke-width="1" fill="red" />
<circle cx="701" cy="226" r="4" stroke="black" stroke-width="1" fill="red" />
<circle cx="245" cy="747" r="4" stroke="black" stroke-width="1" fill="red" />
<circle cx="130" cy="279" r="4" stroke="black" stroke-width="1" fill="red" />
<circle cx="765" cy="354" r="4" stroke="black" stroke-width="1" fill="red" />
<circle cx="609" cy="151" r="4" stroke="black" stroke-width="1" fill="red" />
<circle cx="877" cy="135" r="4" stroke="black" stroke-width="1" fill="red" />
<circle cx="198" cy="290" r="4" stroke="black" stroke-width="1" fill="red" />
<circle cx="112" cy="178" r="4" stroke="black" stroke-width="1" fill="red" />
<circle cx="337" cy="212" r="4" stroke="black" stroke-width="1" fill="red" />
<circle cx="690" cy="667" r="4" stroke="black" stroke-width="1" fill="red" />
<circle cx="519" cy="825" r="4" stroke="black" stroke-width="1" fill="red" />
<circle cx="456" cy="462" r="4" stroke="black" stroke-width="1" fill="red" />
<circle cx="277" cy="754" r="4" stroke="black" stroke-width="1" fill="red" />
<circle cx="761" cy="416" r="4" stroke="black" stroke-width="1" fill="red" />
<circle cx="406" cy="688" r="4" stroke="black" stroke-width="1" fill="red" />
<circle cx="570" cy="121" r="4" stroke="black" stroke-width="1" fill="red" />
<circle cx="626" cy="150" r="4" stroke="black" stroke-width="1" fill="red" />
<circle cx="283" cy="554" r="4" stroke="black" stroke-width="1" fill="red" />
<circle cx="807" cy="404" r="4" stroke="black" stroke-width="1" fill="red" />
<circle cx="338" cy="288" r="4" stroke="black" stroke-width="1" fill="red" />
<circle cx="135" cy="857" r="4" stroke="black" stroke-width="1" fill="red" />
<circle cx="602" cy="687" r="4" stroke="black" stroke-width="1" fill="red" />
<circle cx="396" cy="116" r="4" stroke="black" stroke-width="1" fill="red" />
<circle cx="469" cy="281" r="4" stroke="black" stroke-width="1" fill="red" />
<circle cx="825" cy="363" r="4" stroke="black" stroke-width="1" fill="red" />
<circle cx="261" cy="713" r="4" stroke="black" stroke-width="1" fill="red" />
<circle cx="486" cy="723" r="4" stroke="black" stroke-width="1" fill="red" />
<circle cx="774" cy="350" r="4" stroke="black" stroke-width="1" fill="red" />
<circle cx="410" cy="490" r="4" stroke="black" stroke-width="1" fill="red" />
<circle cx="869" cy="811" r="4" stroke="black" stroke-width="1" fill="red" />
<circle cx="457" cy="733" r="4" stroke="black" stroke-width="1" fill="red" />
<circle cx="819" cy="484" r="4" stroke="black" stroke-width="1" fill="red" />
<circle cx="820" cy="455" r="4" stroke="black" stroke-width="1" fill="red" />
<circle cx="451" cy="536" r="4" stroke="black" stroke-width="1" fill="red" />
<circle cx="501" cy="520" r="4" stroke="black" stroke-width="1" fill="red" />
<circle cx="349" cy="153" r="4" stroke="black" stroke-width="1" fill="red" />
<circle cx="727" cy="392" r="4" stroke="black" stroke-width="1" fill="red" />
<circle cx="637" cy="551" r="4" stroke="black" stroke-width="1" fill="red" />
<circle cx="430" cy="255" r="4" stroke="black" stroke-width="1" fill="red" />
<circle cx="804" cy="148" r="4" stroke="black" stroke-width="1" fill="red" />
<circle cx="274" cy="871" r="4" stroke="black" stroke-width="1" fill="red" />
<circle cx="853" cy="472" r="4" stroke="black" stroke-width="1" fill="red" />
<circle cx="489" cy="160" r="4" stroke="black" stroke-width="1" fill="red" />
<circle cx="665" cy="744" r="4" stroke="black" stroke-width="1" fill="red" />
<circle cx="491" cy="207" r="4" stroke="black" stroke-width="1" fill="red" />
<circle cx="216" cy="529" r="4" stroke="black" stroke-width="1" fill="red" />
<circle cx="850" cy="196" r="4" stroke="black" stroke-width="1" fill="red" />
<circle cx="321" cy="154" r="4" stroke="black" stroke-width="1" fill="red" />
<circle cx="373" cy="681" r="4" stroke="black" stroke-width="1" fill="red" />
<circle cx="312" cy="688" r="4" stroke="black" stroke-width="1" fill="red" />
<circle cx="557" cy="147" r="4" stroke="black" stroke-width="1" fill="red" />
<circle cx="281" cy="372" r="4" stroke="black" stroke-width="1" fill="red" />
<circle cx="896" cy="406" r="4" stroke="black" stroke-width="1" fill="red" />
<circle cx="220" cy="279" r="4" stroke="black" stroke-width="1" fill="red" />
<circle cx="693" cy="148" r="4" stroke="black" stroke-width="1" fill="red" />
<circle cx="251" cy="571" r="4" stroke="black" stroke-width="1" fill="red" />
<circle cx="304" cy="689" r="4" stroke="black" stroke-width="1" fill="red" />
<circle cx="295" cy="119" r="4" stroke="black" stroke-width="1" fill="red" />
<circle cx="129" cy="787" r="4" stroke="black" stroke-width="1" fill="red" />
<circle cx="526" cy="324" r="4" stroke="black" stroke-width="1" fill="red" />
<circle cx="399" cy="301" r="4" stroke="black" stroke-width="1" fill="red" />
<circle cx="468" cy="245" r="4" stroke="black" stroke-width="1" fill="red" />
<circle cx="275" cy="612" r="4" stroke="black" stroke-width="1" fill="red" />
<circle cx="448" cy="459" r="4" stroke="black" stroke-width="1" fill="red" />
<circle cx="491" cy="616" r="4" stroke="black" stroke-width="1" fill="red" />
<circle cx="310" cy="227" r="4" stroke="black" stroke-width="1" fill="red" />
<circle cx="484" cy="820" r="4" stroke="black" stroke-width="1" fill="red" />
<circle cx="136" cy="581" r="4" stroke="black" stroke-width="1" fill="red" />
<circle cx="410" cy="507" r="4" stroke="black" stroke-width="1" fill="red" />
<circle cx="410" cy="742" r="4" stroke="black" stroke-width="1" fill="red" />
<circle cx="370" cy="857" r="4" stroke="black" stroke-width="1" fill="red" />
<circle cx="743" cy="721" r="4" stroke="black" stroke-width="1" fill="red" />
<circle cx="570" cy="671" r="4" stroke="black" stroke-width="1" fill="red" />
<circle cx="310" cy="603" r="4" stroke="black" stroke-width="1" fill="red" />
<circle cx="220" cy="287" r="4" stroke="black" stroke-width="1" fill="red" />
<circle cx="794" cy="460" r="4" stroke="black" stroke-width="1" fill="red" />
<circle cx="785" cy="306" r="4" stroke="black" stroke-width="1" fill="red" />
<circle cx="162" cy="791" r="4" stroke="black" stroke-width="1" fill="red" />
<circle cx="351" cy="612" r="4" stroke="black" stroke-width="1" fill="red" />
<circle cx="218" cy="682" r="4" stroke="black" stroke-width="1" fill="red" />
<circle cx="838" cy="293" r="4" stroke="black" stroke-width="1" fill="red" />
<circle cx="229" cy="392" r="4" stroke="black" stroke-width="1" fill="red" />
<circle cx="675" cy="857" r="4" stroke="black" stroke-width="1" fill="red" />
<circle cx="547" cy="885" r="4" stroke="black" stroke-width="1" fill="red" />
<circle cx="259" cy="279" r="4" stroke="black" stroke-width="1" fill="red" />
<circle cx="773" cy="126" r="4" stroke="black" stroke-width="1" fill="red" />
<circle cx="764" cy="808" r="4" stroke="black" stroke-width="1" fill="red" />
<circle cx="692" cy="568" r="4" stroke="black" stroke-width="1" fill="red" />
<circle cx="811" cy="726" r="4" stroke="black" stroke-width="1" fill="red" />
<circle cx="886" cy="323" r="4" stroke="black" stroke-width="1" fill="red" />
<circle cx="807" cy="239" r="4" stroke="black" stroke-width="1" fill="red" />
<circle cx="234" cy="863" r="4" stroke="black" stroke-width="1" fill="red" />
<circle cx="680" cy="488" r="4" stroke="black" stroke-width="1" fill="red" />
<circle cx="350" cy="850" r="4" stroke="black" stroke-width="1" fill="red" />
<circle cx="864" cy="360" r="4" stroke="black" stroke-width="1" fill="red" />
<circle cx="409" cy="791" r="4" stroke="black" stroke-width="1" fill="red" />
<circle cx="259" cy="832" r="4" stroke="black" stroke-width="1" fill="red" />
<circle cx="856" cy="278" r="4" stroke="black" stroke-width="1" fill="red" />
<circle cx="543" cy="469" r="4" stroke="black" stroke-width="1" fill="red" />
<circle cx="747" cy="394" r="4" stroke="black" stroke-width="1" fill="red" />
<circle cx="658" cy="596" r="4" stroke="black" stroke-width="1" fill="red" />
<circle cx="864" cy="381" r="4" stroke="black" stroke-width="1" fill="red" />
<circle cx="383" cy="218" r="4" stroke="black" stroke-width="1" fill="red" />
<circle cx="476" cy="658" r="4" stroke="black" stroke-width="1" fill="red" />
<circle cx="541" cy="305" r="4" stroke="black" stroke-width="1" fill="red" />
<circle cx="567" cy="858" r="4" stroke="black" stroke-width="1" fill="red" />
<circle cx="403" cy="330" r="4" stroke="black" stroke-width="1" fill="red" />
<circle cx="801" cy="208" r="4" stroke="black" stroke-width="1" fill="red" />
<circle cx="739" cy="821" r="4" stroke="black" stroke-width="1" fill="red" />
<circle cx="474" cy="217" r="4" stroke="black" stroke-width="1" fill="red" />
<circle cx="546" cy="452" r="4" stroke="black" stroke-width="1" fill="red" />
<circle cx="477" cy="463" r="4" stroke="black" stroke-width="1" fill="red" />
<circle cx="724" cy="197" r="4" stroke="black" stroke-width="1" fill="red" />
<circle cx="741" cy="275" r="4" stroke="black" stroke-width="1" fill="red" />
<circle cx="536" cy="498" r="4" stroke="black" stroke-width="1" fill="red" />
<circle cx="220" cy="180" r="4" stroke="black" stroke-width="1" fill="red" />
<circle cx="457" cy="324" r="4" stroke="black" stroke-width="1" fill="red" />
<circle cx="843" cy="683" r="4" stroke="black" stroke-width="1" fill="red" />
<circle cx="367" cy="863" r="4" stroke="black" stroke-width="1" fill="red" />
<circle cx="579" cy="477" r="4" stroke="black" stroke-width="1" fill="red" />
<circle cx="783" cy="376" r="4" stroke="black" stroke-width="1" fill="red" />
<circle cx="359" cy="753" r="4" stroke="black" stroke-width="1" fill="red" />
<circle cx="241" cy="894" r="4" stroke="black" stroke-width="1" fill="red" />
<circle cx="323" cy="116" r="4" stroke="black" stroke-width="1" fill="red" />
<circle cx="452" cy="849" r="4" stroke="black" stroke-width="1" fill="red" />
<circle cx="756" cy="498" r="4" stroke="black" stroke-width="1" fill="red" />
<circle cx="193" cy="183" r="4" stroke="black" stroke-width="1" fill="red" />
<circle cx="447" cy="352" r="4" stroke="black" stroke-width="1" fill="red" />
<circle cx="492" cy="810" r="4" stroke="black" stroke-width="1" fill="red" />
<circle cx="181" cy="539" r="4" stroke="black" stroke-width="1" fill="red" />
<circle cx="161" cy="446" r="4" stroke="black" stroke-width="1" fill="red" />
<circle cx="510" cy="170" r="4" stroke="black" stroke-width="1" fill="red" />
<circle cx="311" cy="812" r="4" stroke="black" stroke-width="1" fill="red" />
<circle cx="550" cy="161" r="4" stroke="black" stroke-width="1" fill="red" />
<circle cx="539" cy="125" r="4" stroke="black" stroke-width="1" fill="red" />
<circle cx="454" cy="643" r="4" stroke="black" stroke-width="1" fill="red" />
<circle cx="801" cy="166" r="4" stroke="black" stroke-width="1" fill="red" />
<circle cx="273" cy="742" r="4" stroke="black" stroke-width="1" fill="red" />
<circle cx="544" cy="369" r="4" stroke="black" stroke-width="1" fill="red" />
<circle cx="369" cy="808" r="4" stroke="black" stroke-width="1" fill="red" />
<circle cx="239" cy="883" r="4" stroke="black" stroke-width="1" fill="red" />
<circle cx="799" cy="729" r="4" stroke="black" stroke-width="1" fill="red" />
<circle cx="557" cy="201" r="4" stroke="black" stroke-width="1" fill="red" />
<circle cx="583" cy="664" r="4" stroke="black" stroke-width="1" fill="red" />
<circle cx="162" cy="476" r="4" stroke="black" stroke-width="1" fill="red" />
<circle cx="773" cy="211" r="4" stroke="black" stroke-width="1" fill="red" />
<circle cx="100" cy="729" r="4" stroke="black" stroke-width="1" fill="red" />
<circle cx="260" cy="186" r="4" stroke="black" stroke-width="1" fill="red" />
<circle cx="290" cy="112" r="4" stroke="black" stroke-width="1" fill="red" />
<circle cx="689" cy="691" r="4" stroke="black" stroke-width="1" fill="red" />
<circle cx="265" cy="453" r="4" stroke="black" stroke-width="1" fill="red" />
<circle cx="749" cy="596" r="4" stroke="black" stroke-width="1" fill="red" />
<circle cx="760" cy="360" r="4" stroke="black" stroke-width="1" fill="red" />
<circle cx="877" cy="797" r="4" stroke="black" stroke-width="1" fill="red" />
<circle cx="291" cy="761" r="4" stroke="black" stroke-width="1" fill="red" />
<circle cx="272" cy="608" r="4" stroke="black" stroke-width="1" fill="red" />
<circle cx="497" cy="450" r="4" stroke="black" stroke-width="1" fill="red" />
<circle cx="443" cy="672" r="4" stroke="black" stroke-width="1" fill="red" />
<circle cx="720" cy="680" r="4" stroke="black" stroke-width="1" fill="red" />
<circle cx="134" cy="770" r="4" stroke="black" stroke-width="1" fill="red" />
<circle cx="280" cy="776" r="4" stroke="black" stroke-width="1" fill="red" />
<circle cx="360" cy="315" r="4" stroke="black" stroke-width="1" fill="red" />
<circle cx="810" cy="229" r="4" stroke="black" stroke-width="1" fill="red" />
<circle cx="765" cy="223" r="4" stroke="black" stroke-width="1" fill="red" />
<circle cx="819" cy="452" r="4" stroke="black" stroke-width="1" fill="red" />
<circle cx="540" cy="205" r="4" stroke="black" stroke-width="1" fill="red" />
<circle cx="168" cy="690" r="4" stroke="black" stroke-width="1" fill="red" />
<circle cx="794" cy="217" r="4" stroke="black" stroke-width="1" fill="red" />
<circle cx="362" cy="897" r="4" stroke="black" stroke-width="1" fill="red" />
<circle cx="127" cy="102" r="4" stroke="black" stroke-width="1" fill="red" />
<circle cx="690" cy="426" r="4" stroke="black" stroke-width="1" fill="red" />
<circle cx="837" cy="809" r="4" stroke="black" stroke-width="1" fill="red" />
<circle cx="801" cy="215" r="4" stroke="black" stroke-width="1" fill="red" />
<circle cx="737" cy="672" r="4" stroke="black" stroke-width="1" fill="red" />
<circle cx="883" cy="655" r="4" stroke="black" stroke-width="1" fill="red" />
<circle cx="466" cy="299" r="4" stroke="black" stroke-width="1" fill="red" />
<circle cx="793" cy="107" r="4" stroke="black" stroke-width="1" fill="red" />
<circle cx="615" cy="839" r="4" stroke="black" stroke-width="1" fill="red" />
<circle cx="214" cy="401" r="4" stroke="black" stroke-width="1" fill="red" />
<circle cx="538" cy="215" r="4" stroke="black" stroke-width="1" fill="red" />
<circle cx="562" cy="263" r="4" stroke="black" stroke-width="1" fill="red" />
<circle cx="402" cy="349" r="4" stroke="black" stroke-width="1" fill="red" />
<circle cx="840" cy="134" r="4" stroke="black" stroke-width="1" fill="red" />
<circle cx="207" cy="683" r="4" stroke="black" stroke-width="1" fill="red" />
<circle cx="309" cy="590" r="4" stroke="black" stroke-width="1" fill="red" />
<circle cx="620" cy="175" r="4" stroke="black" stroke-width="1" fill="red" />
<circle cx="752" cy="272" r="4" stroke="black" stroke-width="1" fill="red" />
<circle cx="577" cy="584" r="4" stroke="black" stroke-width="1" fill="red" />
<circle cx="518" cy="245" r="4" stroke="black" stroke-width="1" fill="red" />
<circle cx="334" cy="497" r="4" stroke="black" stroke-width="1" fill="red" />
<line x1="135" y1="857" x2="100" y2="729" stroke="black" stroke-width="2" />
<line x1="241" y1="894" x2="135" y2="857" stroke="black" stroke-width="2" />
<line x1="362" y1="897" x2="241" y2="894" stroke="black" stroke-width="2" />
<line x1="855" y1="884" x2="362" y2="897" stroke="black" stroke-width="2" />
<line x1="877" y1="797" x2="855" y2="884" stroke="black" stroke-width="2" />
<line x1="896" y1="406" x2="877" y2="797" stroke="black" stroke-width="2" />
<line x1="877" y1="135" x2="896" y2="406" stroke="black" stroke-width="2" />
<line x1="793" y1="107" x2="877" y2="135" stroke="black" stroke-width="2" />
<line x1="756" y1="102" x2="793" y2="107" stroke="black" stroke-width="2" />
<line x1="127" y1="102" x2="756" y2="102" stroke="black" stroke-width="2" />
<line x1="112" y1="178" x2="127" y2="102" stroke="black" stroke-width="2" />
<line x1="100" y1="729" x2="112" y2="178" stroke="black" stroke-width="2" />
</svg>
