<svg width="800" height="600" xmlns="http://www.w3.org/2000/svg">
<line x1="460" y1="300" x2="370" y2="351" stroke="black" stroke-width="1"/>
<line x1="370" y1="351" x2="370" y2="248" stroke="black" stroke-width="1"/>
<line x1="369" y1="248" x2="459" y2="300" stroke="black" stroke-width="1"/>
<line x1="479" y1="300" x2="399" y2="380" stroke="black" stroke-width="1"/>
<line x1="399" y1="380" x2="319" y2="299" stroke="black" stroke-width="1"/>
<line x1="319" y1="299" x2="400" y2="219" stroke="black" stroke-width="1"/>
<line x1="400" y1="219" x2="479" y2="300" stroke="black" stroke-width="1"/>
<line x1="499" y1="300" x2="430" y2="395" stroke="black" stroke-width="1"/>
<line x1="430" y1="395" x2="319" y2="358" stroke="black" stroke-width="1"/>
<line x1="319" y1="358" x2="319" y2="241" stroke="black" stroke-width="1"/>
<line x1="319" y1="241" x2="430" y2="204" stroke="black" stroke-width="1"/>
<line x1="430" y1="204" x2="500" y2="300" stroke="black" stroke-width="1"/>
<line x1="520" y1="300" x2="460" y2="403" stroke="black" stroke-width="1"/>
<line x1="460" y1="403" x2="340" y2="403" stroke="black" stroke-width="1"/>
<line x1="340" y1="403" x2="279" y2="300" stroke="black" stroke-width="1"/>
<line x1="279" y1="300" x2="339" y2="196" stroke="black" stroke-width="1"/>
<line x1="339" y1="196" x2="459" y2="196" stroke="black" stroke-width="1"/>
<line x1="459" y1="196" x2="520" y2="300" stroke="black" stroke-width="1"/>
<line x1="540" y1="300" x2="487" y2="409" stroke="black" stroke-width="1"/>
<line x1="487" y1="409" x2="368" y2="436" stroke="black" stroke-width="1"/>
<line x1="368" y1="436" x2="273" y2="360" stroke="black" stroke-width="1"/>
<line x1="273" y1="360" x2="273" y2="239" stroke="black" stroke-width="1"/>
<line x1="273" y1="239" x2="368" y2="163" stroke="black" stroke-width="1"/>
<line x1="368" y1="163" x2="487" y2="190" stroke="black" stroke-width="1"/>
<line x1="487" y1="190" x2="540" y2="300" stroke="black" stroke-width="1"/>
<line x1="560" y1="300" x2="513" y2="413" stroke="black" stroke-width="1"/>
<line x1="513" y1="413" x2="399" y2="459" stroke="black" stroke-width="1"/>
<line x1="399" y1="459" x2="286" y2="413" stroke="black" stroke-width="1"/>
<line x1="286" y1="413" x2="240" y2="299" stroke="black" stroke-width="1"/>
<line x1="240" y1="299" x2="286" y2="186" stroke="black" stroke-width="1"/>
<line x1="286" y1="186" x2="400" y2="140" stroke="black" stroke-width="1"/>
<line x1="400" y1="140" x2="513" y2="186" stroke="black" stroke-width="1"/>
<line x1="513" y1="186" x2="560" y2="300" stroke="black" stroke-width="1"/>
<line x1="580" y1="300" x2="537" y2="415" stroke="black" stroke-width="1"/>
<line x1="537" y1="415" x2="431" y2="477" stroke="black" stroke-width="1"/>
<line x1="431" y1="477" x2="309" y2="455" stroke="black" stroke-width="1"/>
<line x1="309" y1="455" x2="230" y2="361" stroke="black" stroke-width="1"/>
<line x1="230" y1="361" x2="230" y2="238" stroke="black" stroke-width="1"/>
<line x1="230" y1="238" x2="310" y2="144" stroke="black" stroke-width="1"/>
<line x1="310" y1="144" x2="431" y2="122" stroke="black" stroke-width="1"/>
<line x1="431" y1="122" x2="537" y2="184" stroke="black" stroke-width="1"/>
<line x1="537" y1="184" x2="579" y2="300" stroke="black" stroke-width="1"/>
<line x1="599" y1="300" x2="561" y2="417" stroke="black" stroke-width="1"/>
<line x1="561" y1="417" x2="461" y2="490" stroke="black" stroke-width="1"/>
<line x1="461" y1="490" x2="338" y2="490" stroke="black" stroke-width="1"/>
<line x1="338" y1="490" x2="238" y2="417" stroke="black" stroke-width="1"/>
<line x1="238" y1="417" x2="199" y2="299" stroke="black" stroke-width="1"/>
<line x1="199" y1="299" x2="238" y2="182" stroke="black" stroke-width="1"/>
<line x1="238" y1="182" x2="338" y2="109" stroke="black" stroke-width="1"/>
<line x1="338" y1="109" x2="461" y2="109" stroke="black" stroke-width="1"/>
<line x1="461" y1="109" x2="561" y2="182" stroke="black" stroke-width="1"/>
<line x1="561" y1="182" x2="599" y2="300" stroke="black" stroke-width="1"/>
</svg>
