<svg width="800" height="600" xmlns="http://www.w3.org/2000/svg" xmlns:xlink="http://www.w3.org/1999/xlink">
<line x1="460" y1="300" x2="370" y2="351" stroke="black" stroke-width="1"/>
<line x1="370" y1="351" x2="370" y2="248" stroke="black" stroke-width="1"/>
<line x1="369" y1="248" x2="459" y2="300" stroke="black" stroke-width="1"/>
<line x1="479" y1="300" x2="399" y2="380" stroke="black" stroke-width="2"/>
<line x1="399" y1="380" x2="319" y2="299" stroke="black" stroke-width="2"/>
<line x1="319" y1="299" x2="400" y2="219" stroke="black" stroke-width="2"/>
<line x1="400" y1="219" x2="479" y2="300" stroke="black" stroke-width="2"/>
<line x1="499" y1="300" x2="430" y2="395" stroke="black" stroke-width="3"/>
<line x1="430" y1="395" x2="319" y2="358" stroke="black" stroke-width="3"/>
<line x1="319" y1="358" x2="319" y2="241" stroke="black" stroke-width="3"/>
<line x1="319" y1="241" x2="430" y2="204" stroke="black" stroke-width="3"/>
<line x1="430" y1="204" x2="500" y2="300" stroke="black" stroke-width="3"/>
<line x1="520" y1="300" x2="460" y2="403" stroke="black" stroke-width="4"/>
<line x1="460" y1="403" x2="340" y2="403" stroke="black" stroke-width="4"/>
<line x1="340" y1="403" x2="279" y2="300" stroke="black" stroke-width="4"/>
<line x1="279" y1="300" x2="339" y2="196" stroke="black" stroke-width="4"/>
<line x1="339" y1="196" x2="459" y2="196" stroke="black" stroke-width="4"/>
<line x1="459" y1="196" x2="520" y2="300" stroke="black" stroke-width="4"/>
<line x1="540" y1="300" x2="487" y2="409" stroke="black" stroke-width="5"/>
<line x1="487" y1="409" x2="368" y2="436" stroke="black" stroke-width="5"/>
<line x1="368" y1="436" x2="273" y2="360" stroke="black" stroke-width="5"/>
<line x1="273" y1="360" x2="273" y2="239" stroke="black" stroke-width="5"/>
<line x1="273" y1="239" x2="368" y2="163" stroke="black" stroke-width="5"/>
<line x1="368" y1="163" x2="487" y2="190" stroke="black" stroke-width="5"/>
<line x1="487" y1="190" x2="540" y2="300" stroke="black" stroke-width="5"/>
<line x1="560" y1="300" x2="513" y2="413" stroke="black" stroke-width="6"/>
<line x1="513" y1="413" x2="399" y2="459" stroke="black" stroke-width="6"/>
<line x1="399" y1="459" x2="286" y2="413" stroke="black" stroke-width="6"/>
<line x1="286" y1="413" x2="240" y2="299" stroke="black" stroke-width="6"/>
<line x1="240" y1="299" x2="286" y2="186" stroke="black" stroke-width="6"/>
<line x1="286" y1="186" x2="400" y2="140" stroke="black" stroke-width="6"/>
<line x1="400" y1="140" x2="513" y2="186" stroke="black" stroke-width="6"/>
<line x1="513" y1="186" x2="560" y2="300" stroke="black" stroke-width="6"/>
<line x1="580" y1="300" x2="537" y2="415" stroke="black" stroke-width="7"/>
<line x1="537" y1="415" x2="431" y2="477" stroke="black" stroke-width="7"/>
<line x1="431" y1="477" x2="309" y2="455" stroke="black" stroke-width="7"/>
<line x1="309" y1="455" x2="230" y2="361" stroke="black" stroke-width="7"/>
<line x1="230" y1="361" x2="230" y2="238" stroke="black" stroke-width="7"/>
<line x1="230" y1="238" x2="310" y2="144" stroke="black" stroke-width="7"/>
<line x1="310" y1="144" x2="431" y2="122" stroke="black" stroke-width="7"/>
<line x1="431" y1="122" x2="537" y2="184" stroke="black" stroke-width="7"/>
<line x1="537" y1="184" x2="579" y2="300" stroke="black" stroke-width="7"/>
<line x1="599" y1="300" x2="561" y2="417" stroke="black" stroke-width="8"/>
<line x1="561" y1="417" x2="461" y2="490" stroke="black" stroke-width="8"/>
<line x1="461" y1="490" x2="338" y2="490" stroke="black" stroke-width="8"/>
<line x1="338" y1="490" x2="238" y2="417" stroke="black" stroke-width="8"/>
<line x1="238" y1="417" x2="199" y2="299" stroke="black" stroke-width="8"/>
<line x1="199" y1="299" x2="238" y2="182" stroke="black" stroke-width="8"/>
<line x1="238" y1="182" x2="338" y2="109" stroke="black" stroke-width="8"/>
<line x1="338" y1="109" x2="461" y2="109" stroke="black" stroke-width="8"/>
<line x1="461" y1="109" x2="561" y2="182" stroke="black" stroke-width="8"/>
<line x1="561" y1="182" x2="599" y2="300" stroke="black" stroke-width="8"/>
<line x1="619" y1="300" x2="585" y2="418" stroke="black" stroke-width="9"/>
<line x1="585" y1="418" x2="491" y2="500" stroke="black" stroke-width="9"/>
<line x1="491" y1="500" x2="368" y2="517" stroke="black" stroke-width="9"/>
<line x1="368" y1="517" x2="255" y2="466" stroke="black" stroke-width="9"/>
<line x1="255" y1="466" x2="188" y2="361" stroke="black" stroke-width="9"/>
<line x1="188" y1="361" x2="188" y2="238" stroke="black" stroke-width="9"/>
<line x1="188" y1="238" x2="255" y2="133" stroke="black" stroke-width="9"/>
<line x1="255" y1="133" x2="368" y2="82" stroke="black" stroke-width="9"/>
<line x1="368" y1="82" x2="491" y2="99" stroke="black" stroke-width="9"/>
<line x1="491" y1="99" x2="585" y2="181" stroke="black" stroke-width="9"/>
<line x1="585" y1="181" x2="619" y2="300" stroke="black" stroke-width="9"/>
<line x1="639" y1="300" x2="607" y2="420" stroke="black" stroke-width="10"/>
<line x1="607" y1="420" x2="519" y2="507" stroke="black" stroke-width="10"/>
<line x1="519" y1="507" x2="399" y2="540" stroke="black" stroke-width="10"/>
<line x1="399" y1="540" x2="279" y2="507" stroke="black" stroke-width="10"/>
<line x1="279" y1="507" x2="192" y2="419" stroke="black" stroke-width="10"/>
<line x1="192" y1="419" x2="160" y2="299" stroke="black" stroke-width="10"/>
<line x1="160" y1="299" x2="192" y2="179" stroke="black" stroke-width="10"/>
<line x1="192" y1="179" x2="280" y2="92" stroke="black" stroke-width="10"/>
<line x1="280" y1="92" x2="400" y2="60" stroke="black" stroke-width="10"/>
<line x1="400" y1="60" x2="520" y2="92" stroke="black" stroke-width="10"/>
<line x1="520" y1="92" x2="607" y2="180" stroke="black" stroke-width="10"/>
<line x1="607" y1="180" x2="639" y2="300" stroke="black" stroke-width="10"/>
<line x1="659" y1="300" x2="630" y2="420" stroke="black" stroke-width="11"/>
<line x1="630" y1="420" x2="547" y2="513" stroke="black" stroke-width="11"/>
<line x1="547" y1="513" x2="431" y2="558" stroke="black" stroke-width="11"/>
<line x1="431" y1="558" x2="307" y2="543" stroke="black" stroke-width="11"/>
<line x1="307" y1="543" x2="205" y2="472" stroke="black" stroke-width="11"/>
<line x1="205" y1="472" x2="147" y2="362" stroke="black" stroke-width="11"/>
<line x1="147" y1="362" x2="147" y2="237" stroke="black" stroke-width="11"/>
<line x1="147" y1="237" x2="205" y2="127" stroke="black" stroke-width="11"/>
<line x1="205" y1="127" x2="307" y2="56" stroke="black" stroke-width="11"/>
<line x1="307" y1="56" x2="431" y2="41" stroke="black" stroke-width="11"/>
<line x1="431" y1="41" x2="547" y2="86" stroke="black" stroke-width="11"/>
<line x1="547" y1="86" x2="630" y2="179" stroke="black" stroke-width="11"/>
<line x1="630" y1="179" x2="660" y2="300" stroke="black" stroke-width="11"/>
<line x1="680" y1="300" x2="652" y2="421" stroke="black" stroke-width="12"/>
<line x1="652" y1="421" x2="574" y2="518" stroke="black" stroke-width="12"/>
<line x1="574" y1="518" x2="462" y2="572" stroke="black" stroke-width="12"/>
<line x1="462" y1="572" x2="337" y2="572" stroke="black" stroke-width="12"/>
<line x1="337" y1="572" x2="225" y2="518" stroke="black" stroke-width="12"/>
<line x1="225" y1="518" x2="147" y2="421" stroke="black" stroke-width="12"/>
<line x1="147" y1="421" x2="120" y2="299" stroke="black" stroke-width="12"/>
<line x1="120" y1="299" x2="147" y2="178" stroke="black" stroke-width="12"/>
<line x1="147" y1="178" x2="225" y2="81" stroke="black" stroke-width="12"/>
<line x1="225" y1="81" x2="337" y2="27" stroke="black" stroke-width="12"/>
<line x1="337" y1="27" x2="462" y2="27" stroke="black" stroke-width="12"/>
<line x1="462" y1="27" x2="574" y2="81" stroke="black" stroke-width="12"/>
<line x1="574" y1="81" x2="652" y2="178" stroke="black" stroke-width="12"/>
<line x1="652" y1="178" x2="679" y2="300" stroke="black" stroke-width="12"/>
<line x1="699" y1="300" x2="674" y2="422" stroke="black" stroke-width="13"/>
<line x1="674" y1="422" x2="600" y2="522" stroke="black" stroke-width="13"/>
<line x1="600" y1="522" x2="492" y2="585" stroke="black" stroke-width="13"/>
<line x1="492" y1="585" x2="368" y2="598" stroke="black" stroke-width="13"/>
<line x1="368" y1="598" x2="249" y2="559" stroke="black" stroke-width="13"/>
<line x1="249" y1="559" x2="157" y2="476" stroke="black" stroke-width="13"/>
<line x1="157" y1="476" x2="106" y2="362" stroke="black" stroke-width="13"/>
<line x1="106" y1="362" x2="106" y2="237" stroke="black" stroke-width="13"/>
<line x1="106" y1="237" x2="157" y2="123" stroke="black" stroke-width="13"/>
<line x1="157" y1="123" x2="250" y2="40" stroke="black" stroke-width="13"/>
<line x1="250" y1="40" x2="368" y2="1" stroke="black" stroke-width="13"/>
<line x1="368" y1="1" x2="492" y2="14" stroke="black" stroke-width="13"/>
<line x1="492" y1="14" x2="600" y2="77" stroke="black" stroke-width="13"/>
<line x1="600" y1="77" x2="674" y2="177" stroke="black" stroke-width="13"/>
<line x1="674" y1="177" x2="699" y2="300" stroke="black" stroke-width="13"/>
<line x1="719" y1="300" x2="695" y2="422" stroke="black" stroke-width="14"/>
<line x1="695" y1="422" x2="626" y2="526" stroke="black" stroke-width="14"/>
<line x1="626" y1="526" x2="522" y2="595" stroke="black" stroke-width="14"/>
<line x1="522" y1="595" x2="399" y2="620" stroke="black" stroke-width="14"/>
<line x1="399" y1="620" x2="277" y2="595" stroke="black" stroke-width="14"/>
<line x1="277" y1="595" x2="173" y2="526" stroke="black" stroke-width="14"/>
<line x1="173" y1="526" x2="104" y2="422" stroke="black" stroke-width="14"/>
<line x1="104" y1="422" x2="80" y2="299" stroke="black" stroke-width="14"/>
<line x1="80" y1="299" x2="104" y2="177" stroke="black" stroke-width="14"/>
<line x1="104" y1="177" x2="173" y2="73" stroke="black" stroke-width="14"/>
<line x1="173" y1="73" x2="277" y2="4" stroke="black" stroke-width="14"/>
<line x1="277" y1="4" x2="400" y2="-19" stroke="black" stroke-width="14"/>
<line x1="400" y1="-19" x2="522" y2="4" stroke="black" stroke-width="14"/>
<line x1="522" y1="4" x2="626" y2="73" stroke="black" stroke-width="14"/>
<line x1="626" y1="73" x2="695" y2="177" stroke="black" stroke-width="14"/>
<line x1="695" y1="177" x2="720" y2="300" stroke="black" stroke-width="14"/>
<line x1="740" y1="300" x2="717" y2="422" stroke="black" stroke-width="15"/>
<line x1="717" y1="422" x2="651" y2="529" stroke="black" stroke-width="15"/>
<line x1="651" y1="529" x2="551" y2="604" stroke="black" stroke-width="15"/>
<line x1="551" y1="604" x2="431" y2="638" stroke="black" stroke-width="15"/>
<line x1="431" y1="638" x2="306" y2="627" stroke="black" stroke-width="15"/>
<line x1="306" y1="627" x2="195" y2="571" stroke="black" stroke-width="15"/>
<line x1="195" y1="571" x2="110" y2="478" stroke="black" stroke-width="15"/>
<line x1="110" y1="478" x2="65" y2="362" stroke="black" stroke-width="15"/>
<line x1="65" y1="362" x2="65" y2="237" stroke="black" stroke-width="15"/>
<line x1="65" y1="237" x2="110" y2="121" stroke="black" stroke-width="15"/>
<line x1="110" y1="121" x2="195" y2="28" stroke="black" stroke-width="15"/>
<line x1="195" y1="28" x2="306" y2="-27" stroke="black" stroke-width="15"/>
<line x1="306" y1="-27" x2="431" y2="-38" stroke="black" stroke-width="15"/>
<line x1="431" y1="-38" x2="551" y2="-4" stroke="black" stroke-width="15"/>
<line x1="551" y1="-4" x2="651" y2="70" stroke="black" stroke-width="15"/>
<line x1="651" y1="70" x2="717" y2="177" stroke="black" stroke-width="15"/>
<line x1="717" y1="177" x2="740" y2="300" stroke="black" stroke-width="15"/>
<line x1="760" y1="300" x2="738" y2="423" stroke="black" stroke-width="16"/>
<line x1="738" y1="423" x2="675" y2="531" stroke="black" stroke-width="16"/>
<line x1="675" y1="531" x2="579" y2="611" stroke="black" stroke-width="16"/>
<line x1="579" y1="611" x2="462" y2="654" stroke="black" stroke-width="16"/>
<line x1="462" y1="654" x2="337" y2="654" stroke="black" stroke-width="16"/>
<line x1="337" y1="654" x2="219" y2="611" stroke="black" stroke-width="16"/>
<line x1="219" y1="611" x2="124" y2="531" stroke="black" stroke-width="16"/>
<line x1="124" y1="531" x2="61" y2="423" stroke="black" stroke-width="16"/>
<line x1="61" y1="423" x2="40" y2="299" stroke="black" stroke-width="16"/>
<line x1="40" y1="299" x2="61" y2="176" stroke="black" stroke-width="16"/>
<line x1="61" y1="176" x2="124" y2="68" stroke="black" stroke-width="16"/>
<line x1="124" y1="68" x2="220" y2="-11" stroke="black" stroke-width="16"/>
<line x1="220" y1="-11" x2="337" y2="-54" stroke="black" stroke-width="16"/>
<line x1="337" y1="-54" x2="462" y2="-54" stroke="black" stroke-width="16"/>
<line x1="462" y1="-54" x2="580" y2="-11" stroke="black" stroke-width="16"/>
<line x1="580" y1="-11" x2="675" y2="68" stroke="black" stroke-width="16"/>
<line x1="675" y1="68" x2="738" y2="176" stroke="black" stroke-width="16"/>
<line x1="738" y1="176" x2="760" y2="300" stroke="black" stroke-width="16"/>
<line x1="780" y1="300" x2="759" y2="423" stroke="black" stroke-width="17"/>
<line x1="759" y1="423" x2="699" y2="533" stroke="black" stroke-width="17"/>
<line x1="699" y1="533" x2="607" y2="618" stroke="black" stroke-width="17"/>
<line x1="607" y1="618" x2="493" y2="668" stroke="black" stroke-width="17"/>
<line x1="493" y1="668" x2="368" y2="678" stroke="black" stroke-width="17"/>
<line x1="368" y1="678" x2="247" y2="647" stroke="black" stroke-width="17"/>
<line x1="247" y1="647" x2="142" y2="579" stroke="black" stroke-width="17"/>
<line x1="142" y1="579" x2="65" y2="480" stroke="black" stroke-width="17"/>
<line x1="65" y1="480" x2="25" y2="362" stroke="black" stroke-width="17"/>
<line x1="25" y1="362" x2="25" y2="237" stroke="black" stroke-width="17"/>
<line x1="25" y1="237" x2="65" y2="119" stroke="black" stroke-width="17"/>
<line x1="65" y1="119" x2="142" y2="20" stroke="black" stroke-width="17"/>
<line x1="142" y1="20" x2="247" y2="-47" stroke="black" stroke-width="17"/>
<line x1="247" y1="-47" x2="368" y2="-78" stroke="black" stroke-width="17"/>
<line x1="368" y1="-78" x2="493" y2="-68" stroke="black" stroke-width="17"/>
<line x1="493" y1="-68" x2="607" y2="-18" stroke="black" stroke-width="17"/>
<line x1="607" y1="-18" x2="699" y2="66" stroke="black" stroke-width="17"/>
<line x1="699" y1="66" x2="759" y2="176" stroke="black" stroke-width="17"/>
<line x1="759" y1="176" x2="780" y2="300" stroke="black" stroke-width="17"/>
<line x1="800" y1="300" x2="780" y2="423" stroke="black" stroke-width="18"/>
<line x1="780" y1="423" x2="723" y2="535" stroke="black" stroke-width="18"/>
<line x1="723" y1="535" x2="635" y2="623" stroke="black" stroke-width="18"/>
<line x1="635" y1="623" x2="523" y2="680" stroke="black" stroke-width="18"/>
<line x1="523" y1="680" x2="399" y2="699" stroke="black" stroke-width="18"/>
<line x1="399" y1="699" x2="276" y2="680" stroke="black" stroke-width="18"/>
<line x1="276" y1="680" x2="164" y2="623" stroke="black" stroke-width="18"/>
<line x1="164" y1="623" x2="76" y2="535" stroke="black" stroke-width="18"/>
<line x1="76" y1="535" x2="19" y2="423" stroke="black" stroke-width="18"/>
<line x1="19" y1="423" x2="0" y2="299" stroke="black" stroke-width="18"/>
<line x1="0" y1="299" x2="19" y2="176" stroke="black" stroke-width="18"/>
<line x1="19" y1="176" x2="76" y2="64" stroke="black" stroke-width="18"/>
<line x1="76" y1="64" x2="164" y2="-23" stroke="black" stroke-width="18"/>
<line x1="164" y1="-23" x2="276" y2="-80" stroke="black" stroke-width="18"/>
<line x1="276" y1="-80" x2="400" y2="-100" stroke="black" stroke-width="18"/>
<line x1="400" y1="-100" x2="523" y2="-80" stroke="black" stroke-width="18"/>
<line x1="523" y1="-80" x2="635" y2="-23" stroke="black" stroke-width="18"/>
<line x1="635" y1="-23" x2="723" y2="64" stroke="black" stroke-width="18"/>
<line x1="723" y1="64" x2="780" y2="176" stroke="black" stroke-width="18"/>
<line x1="780" y1="176" x2="800" y2="300" stroke="black" stroke-width="18"/>
<line x1="820" y1="300" x2="801" y2="423" stroke="black" stroke-width="19"/>
<line x1="801" y1="423" x2="747" y2="536" stroke="black" stroke-width="19"/>
<line x1="747" y1="536" x2="661" y2="628" stroke="black" stroke-width="19"/>
<line x1="661" y1="628" x2="553" y2="690" stroke="black" stroke-width="19"/>
<line x1="553" y1="690" x2="431" y2="718" stroke="black" stroke-width="19"/>
<line x1="431" y1="718" x2="306" y2="709" stroke="black" stroke-width="19"/>
<line x1="306" y1="709" x2="189" y2="663" stroke="black" stroke-width="19"/>
<line x1="189" y1="663" x2="92" y2="585" stroke="black" stroke-width="19"/>
<line x1="92" y1="585" x2="21" y2="482" stroke="black" stroke-width="19"/>
<line x1="21" y1="482" x2="-15" y2="362" stroke="black" stroke-width="19"/>
<line x1="-15" y1="362" x2="-15" y2="237" stroke="black" stroke-width="19"/>
<line x1="-15" y1="237" x2="21" y2="117" stroke="black" stroke-width="19"/>
<line x1="21" y1="117" x2="92" y2="14" stroke="black" stroke-width="19"/>
<line x1="92" y1="14" x2="190" y2="-63" stroke="black" stroke-width="19"/>
<line x1="190" y1="-63" x2="306" y2="-109" stroke="black" stroke-width="19"/>
<line x1="306" y1="-109" x2="431" y2="-118" stroke="black" stroke-width="19"/>
<line x1="431" y1="-118" x2="553" y2="-90" stroke="black" stroke-width="19"/>
<line x1="553" y1="-90" x2="661" y2="-28" stroke="black" stroke-width="19"/>
<line x1="661" y1="-28" x2="747" y2="63" stroke="black" stroke-width="19"/>
<line x1="747" y1="63" x2="801" y2="176" stroke="black" stroke-width="19"/>
<line x1="801" y1="176" x2="820" y2="300" stroke="black" stroke-width="19"/>
<line x1="840" y1="300" x2="822" y2="423" stroke="black" stroke-width="20"/>
<line x1="822" y1="423" x2="770" y2="537" stroke="black" stroke-width="20"/>
<line x1="770" y1="537" x2="688" y2="632" stroke="black" stroke-width="20"/>
<line x1="688" y1="632" x2="582" y2="700" stroke="black" stroke-width="20"/>
<line x1="582" y1="700" x2="462" y2="735" stroke="black" stroke-width="20"/>
<line x1="462" y1="735" x2="337" y2="735" stroke="black" stroke-width="20"/>
<line x1="337" y1="735" x2="217" y2="700" stroke="black" stroke-width="20"/>
<line x1="217" y1="700" x2="111" y2="632" stroke="black" stroke-width="20"/>
<line x1="111" y1="632" x2="29" y2="537" stroke="black" stroke-width="20"/>
<line x1="29" y1="537" x2="-22" y2="423" stroke="black" stroke-width="20"/>
<line x1="-22" y1="423" x2="-40" y2="299" stroke="black" stroke-width="20"/>
<line x1="-40" y1="299" x2="-22" y2="176" stroke="black" stroke-width="20"/>
<line x1="-22" y1="176" x2="29" y2="62" stroke="black" stroke-width="20"/>
<line x1="29" y1="62" x2="111" y2="-32" stroke="black" stroke-width="20"/>
<line x1="111" y1="-32" x2="217" y2="-100" stroke="black" stroke-width="20"/>
<line x1="217" y1="-100" x2="337" y2="-135" stroke="black" stroke-width="20"/>
<line x1="337" y1="-135" x2="462" y2="-135" stroke="black" stroke-width="20"/>
<line x1="462" y1="-135" x2="582" y2="-100" stroke="black" stroke-width="20"/>
<line x1="582" y1="-100" x2="688" y2="-32" stroke="black" stroke-width="20"/>
<line x1="688" y1="-32" x2="770" y2="62" stroke="black" stroke-width="20"/>
<line x1="770" y1="62" x2="822" y2="176" stroke="black" stroke-width="20"/>
<line x1="822" y1="176" x2="840" y2="300" stroke="black" stroke-width="20"/>
<line x1="860" y1="300" x2="842" y2="424" stroke="black" stroke-width="21"/>
<line x1="842" y1="424" x2="793" y2="539" stroke="black" stroke-width="21"/>
<line x1="793" y1="539" x2="713" y2="636" stroke="black" stroke-width="21"/>
<line x1="713" y1="636" x2="611" y2="708" stroke="black" stroke-width="21"/>
<line x1="611" y1="708" x2="493" y2="750" stroke="black" stroke-width="21"/>
<line x1="493" y1="750" x2="368" y2="758" stroke="black" stroke-width="21"/>
<line x1="368" y1="758" x2="245" y2="733" stroke="black" stroke-width="21"/>
<line x1="245" y1="733" x2="134" y2="675" stroke="black" stroke-width="21"/>
<line x1="134" y1="675" x2="43" y2="590" stroke="black" stroke-width="21"/>
<line x1="43" y1="590" x2="-21" y2="483" stroke="black" stroke-width="21"/>
<line x1="-21" y1="483" x2="-55" y2="362" stroke="black" stroke-width="21"/>
<line x1="-55" y1="362" x2="-55" y2="237" stroke="black" stroke-width="21"/>
<line x1="-55" y1="237" x2="-21" y2="116" stroke="black" stroke-width="21"/>
<line x1="-21" y1="116" x2="43" y2="9" stroke="black" stroke-width="21"/>
<line x1="43" y1="9" x2="134" y2="-75" stroke="black" stroke-width="21"/>
<line x1="134" y1="-75" x2="245" y2="-133" stroke="black" stroke-width="21"/>
<line x1="245" y1="-133" x2="368" y2="-158" stroke="black" stroke-width="21"/>
<line x1="368" y1="-158" x2="493" y2="-150" stroke="black" stroke-width="21"/>
<line x1="493" y1="-150" x2="611" y2="-108" stroke="black" stroke-width="21"/>
<line x1="611" y1="-108" x2="713" y2="-36" stroke="black" stroke-width="21"/>
<line x1="713" y1="-36" x2="793" y2="60" stroke="black" stroke-width="21"/>
<line x1="793" y1="60" x2="842" y2="175" stroke="black" stroke-width="21"/>
<line x1="842" y1="175" x2="860" y2="300" stroke="black" stroke-width="21"/>
<line x1="880" y1="300" x2="863" y2="424" stroke="black" stroke-width="22"/>
<line x1="863" y1="424" x2="815" y2="540" stroke="black" stroke-width="22"/>
<line x1="815" y1="540" x2="739" y2="639" stroke="black" stroke-width="22"/>
<line x1="739" y1="639" x2="639" y2="715" stroke="black" stroke-width="22"/>
<line x1="639" y1="715" x2="524" y2="763" stroke="black" stroke-width="22"/>
<line x1="524" y1="763" x2="399" y2="780" stroke="black" stroke-width="22"/>
<line x1="399" y1="780" x2="275" y2="763" stroke="black" stroke-width="22"/>
<line x1="275" y1="763" x2="159" y2="715" stroke="black" stroke-width="22"/>
<line x1="159" y1="715" x2="60" y2="639" stroke="black" stroke-width="22"/>
<line x1="60" y1="639" x2="-15" y2="539" stroke="black" stroke-width="22"/>
<line x1="-15" y1="539" x2="-63" y2="424" stroke="black" stroke-width="22"/>
<line x1="-63" y1="424" x2="-79" y2="299" stroke="black" stroke-width="22"/>
<line x1="-79" y1="299" x2="-63" y2="175" stroke="black" stroke-width="22"/>
<line x1="-63" y1="175" x2="-15" y2="59" stroke="black" stroke-width="22"/>
<line x1="-15" y1="59" x2="60" y2="-39" stroke="black" stroke-width="22"/>
<line x1="60" y1="-39" x2="160" y2="-115" stroke="black" stroke-width="22"/>
<line x1="160" y1="-115" x2="275" y2="-163" stroke="black" stroke-width="22"/>
<line x1="275" y1="-163" x2="400" y2="-179" stroke="black" stroke-width="22"/>
<line x1="400" y1="-179" x2="524" y2="-163" stroke="black" stroke-width="22"/>
<line x1="524" y1="-163" x2="640" y2="-115" stroke="black" stroke-width="22"/>
<line x1="640" y1="-115" x2="739" y2="-39" stroke="black" stroke-width="22"/>
<line x1="739" y1="-39" x2="815" y2="60" stroke="black" stroke-width="22"/>
<line x1="815" y1="60" x2="863" y2="175" stroke="black" stroke-width="22"/>
<line x1="863" y1="175" x2="880" y2="300" stroke="black" stroke-width="22"/>
<line x1="900" y1="300" x2="884" y2="424" stroke="black" stroke-width="23"/>
<line x1="884" y1="424" x2="838" y2="540" stroke="black" stroke-width="23"/>
<line x1="838" y1="540" x2="764" y2="642" stroke="black" stroke-width="23"/>
<line x1="764" y1="642" x2="667" y2="722" stroke="black" stroke-width="23"/>
<line x1="667" y1="722" x2="554" y2="775" stroke="black" stroke-width="23"/>
<line x1="554" y1="775" x2="431" y2="799" stroke="black" stroke-width="23"/>
<line x1="431" y1="799" x2="306" y2="791" stroke="black" stroke-width="23"/>
<line x1="306" y1="791" x2="187" y2="752" stroke="black" stroke-width="23"/>
<line x1="187" y1="752" x2="81" y2="685" stroke="black" stroke-width="23"/>
<line x1="81" y1="685" x2="-4" y2="593" stroke="black" stroke-width="23"/>
<line x1="-4" y1="593" x2="-64" y2="484" stroke="black" stroke-width="23"/>
<line x1="-64" y1="484" x2="-96" y2="362" stroke="black" stroke-width="23"/>
<line x1="-96" y1="362" x2="-96" y2="237" stroke="black" stroke-width="23"/>
<line x1="-96" y1="237" x2="-64" y2="115" stroke="black" stroke-width="23"/>
<line x1="-64" y1="115" x2="-4" y2="6" stroke="black" stroke-width="23"/>
<line x1="-4" y1="6" x2="81" y2="-85" stroke="black" stroke-width="23"/>
<line x1="81" y1="-85" x2="187" y2="-152" stroke="black" stroke-width="23"/>
<line x1="187" y1="-152" x2="306" y2="-191" stroke="black" stroke-width="23"/>
<line x1="306" y1="-191" x2="431" y2="-199" stroke="black" stroke-width="23"/>
<line x1="431" y1="-199" x2="554" y2="-175" stroke="black" stroke-width="23"/>
<line x1="554" y1="-175" x2="667" y2="-122" stroke="black" stroke-width="23"/>
<line x1="667" y1="-122" x2="764" y2="-42" stroke="black" stroke-width="23"/>
<line x1="764" y1="-42" x2="838" y2="59" stroke="black" stroke-width="23"/>
<line x1="838" y1="59" x2="884" y2="175" stroke="black" stroke-width="23"/>
<line x1="884" y1="175" x2="899" y2="300" stroke="black" stroke-width="23"/>
</svg>
