<svg width="1000" height="1000" xmlns="http://www.w3.org/2000/svg" xmlns:xlink="http://www.w3.org/1999/xlink">
<circle cx="205" cy="410" r="4" stroke="black" stroke-width="1" fill="red" />
<circle cx="840" cy="139" r="4" stroke="black" stroke-width="1" fill="red" />
<circle cx="604" cy="367" r="4" stroke="black" stroke-width="1" fill="red" />
<circle cx="727" cy="263" r="4" stroke="black" stroke-width="1" fill="red" />
<circle cx="649" cy="563" r="4" stroke="black" stroke-width="1" fill="red" />
<circle cx="759" cy="487" r="4" stroke="black" stroke-width="1" fill="red" />
<circle cx="227" cy="157" r="4" stroke="black" stroke-width="1" fill="red" />
<circle cx="459" cy="241" r="4" stroke="black" stroke-width="1" fill="red" />
<circle cx="267" cy="832" r="4" stroke="black" stroke-width="1" fill="red" />
<circle cx="396" cy="854" r="4" stroke="black" stroke-width="1" fill="red" />
<circle cx="290" cy="286" r="4" stroke="black" stroke-width="1" fill="red" />
<circle cx="541" cy="639" r="4" stroke="black" stroke-width="1" fill="red" />
<circle cx="883" cy="116" r="4" stroke="black" stroke-width="1" fill="red" />
<circle cx="455" cy="105" r="4" stroke="black" stroke-width="1" fill="red" />
<circle cx="389" cy="557" r="4" stroke="black" stroke-width="1" fill="red" />
<circle cx="746" cy="543" r="4" stroke="black" stroke-width="1" fill="red" />
<circle cx="224" cy="169" r="4" stroke="black" stroke-width="1" fill="red" />
<circle cx="250" cy="107" r="4" stroke="black" stroke-width="1" fill="red" />
<circle cx="882" cy="411" r="4" stroke="black" stroke-width="1" fill="red" />
<circle cx="849" cy="215" r="4" stroke="black" stroke-width="1" fill="red" />
<circle cx="356" cy="524" r="4" stroke="black" stroke-width="1" fill="red" />
<circle cx="459" cy="122" r="4" stroke="black" stroke-width="1" fill="red" />
<circle cx="263" cy="779" r="4" stroke="black" stroke-width="1" fill="red" />
<circle cx="191" cy="544" r="4" stroke="black" stroke-width="1" fill="red" />
<circle cx="649" cy="641" r="4" stroke="black" stroke-width="1" fill="red" />
<circle cx="502" cy="316" r="4" stroke="black" stroke-width="1" fill="red" />
<circle cx="821" cy="669" r="4" stroke="black" stroke-width="1" fill="red" />
<circle cx="469" cy="450" r="4" stroke="black" stroke-width="1" fill="red" />
<circle cx="305" cy="878" r="4" stroke="black" stroke-width="1" fill="red" />
<circle cx="476" cy="256" r="4" stroke="black" stroke-width="1" fill="red" />
<circle cx="291" cy="261" r="4" stroke="black" stroke-width="1" fill="red" />
<circle cx="442" cy="769" r="4" stroke="black" stroke-width="1" fill="red" />
<circle cx="684" cy="548" r="4" stroke="black" stroke-width="1" fill="red" />
<circle cx="188" cy="195" r="4" stroke="black" stroke-width="1" fill="red" />
<circle cx="794" cy="553" r="4" stroke="black" stroke-width="1" fill="red" />
<circle cx="713" cy="776" r="4" stroke="black" stroke-width="1" fill="red" />
<circle cx="341" cy="865" r="4" stroke="black" stroke-width="1" fill="red" />
<circle cx="364" cy="677" r="4" stroke="black" stroke-width="1" fill="red" />
<circle cx="609" cy="366" r="4" stroke="black" stroke-width="1" fill="red" />
<circle cx="604" cy="765" r="4" stroke="black" stroke-width="1" fill="red" />
<circle cx="139" cy="494" r="4" stroke="black" stroke-width="1" fill="red" />
<circle cx="852" cy="194" r="4" stroke="black" stroke-width="1" fill="red" />
<circle cx="598" cy="506" r="4" stroke="black" stroke-width="1" fill="red" />
<circle cx="574" cy="562" r="4" stroke="black" stroke-width="1" fill="red" />
<circle cx="455" cy="794" r="4" stroke="black" stroke-width="1" fill="red" />
<circle cx="690" cy="658" r="4" stroke="black" stroke-width="1" fill="red" />
<circle cx="385" cy="685" r="4" stroke="black" stroke-width="1" fill="red" />
<circle cx="569" cy="440" r="4" stroke="black" stroke-width="1" fill="red" />
<circle cx="601" cy="755" r="4" stroke="black" stroke-width="1" fill="red" />
<circle cx="502" cy="216" r="4" stroke="black" stroke-width="1" fill="red" />
<circle cx="101" cy="242" r="4" stroke="black" stroke-width="1" fill="red" />
<circle cx="743" cy="725" r="4" stroke="black" stroke-width="1" fill="red" />
<circle cx="848" cy="118" r="4" stroke="black" stroke-width="1" fill="red" />
<circle cx="174" cy="412" r="4" stroke="black" stroke-width="1" fill="red" />
<circle cx="537" cy="292" r="4" stroke="black" stroke-width="1" fill="red" />
<circle cx="712" cy="439" r="4" stroke="black" stroke-width="1" fill="red" />
<circle cx="643" cy="633" r="4" stroke="black" stroke-width="1" fill="red" />
<circle cx="278" cy="195" r="4" stroke="black" stroke-width="1" fill="red" />
<circle cx="827" cy="815" r="4" stroke="black" stroke-width="1" fill="red" />
<circle cx="352" cy="687" r="4" stroke="black" stroke-width="1" fill="red" />
<circle cx="541" cy="385" r="4" stroke="black" stroke-width="1" fill="red" />
<circle cx="746" cy="405" r="4" stroke="black" stroke-width="1" fill="red" />
<circle cx="536" cy="461" r="4" stroke="black" stroke-width="1" fill="red" />
<circle cx="660" cy="361" r="4" stroke="black" stroke-width="1" fill="red" />
<circle cx="228" cy="223" r="4" stroke="black" stroke-width="1" fill="red" />
<circle cx="172" cy="342" r="4" stroke="black" stroke-width="1" fill="red" />
<circle cx="810" cy="359" r="4" stroke="black" stroke-width="1" fill="red" />
<circle cx="611" cy="546" r="4" stroke="black" stroke-width="1" fill="red" />
<circle cx="647" cy="339" r="4" stroke="black" stroke-width="1" fill="red" />
<circle cx="637" cy="389" r="4" stroke="black" stroke-width="1" fill="red" />
<circle cx="455" cy="504" r="4" stroke="black" stroke-width="1" fill="red" />
<circle cx="185" cy="689" r="4" stroke="black" stroke-width="1" fill="red" />
<circle cx="554" cy="288" r="4" stroke="black" stroke-width="1" fill="red" />
<circle cx="234" cy="199" r="4" stroke="black" stroke-width="1" fill="red" />
<circle cx="731" cy="344" r="4" stroke="black" stroke-width="1" fill="red" />
<circle cx="224" cy="684" r="4" stroke="black" stroke-width="1" fill="red" />
<circle cx="194" cy="589" r="4" stroke="black" stroke-width="1" fill="red" />
<circle cx="457" cy="643" r="4" stroke="black" stroke-width="1" fill="red" />
<circle cx="324" cy="560" r="4" stroke="black" stroke-width="1" fill="red" />
<circle cx="536" cy="661" r="4" stroke="black" stroke-width="1" fill="red" />
<circle cx="126" cy="260" r="4" stroke="black" stroke-width="1" fill="red" />
<circle cx="574" cy="404" r="4" stroke="black" stroke-width="1" fill="red" />
<circle cx="619" cy="610" r="4" stroke="black" stroke-width="1" fill="red" />
<circle cx="244" cy="180" r="4" stroke="black" stroke-width="1" fill="red" />
<circle cx="239" cy="344" r="4" stroke="black" stroke-width="1" fill="red" />
<circle cx="547" cy="635" r="4" stroke="black" stroke-width="1" fill="red" />
<circle cx="674" cy="163" r="4" stroke="black" stroke-width="1" fill="red" />
<circle cx="415" cy="174" r="4" stroke="black" stroke-width="1" fill="red" />
<circle cx="318" cy="533" r="4" stroke="black" stroke-width="1" fill="red" />
<circle cx="281" cy="562" r="4" stroke="black" stroke-width="1" fill="red" />
<circle cx="567" cy="306" r="4" stroke="black" stroke-width="1" fill="red" />
<circle cx="857" cy="593" r="4" stroke="black" stroke-width="1" fill="red" />
<circle cx="792" cy="443" r="4" stroke="black" stroke-width="1" fill="red" />
<circle cx="601" cy="662" r="4" stroke="black" stroke-width="1" fill="red" />
<circle cx="675" cy="651" r="4" stroke="black" stroke-width="1" fill="red" />
<circle cx="150" cy="243" r="4" stroke="black" stroke-width="1" fill="red" />
<circle cx="337" cy="128" r="4" stroke="black" stroke-width="1" fill="red" />
<circle cx="823" cy="845" r="4" stroke="black" stroke-width="1" fill="red" />
<circle cx="162" cy="645" r="4" stroke="black" stroke-width="1" fill="red" />
<circle cx="492" cy="724" r="4" stroke="black" stroke-width="1" fill="red" />
<circle cx="116" cy="660" r="4" stroke="black" stroke-width="1" fill="red" />
<circle cx="702" cy="696" r="4" stroke="black" stroke-width="1" fill="red" />
<circle cx="669" cy="818" r="4" stroke="black" stroke-width="1" fill="red" />
<circle cx="697" cy="362" r="4" stroke="black" stroke-width="1" fill="red" />
<circle cx="718" cy="101" r="4" stroke="black" stroke-width="1" fill="red" />
<circle cx="574" cy="823" r="4" stroke="black" stroke-width="1" fill="red" />
<circle cx="447" cy="786" r="4" stroke="black" stroke-width="1" fill="red" />
<circle cx="409" cy="522" r="4" stroke="black" stroke-width="1" fill="red" />
<circle cx="397" cy="386" r="4" stroke="black" stroke-width="1" fill="red" />
<circle cx="366" cy="776" r="4" stroke="black" stroke-width="1" fill="red" />
<circle cx="593" cy="574" r="4" stroke="black" stroke-width="1" fill="red" />
<circle cx="209" cy="764" r="4" stroke="black" stroke-width="1" fill="red" />
<circle cx="522" cy="569" r="4" stroke="black" stroke-width="1" fill="red" />
<circle cx="177" cy="432" r="4" stroke="black" stroke-width="1" fill="red" />
<circle cx="388" cy="586" r="4" stroke="black" stroke-width="1" fill="red" />
<circle cx="444" cy="343" r="4" stroke="black" stroke-width="1" fill="red" />
<circle cx="741" cy="375" r="4" stroke="black" stroke-width="1" fill="red" />
<circle cx="205" cy="782" r="4" stroke="black" stroke-width="1" fill="red" />
<circle cx="891" cy="441" r="4" stroke="black" stroke-width="1" fill="red" />
<circle cx="696" cy="810" r="4" stroke="black" stroke-width="1" fill="red" />
<circle cx="362" cy="177" r="4" stroke="black" stroke-width="1" fill="red" />
<circle cx="352" cy="259" r="4" stroke="black" stroke-width="1" fill="red" />
<circle cx="471" cy="242" r="4" stroke="black" stroke-width="1" fill="red" />
<circle cx="164" cy="139" r="4" stroke="black" stroke-width="1" fill="red" />
<circle cx="371" cy="821" r="4" stroke="black" stroke-width="1" fill="red" />
<circle cx="773" cy="838" r="4" stroke="black" stroke-width="1" fill="red" />
<circle cx="462" cy="799" r="4" stroke="black" stroke-width="1" fill="red" />
<circle cx="562" cy="676" r="4" stroke="black" stroke-width="1" fill="red" />
<circle cx="502" cy="373" r="4" stroke="black" stroke-width="1" fill="red" />
<circle cx="212" cy="413" r="4" stroke="black" stroke-width="1" fill="red" />
<circle cx="278" cy="887" r="4" stroke="black" stroke-width="1" fill="red" />
<circle cx="897" cy="706" r="4" stroke="black" stroke-width="1" fill="red" />
<circle cx="524" cy="296" r="4" stroke="black" stroke-width="1" fill="red" />
<circle cx="434" cy="783" r="4" stroke="black" stroke-width="1" fill="red" />
<circle cx="460" cy="524" r="4" stroke="black" stroke-width="1" fill="red" />
<circle cx="142" cy="855" r="4" stroke="black" stroke-width="1" fill="red" />
<circle cx="375" cy="297" r="4" stroke="black" stroke-width="1" fill="red" />
<circle cx="501" cy="803" r="4" stroke="black" stroke-width="1" fill="red" />
<circle cx="230" cy="346" r="4" stroke="black" stroke-width="1" fill="red" />
<circle cx="718" cy="733" r="4" stroke="black" stroke-width="1" fill="red" />
<circle cx="743" cy="324" r="4" stroke="black" stroke-width="1" fill="red" />
<circle cx="624" cy="600" r="4" stroke="black" stroke-width="1" fill="red" />
<circle cx="143" cy="719" r="4" stroke="black" stroke-width="1" fill="red" />
<circle cx="490" cy="216" r="4" stroke="black" stroke-width="1" fill="red" />
<circle cx="774" cy="820" r="4" stroke="black" stroke-width="1" fill="red" />
<circle cx="624" cy="239" r="4" stroke="black" stroke-width="1" fill="red" />
<circle cx="642" cy="491" r="4" stroke="black" stroke-width="1" fill="red" />
<circle cx="632" cy="513" r="4" stroke="black" stroke-width="1" fill="red" />
<circle cx="192" cy="147" r="4" stroke="black" stroke-width="1" fill="red" />
<circle cx="232" cy="821" r="4" stroke="black" stroke-width="1" fill="red" />
<circle cx="746" cy="826" r="4" stroke="black" stroke-width="1" fill="red" />
<circle cx="743" cy="708" r="4" stroke="black" stroke-width="1" fill="red" />
<circle cx="693" cy="531" r="4" stroke="black" stroke-width="1" fill="red" />
<circle cx="275" cy="414" r="4" stroke="black" stroke-width="1" fill="red" />
<circle cx="243" cy="817" r="4" stroke="black" stroke-width="1" fill="red" />
<circle cx="633" cy="608" r="4" stroke="black" stroke-width="1" fill="red" />
<circle cx="837" cy="818" r="4" stroke="black" stroke-width="1" fill="red" />
<circle cx="550" cy="516" r="4" stroke="black" stroke-width="1" fill="red" />
<circle cx="827" cy="368" r="4" stroke="black" stroke-width="1" fill="red" />
<circle cx="129" cy="486" r="4" stroke="black" stroke-width="1" fill="red" />
<circle cx="807" cy="470" r="4" stroke="black" stroke-width="1" fill="red" />
<circle cx="784" cy="860" r="4" stroke="black" stroke-width="1" fill="red" />
<circle cx="592" cy="610" r="4" stroke="black" stroke-width="1" fill="red" />
<circle cx="109" cy="447" r="4" stroke="black" stroke-width="1" fill="red" />
<circle cx="314" cy="612" r="4" stroke="black" stroke-width="1" fill="red" />
<circle cx="858" cy="156" r="4" stroke="black" stroke-width="1" fill="red" />
<circle cx="139" cy="644" r="4" stroke="black" stroke-width="1" fill="red" />
<circle cx="737" cy="591" r="4" stroke="black" stroke-width="1" fill="red" />
<circle cx="371" cy="756" r="4" stroke="black" stroke-width="1" fill="red" />
<circle cx="808" cy="792" r="4" stroke="black" stroke-width="1" fill="red" />
<circle cx="540" cy="295" r="4" stroke="black" stroke-width="1" fill="red" />
<circle cx="327" cy="209" r="4" stroke="black" stroke-width="1" fill="red" />
<circle cx="856" cy="847" r="4" stroke="black" stroke-width="1" fill="red" />
<circle cx="818" cy="640" r="4" stroke="black" stroke-width="1" fill="red" />
<circle cx="584" cy="873" r="4" stroke="black" stroke-width="1" fill="red" />
<circle cx="830" cy="231" r="4" stroke="black" stroke-width="1" fill="red" />
<circle cx="460" cy="448" r="4" stroke="black" stroke-width="1" fill="red" />
<circle cx="152" cy="403" r="4" stroke="black" stroke-width="1" fill="red" />
<circle cx="229" cy="247" r="4" stroke="black" stroke-width="1" fill="red" />
<circle cx="158" cy="289" r="4" stroke="black" stroke-width="1" fill="red" />
<circle cx="203" cy="465" r="4" stroke="black" stroke-width="1" fill="red" />
<circle cx="584" cy="828" r="4" stroke="black" stroke-width="1" fill="red" />
<circle cx="512" cy="152" r="4" stroke="black" stroke-width="1" fill="red" />
<circle cx="121" cy="543" r="4" stroke="black" stroke-width="1" fill="red" />
<circle cx="614" cy="891" r="4" stroke="black" stroke-width="1" fill="red" />
<circle cx="482" cy="628" r="4" stroke="black" stroke-width="1" fill="red" />
<circle cx="545" cy="704" r="4" stroke="black" stroke-width="1" fill="red" />
<circle cx="218" cy="502" r="4" stroke="black" stroke-width="1" fill="red" />
<circle cx="157" cy="212" r="4" stroke="black" stroke-width="1" fill="red" />
<circle cx="468" cy="380" r="4" stroke="black" stroke-width="1" fill="red" />
<circle cx="722" cy="860" r="4" stroke="black" stroke-width="1" fill="red" />
<circle cx="353" cy="598" r="4" stroke="black" stroke-width="1" fill="red" />
<circle cx="766" cy="525" r="4" stroke="black" stroke-width="1" fill="red" />
<circle cx="377" cy="652" r="4" stroke="black" stroke-width="1" fill="red" />
<circle cx="729" cy="694" r="4" stroke="black" stroke-width="1" fill="red" />
<circle cx="119" cy="354" r="4" stroke="black" stroke-width="1" fill="red" />
<circle cx="347" cy="636" r="4" stroke="black" stroke-width="1" fill="red" />
<circle cx="359" cy="197" r="4" stroke="black" stroke-width="1" fill="red" />
<circle cx="439" cy="557" r="4" stroke="black" stroke-width="1" fill="red" />
<circle cx="176" cy="644" r="4" stroke="black" stroke-width="1" fill="red" />
<line x1="116" y1="660" x2="101" y2="242" stroke="black" stroke-width="2" />
<line x1="142" y1="855" x2="116" y2="660" stroke="black" stroke-width="2" />
<line x1="278" y1="887" x2="142" y2="855" stroke="black" stroke-width="2" />
<line x1="614" y1="891" x2="278" y2="887" stroke="black" stroke-width="2" />
<line x1="856" y1="847" x2="614" y2="891" stroke="black" stroke-width="2" />
<line x1="897" y1="706" x2="856" y2="847" stroke="black" stroke-width="2" />
<line x1="891" y1="441" x2="897" y2="706" stroke="black" stroke-width="2" />
<line x1="883" y1="116" x2="891" y2="441" stroke="black" stroke-width="2" />
<line x1="718" y1="101" x2="883" y2="116" stroke="black" stroke-width="2" />
<line x1="250" y1="107" x2="718" y2="101" stroke="black" stroke-width="2" />
<line x1="164" y1="139" x2="250" y2="107" stroke="black" stroke-width="2" />
<line x1="101" y1="242" x2="164" y2="139" stroke="black" stroke-width="2" />
<line x1="121" y1="543" x2="109" y2="447" stroke="black" stroke-width="2" />
<line x1="143" y1="719" x2="121" y2="543" stroke="black" stroke-width="2" />
<line x1="232" y1="821" x2="143" y2="719" stroke="black" stroke-width="2" />
<line x1="305" y1="878" x2="232" y2="821" stroke="black" stroke-width="2" />
<line x1="584" y1="873" x2="305" y2="878" stroke="black" stroke-width="2" />
<line x1="784" y1="860" x2="584" y2="873" stroke="black" stroke-width="2" />
<line x1="823" y1="845" x2="784" y2="860" stroke="black" stroke-width="2" />
<line x1="837" y1="818" x2="823" y2="845" stroke="black" stroke-width="2" />
<line x1="882" y1="411" x2="837" y2="818" stroke="black" stroke-width="2" />
<line x1="858" y1="156" x2="882" y2="411" stroke="black" stroke-width="2" />
<line x1="848" y1="118" x2="858" y2="156" stroke="black" stroke-width="2" />
<line x1="455" y1="105" x2="848" y2="118" stroke="black" stroke-width="2" />
<line x1="192" y1="147" x2="455" y2="105" stroke="black" stroke-width="2" />
<line x1="126" y1="260" x2="192" y2="147" stroke="black" stroke-width="2" />
<line x1="109" y1="447" x2="126" y2="260" stroke="black" stroke-width="2" />
<line x1="139" y1="644" x2="119" y2="354" stroke="black" stroke-width="2" />
<line x1="205" y1="782" x2="139" y2="644" stroke="black" stroke-width="2" />
<line x1="243" y1="817" x2="205" y2="782" stroke="black" stroke-width="2" />
<line x1="267" y1="832" x2="243" y2="817" stroke="black" stroke-width="2" />
<line x1="341" y1="865" x2="267" y2="832" stroke="black" stroke-width="2" />
<line x1="722" y1="860" x2="341" y2="865" stroke="black" stroke-width="2" />
<line x1="827" y1="815" x2="722" y2="860" stroke="black" stroke-width="2" />
<line x1="857" y1="593" x2="827" y2="815" stroke="black" stroke-width="2" />
<line x1="852" y1="194" x2="857" y2="593" stroke="black" stroke-width="2" />
<line x1="840" y1="139" x2="852" y2="194" stroke="black" stroke-width="2" />
<line x1="459" y1="122" x2="840" y2="139" stroke="black" stroke-width="2" />
<line x1="337" y1="128" x2="459" y2="122" stroke="black" stroke-width="2" />
<line x1="227" y1="157" x2="337" y2="128" stroke="black" stroke-width="2" />
<line x1="157" y1="212" x2="227" y2="157" stroke="black" stroke-width="2" />
<line x1="119" y1="354" x2="157" y2="212" stroke="black" stroke-width="2" />
<line x1="162" y1="645" x2="129" y2="486" stroke="black" stroke-width="2" />
<line x1="209" y1="764" x2="162" y2="645" stroke="black" stroke-width="2" />
<line x1="396" y1="854" x2="209" y2="764" stroke="black" stroke-width="2" />
<line x1="773" y1="838" x2="396" y2="854" stroke="black" stroke-width="2" />
<line x1="808" y1="792" x2="773" y2="838" stroke="black" stroke-width="2" />
<line x1="821" y1="669" x2="808" y2="792" stroke="black" stroke-width="2" />
<line x1="849" y1="215" x2="821" y2="669" stroke="black" stroke-width="2" />
<line x1="674" y1="163" x2="849" y2="215" stroke="black" stroke-width="2" />
<line x1="512" y1="152" x2="674" y2="163" stroke="black" stroke-width="2" />
<line x1="224" y1="169" x2="512" y2="152" stroke="black" stroke-width="2" />
<line x1="188" y1="195" x2="224" y2="169" stroke="black" stroke-width="2" />
<line x1="150" y1="243" x2="188" y2="195" stroke="black" stroke-width="2" />
<line x1="129" y1="486" x2="150" y2="243" stroke="black" stroke-width="2" />
<line x1="185" y1="689" x2="139" y2="494" stroke="black" stroke-width="2" />
<line x1="263" y1="779" x2="185" y2="689" stroke="black" stroke-width="2" />
<line x1="371" y1="821" x2="263" y2="779" stroke="black" stroke-width="2" />
<line x1="584" y1="828" x2="371" y2="821" stroke="black" stroke-width="2" />
<line x1="746" y1="826" x2="584" y2="828" stroke="black" stroke-width="2" />
<line x1="774" y1="820" x2="746" y2="826" stroke="black" stroke-width="2" />
<line x1="818" y1="640" x2="774" y2="820" stroke="black" stroke-width="2" />
<line x1="827" y1="368" x2="818" y2="640" stroke="black" stroke-width="2" />
<line x1="830" y1="231" x2="827" y2="368" stroke="black" stroke-width="2" />
<line x1="415" y1="174" x2="830" y2="231" stroke="black" stroke-width="2" />
<line x1="244" y1="180" x2="415" y2="174" stroke="black" stroke-width="2" />
<line x1="158" y1="289" x2="244" y2="180" stroke="black" stroke-width="2" />
<line x1="139" y1="494" x2="158" y2="289" stroke="black" stroke-width="2" />
<line x1="176" y1="644" x2="152" y2="403" stroke="black" stroke-width="2" />
<line x1="224" y1="684" x2="176" y2="644" stroke="black" stroke-width="2" />
<line x1="366" y1="776" x2="224" y2="684" stroke="black" stroke-width="2" />
<line x1="462" y1="799" x2="366" y2="776" stroke="black" stroke-width="2" />
<line x1="574" y1="823" x2="462" y2="799" stroke="black" stroke-width="2" />
<line x1="669" y1="818" x2="574" y2="823" stroke="black" stroke-width="2" />
<line x1="696" y1="810" x2="669" y2="818" stroke="black" stroke-width="2" />
<line x1="743" y1="725" x2="696" y2="810" stroke="black" stroke-width="2" />
<line x1="794" y1="553" x2="743" y2="725" stroke="black" stroke-width="2" />
<line x1="807" y1="470" x2="794" y2="553" stroke="black" stroke-width="2" />
<line x1="810" y1="359" x2="807" y2="470" stroke="black" stroke-width="2" />
<line x1="727" y1="263" x2="810" y2="359" stroke="black" stroke-width="2" />
<line x1="362" y1="177" x2="727" y2="263" stroke="black" stroke-width="2" />
<line x1="234" y1="199" x2="362" y2="177" stroke="black" stroke-width="2" />
<line x1="172" y1="342" x2="234" y2="199" stroke="black" stroke-width="2" />
<line x1="152" y1="403" x2="172" y2="342" stroke="black" stroke-width="2" />
<line x1="194" y1="589" x2="174" y2="412" stroke="black" stroke-width="2" />
<line x1="371" y1="756" x2="194" y2="589" stroke="black" stroke-width="2" />
<line x1="455" y1="794" x2="371" y2="756" stroke="black" stroke-width="2" />
<line x1="501" y1="803" x2="455" y2="794" stroke="black" stroke-width="2" />
<line x1="713" y1="776" x2="501" y2="803" stroke="black" stroke-width="2" />
<line x1="743" y1="708" x2="713" y2="776" stroke="black" stroke-width="2" />
<line x1="792" y1="443" x2="743" y2="708" stroke="black" stroke-width="2" />
<line x1="743" y1="324" x2="792" y2="443" stroke="black" stroke-width="2" />
<line x1="624" y1="239" x2="743" y2="324" stroke="black" stroke-width="2" />
<line x1="502" y1="216" x2="624" y2="239" stroke="black" stroke-width="2" />
<line x1="359" y1="197" x2="502" y2="216" stroke="black" stroke-width="2" />
<line x1="278" y1="195" x2="359" y2="197" stroke="black" stroke-width="2" />
<line x1="228" y1="223" x2="278" y2="195" stroke="black" stroke-width="2" />
<line x1="174" y1="412" x2="228" y2="223" stroke="black" stroke-width="2" />
<line x1="191" y1="544" x2="177" y2="432" stroke="black" stroke-width="2" />
<line x1="434" y1="783" x2="191" y2="544" stroke="black" stroke-width="2" />
<line x1="447" y1="786" x2="434" y2="783" stroke="black" stroke-width="2" />
<line x1="604" y1="765" x2="447" y2="786" stroke="black" stroke-width="2" />
<line x1="718" y1="733" x2="604" y2="765" stroke="black" stroke-width="2" />
<line x1="729" y1="694" x2="718" y2="733" stroke="black" stroke-width="2" />
<line x1="766" y1="525" x2="729" y2="694" stroke="black" stroke-width="2" />
<line x1="741" y1="375" x2="766" y2="525" stroke="black" stroke-width="2" />
<line x1="731" y1="344" x2="741" y2="375" stroke="black" stroke-width="2" />
<line x1="490" y1="216" x2="731" y2="344" stroke="black" stroke-width="2" />
<line x1="327" y1="209" x2="490" y2="216" stroke="black" stroke-width="2" />
<line x1="229" y1="247" x2="327" y2="209" stroke="black" stroke-width="2" />
<line x1="177" y1="432" x2="229" y2="247" stroke="black" stroke-width="2" />
<line x1="218" y1="502" x2="203" y2="465" stroke="black" stroke-width="2" />
<line x1="352" y1="687" x2="218" y2="502" stroke="black" stroke-width="2" />
<line x1="442" y1="769" x2="352" y2="687" stroke="black" stroke-width="2" />
<line x1="601" y1="755" x2="442" y2="769" stroke="black" stroke-width="2" />
<line x1="702" y1="696" x2="601" y2="755" stroke="black" stroke-width="2" />
<line x1="737" y1="591" x2="702" y2="696" stroke="black" stroke-width="2" />
<line x1="759" y1="487" x2="737" y2="591" stroke="black" stroke-width="2" />
<line x1="746" y1="405" x2="759" y2="487" stroke="black" stroke-width="2" />
<line x1="697" y1="362" x2="746" y2="405" stroke="black" stroke-width="2" />
<line x1="471" y1="242" x2="697" y2="362" stroke="black" stroke-width="2" />
<line x1="459" y1="241" x2="471" y2="242" stroke="black" stroke-width="2" />
<line x1="291" y1="261" x2="459" y2="241" stroke="black" stroke-width="2" />
<line x1="230" y1="346" x2="291" y2="261" stroke="black" stroke-width="2" />
<line x1="205" y1="410" x2="230" y2="346" stroke="black" stroke-width="2" />
<line x1="203" y1="465" x2="205" y2="410" stroke="black" stroke-width="2" />
<line x1="281" y1="562" x2="212" y2="413" stroke="black" stroke-width="2" />
<line x1="314" y1="612" x2="281" y2="562" stroke="black" stroke-width="2" />
<line x1="364" y1="677" x2="314" y2="612" stroke="black" stroke-width="2" />
<line x1="385" y1="685" x2="364" y2="677" stroke="black" stroke-width="2" />
<line x1="492" y1="724" x2="385" y2="685" stroke="black" stroke-width="2" />
<line x1="690" y1="658" x2="492" y2="724" stroke="black" stroke-width="2" />
<line x1="746" y1="543" x2="690" y2="658" stroke="black" stroke-width="2" />
<line x1="712" y1="439" x2="746" y2="543" stroke="black" stroke-width="2" />
<line x1="647" y1="339" x2="712" y2="439" stroke="black" stroke-width="2" />
<line x1="554" y1="288" x2="647" y2="339" stroke="black" stroke-width="2" />
<line x1="476" y1="256" x2="554" y2="288" stroke="black" stroke-width="2" />
<line x1="352" y1="259" x2="476" y2="256" stroke="black" stroke-width="2" />
<line x1="290" y1="286" x2="352" y2="259" stroke="black" stroke-width="2" />
<line x1="239" y1="344" x2="290" y2="286" stroke="black" stroke-width="2" />
<line x1="212" y1="413" x2="239" y2="344" stroke="black" stroke-width="2" />
<line x1="347" y1="636" x2="275" y2="414" stroke="black" stroke-width="2" />
<line x1="377" y1="652" x2="347" y2="636" stroke="black" stroke-width="2" />
<line x1="545" y1="704" x2="377" y2="652" stroke="black" stroke-width="2" />
<line x1="675" y1="651" x2="545" y2="704" stroke="black" stroke-width="2" />
<line x1="693" y1="531" x2="675" y2="651" stroke="black" stroke-width="2" />
<line x1="660" y1="361" x2="693" y2="531" stroke="black" stroke-width="2" />
<line x1="567" y1="306" x2="660" y2="361" stroke="black" stroke-width="2" />
<line x1="537" y1="292" x2="567" y2="306" stroke="black" stroke-width="2" />
<line x1="375" y1="297" x2="537" y2="292" stroke="black" stroke-width="2" />
<line x1="275" y1="414" x2="375" y2="297" stroke="black" stroke-width="2" />
<line x1="324" y1="560" x2="318" y2="533" stroke="black" stroke-width="2" />
<line x1="353" y1="598" x2="324" y2="560" stroke="black" stroke-width="2" />
<line x1="457" y1="643" x2="353" y2="598" stroke="black" stroke-width="2" />
<line x1="562" y1="676" x2="457" y2="643" stroke="black" stroke-width="2" />
<line x1="601" y1="662" x2="562" y2="676" stroke="black" stroke-width="2" />
<line x1="649" y1="641" x2="601" y2="662" stroke="black" stroke-width="2" />
<line x1="684" y1="548" x2="649" y2="641" stroke="black" stroke-width="2" />
<line x1="637" y1="389" x2="684" y2="548" stroke="black" stroke-width="2" />
<line x1="540" y1="295" x2="637" y2="389" stroke="black" stroke-width="2" />
<line x1="524" y1="296" x2="540" y2="295" stroke="black" stroke-width="2" />
<line x1="444" y1="343" x2="524" y2="296" stroke="black" stroke-width="2" />
<line x1="397" y1="386" x2="444" y2="343" stroke="black" stroke-width="2" />
<line x1="318" y1="533" x2="397" y2="386" stroke="black" stroke-width="2" />
<line x1="388" y1="586" x2="356" y2="524" stroke="black" stroke-width="2" />
<line x1="536" y1="661" x2="388" y2="586" stroke="black" stroke-width="2" />
<line x1="643" y1="633" x2="536" y2="661" stroke="black" stroke-width="2" />
<line x1="649" y1="563" x2="643" y2="633" stroke="black" stroke-width="2" />
<line x1="642" y1="491" x2="649" y2="563" stroke="black" stroke-width="2" />
<line x1="609" y1="366" x2="642" y2="491" stroke="black" stroke-width="2" />
<line x1="502" y1="316" x2="609" y2="366" stroke="black" stroke-width="2" />
<line x1="356" y1="524" x2="502" y2="316" stroke="black" stroke-width="2" />
<line x1="482" y1="628" x2="389" y2="557" stroke="black" stroke-width="2" />
<line x1="541" y1="639" x2="482" y2="628" stroke="black" stroke-width="2" />
<line x1="633" y1="608" x2="541" y2="639" stroke="black" stroke-width="2" />
<line x1="632" y1="513" x2="633" y2="608" stroke="black" stroke-width="2" />
<line x1="604" y1="367" x2="632" y2="513" stroke="black" stroke-width="2" />
<line x1="502" y1="373" x2="604" y2="367" stroke="black" stroke-width="2" />
<line x1="468" y1="380" x2="502" y2="373" stroke="black" stroke-width="2" />
<line x1="389" y1="557" x2="468" y2="380" stroke="black" stroke-width="2" />
<line x1="439" y1="557" x2="409" y2="522" stroke="black" stroke-width="2" />
<line x1="547" y1="635" x2="439" y2="557" stroke="black" stroke-width="2" />
<line x1="619" y1="610" x2="547" y2="635" stroke="black" stroke-width="2" />
<line x1="624" y1="600" x2="619" y2="610" stroke="black" stroke-width="2" />
<line x1="611" y1="546" x2="624" y2="600" stroke="black" stroke-width="2" />
<line x1="574" y1="404" x2="611" y2="546" stroke="black" stroke-width="2" />
<line x1="541" y1="385" x2="574" y2="404" stroke="black" stroke-width="2" />
<line x1="460" y1="448" x2="541" y2="385" stroke="black" stroke-width="2" />
<line x1="409" y1="522" x2="460" y2="448" stroke="black" stroke-width="2" />
<line x1="460" y1="524" x2="455" y2="504" stroke="black" stroke-width="2" />
<line x1="522" y1="569" x2="460" y2="524" stroke="black" stroke-width="2" />
<line x1="592" y1="610" x2="522" y2="569" stroke="black" stroke-width="2" />
<line x1="598" y1="506" x2="592" y2="610" stroke="black" stroke-width="2" />
<line x1="569" y1="440" x2="598" y2="506" stroke="black" stroke-width="2" />
<line x1="469" y1="450" x2="569" y2="440" stroke="black" stroke-width="2" />
<line x1="455" y1="504" x2="469" y2="450" stroke="black" stroke-width="2" />
<line x1="550" y1="516" x2="536" y2="461" stroke="black" stroke-width="2" />
<line x1="574" y1="562" x2="550" y2="516" stroke="black" stroke-width="2" />
<line x1="593" y1="574" x2="574" y2="562" stroke="black" stroke-width="2" />
<line x1="536" y1="461" x2="593" y2="574" stroke="black" stroke-width="2" />
</svg>
