<svg width="1000" height="1000" xmlns="http://www.w3.org/2000/svg" xmlns:xlink="http://www.w3.org/1999/xlink">
<line x1="177" y1="321" x2="-408" y2="866" stroke="black" stroke-width="4" />
<line x1="29" y1="927" x2="780" y2="653" stroke="black" stroke-width="4" />
<line x1="908" y1="797" x2="1295" y2="97" stroke="black" stroke-width="4" />
<line x1="925" y1="283" x2="205" y2="-67" stroke="black" stroke-width="4" />
<line x1="807" y1="276" x2="737" y2="-520" stroke="black" stroke-width="4" />
<line x1="919" y1="229" x2="226" y2="629" stroke="black" stroke-width="4" />
<line x1="170" y1="269" x2="651" y2="-369" stroke="black" stroke-width="4" />
<line x1="699" y1="387" x2="1346" y2="-83" stroke="black" stroke-width="4" />
<line x1="432" y1="82" x2="1144" y2="-281" stroke="black" stroke-width="4" />
<line x1="683" y1="203" x2="1248" y2="-362" stroke="black" stroke-width="4" />
<line x1="429" y1="309" x2="1225" y2="378" stroke="black" stroke-width="4" />
<line x1="824" y1="847" x2="1149" y2="116" stroke="black" stroke-width="4" />
<line x1="876" y1="958" x2="351" y2="354" stroke="black" stroke-width="4" />
<line x1="578" y1="801" x2="-7" y2="255" stroke="black" stroke-width="4" />
<line x1="606" y1="503" x2="633" y2="-296" stroke="black" stroke-width="4" />
<line x1="918" y1="142" x2="1521" y2="666" stroke="black" stroke-width="4" />
<line x1="998" y1="714" x2="942" y2="-84" stroke="black" stroke-width="4" />
<line x1="400" y1="636" x2="-92" y2="5" stroke="black" stroke-width="4" />
<line x1="223" y1="582" x2="70" y2="-203" stroke="black" stroke-width="4" />
<line x1="890" y1="32" x2="889" y2="-768" stroke="black" stroke-width="4" />
<line x1="939" y1="850" x2="153" y2="697" stroke="black" stroke-width="4" />
<line x1="628" y1="734" x2="1374" y2="447" stroke="black" stroke-width="4" />
<line x1="203" y1="176" x2="105" y2="970" stroke="black" stroke-width="4" />
<line x1="911" y1="460" x2="345" y2="-105" stroke="black" stroke-width="4" />
<line x1="795" y1="560" x2="1253" y2="1215" stroke="black" stroke-width="4" />
<line x1="129" y1="667" x2="919" y2="792" stroke="black" stroke-width="4" />
<line x1="333" y1="578" x2="-114" y2="1241" stroke="black" stroke-width="4" />
<line x1="361" y1="230" x2="-286" y2="700" stroke="black" stroke-width="4" />
<line x1="687" y1="182" x2="714" y2="981" stroke="black" stroke-width="4" />
<line x1="564" y1="125" x2="605" y2="-673" stroke="black" stroke-width="4" />
<line x1="326" y1="808" x2="-459" y2="960" stroke="black" stroke-width="4" />
<line x1="353" y1="75" x2="-202" y2="650" stroke="black" stroke-width="4" />
<line x1="883" y1="909" x2="1673" y2="783" stroke="black" stroke-width="4" />
<line x1="99" y1="718" x2="196" y2="1512" stroke="black" stroke-width="4" />
<line x1="446" y1="8" x2="-89" y2="-586" stroke="black" stroke-width="4" />
<line x1="969" y1="388" x2="1632" y2="835" stroke="black" stroke-width="4" />
<line x1="630" y1="998" x2="1268" y2="1479" stroke="black" stroke-width="4" />
<line x1="973" y1="343" x2="1272" y2="-398" stroke="black" stroke-width="4" />
<line x1="732" y1="384" x2="593" y2="-403" stroke="black" stroke-width="4" />
<line x1="160" y1="117" x2="-539" y2="-270" stroke="black" stroke-width="4" />
<line x1="586" y1="740" x2="655" y2="1536" stroke="black" stroke-width="4" />
<line x1="617" y1="187" x2="-113" y2="-138" stroke="black" stroke-width="4" />
<line x1="373" y1="430" x2="193" y2="1209" stroke="black" stroke-width="4" />
<line x1="897" y1="207" x2="521" y2="913" stroke="black" stroke-width="4" />
<line x1="828" y1="807" x2="1140" y2="1543" stroke="black" stroke-width="4" />
<line x1="673" y1="791" x2="78" y2="255" stroke="black" stroke-width="4" />
<line x1="13" y1="151" x2="96" y2="946" stroke="black" stroke-width="4" />
<line x1="368" y1="354" x2="479" y2="-438" stroke="black" stroke-width="4" />
<line x1="426" y1="382" x2="1224" y2="326" stroke="black" stroke-width="4" />
<line x1="943" y1="743" x2="1564" y2="1246" stroke="black" stroke-width="4" />
<circle cx="120" cy="374" r="5" stroke="black" stroke-width="1" fill="red" />
<circle cx="163" cy="333" r="5" stroke="black" stroke-width="1" fill="red" />
<circle cx="172" cy="324" r="5" stroke="black" stroke-width="1" fill="red" />
<circle cx="-30" cy="514" r="5" stroke="black" stroke-width="1" fill="red" />
<circle cx="164" cy="332" r="5" stroke="black" stroke-width="1" fill="red" />
<circle cx="43" cy="445" r="5" stroke="black" stroke-width="1" fill="red" />
<circle cx="651" cy="700" r="5" stroke="black" stroke-width="1" fill="red" />
<circle cx="521" cy="747" r="5" stroke="black" stroke-width="1" fill="red" />
<circle cx="483" cy="761" r="5" stroke="black" stroke-width="1" fill="red" />
<circle cx="114" cy="895" r="5" stroke="black" stroke-width="1" fill="red" />
<circle cx="557" cy="734" r="5" stroke="black" stroke-width="1" fill="red" />
<circle cx="119" cy="893" r="5" stroke="black" stroke-width="1" fill="red" />
<circle cx="704" cy="681" r="5" stroke="black" stroke-width="1" fill="red" />
<circle cx="120" cy="893" r="5" stroke="black" stroke-width="1" fill="red" />
<circle cx="279" cy="835" r="5" stroke="black" stroke-width="1" fill="red" />
<circle cx="630" cy="708" r="5" stroke="black" stroke-width="1" fill="red" />
<circle cx="595" cy="720" r="5" stroke="black" stroke-width="1" fill="red" />
<circle cx="92" cy="904" r="5" stroke="black" stroke-width="1" fill="red" />
<circle cx="1143" cy="371" r="5" stroke="black" stroke-width="1" fill="red" />
<circle cx="1156" cy="349" r="5" stroke="black" stroke-width="1" fill="red" />
<circle cx="993" cy="643" r="5" stroke="black" stroke-width="1" fill="red" />
<circle cx="931" cy="754" r="5" stroke="black" stroke-width="1" fill="red" />
<circle cx="911" cy="790" r="5" stroke="black" stroke-width="1" fill="red" />
<circle cx="1089" cy="469" r="5" stroke="black" stroke-width="1" fill="red" />
<circle cx="802" cy="223" r="5" stroke="black" stroke-width="1" fill="red" />
<circle cx="871" cy="256" r="5" stroke="black" stroke-width="1" fill="red" />
<circle cx="552" cy="101" r="5" stroke="black" stroke-width="1" fill="red" />
<circle cx="694" cy="170" r="5" stroke="black" stroke-width="1" fill="red" />
<circle cx="870" cy="256" r="5" stroke="black" stroke-width="1" fill="red" />
<circle cx="802" cy="223" r="5" stroke="black" stroke-width="1" fill="red" />
<circle cx="871" cy="256" r="5" stroke="black" stroke-width="1" fill="red" />
<circle cx="734" cy="335" r="5" stroke="black" stroke-width="1" fill="red" />
<circle cx="468" cy="489" r="5" stroke="black" stroke-width="1" fill="red" />
<circle cx="329" cy="569" r="5" stroke="black" stroke-width="1" fill="red" />
<circle cx="342" cy="562" r="5" stroke="black" stroke-width="1" fill="red" />
<circle cx="767" cy="316" r="5" stroke="black" stroke-width="1" fill="red" />
<circle cx="693" cy="359" r="5" stroke="black" stroke-width="1" fill="red" />
<circle cx="724" cy="341" r="5" stroke="black" stroke-width="1" fill="red" />
<circle cx="342" cy="561" r="5" stroke="black" stroke-width="1" fill="red" />
<circle cx="870" cy="257" r="5" stroke="black" stroke-width="1" fill="red" />
<circle cx="388" cy="535" r="5" stroke="black" stroke-width="1" fill="red" />
<circle cx="365" cy="9" r="5" stroke="black" stroke-width="1" fill="red" />
<circle cx="195" cy="234" r="5" stroke="black" stroke-width="1" fill="red" />
<circle cx="406" cy="-44" r="5" stroke="black" stroke-width="1" fill="red" />
<circle cx="185" cy="248" r="5" stroke="black" stroke-width="1" fill="red" />
<circle cx="402" cy="-39" r="5" stroke="black" stroke-width="1" fill="red" />
<circle cx="608" cy="-313" r="5" stroke="black" stroke-width="1" fill="red" />
<circle cx="328" cy="58" r="5" stroke="black" stroke-width="1" fill="red" />
<circle cx="875" cy="258" r="5" stroke="black" stroke-width="1" fill="red" />
<circle cx="906" cy="236" r="5" stroke="black" stroke-width="1" fill="red" />
<circle cx="765" cy="338" r="5" stroke="black" stroke-width="1" fill="red" />
<circle cx="971" cy="188" r="5" stroke="black" stroke-width="1" fill="red" />
<circle cx="961" cy="196" r="5" stroke="black" stroke-width="1" fill="red" />
<circle cx="779" cy="328" r="5" stroke="black" stroke-width="1" fill="red" />
<circle cx="728" cy="365" r="5" stroke="black" stroke-width="1" fill="red" />
<circle cx="865" cy="265" r="5" stroke="black" stroke-width="1" fill="red" />
<circle cx="471" cy="61" r="5" stroke="black" stroke-width="1" fill="red" />
<circle cx="774" cy="-92" r="5" stroke="black" stroke-width="1" fill="red" />
<circle cx="889" cy="-151" r="5" stroke="black" stroke-width="1" fill="red" />
<circle cx="498" cy="47" r="5" stroke="black" stroke-width="1" fill="red" />
<circle cx="658" cy="-33" r="5" stroke="black" stroke-width="1" fill="red" />
<circle cx="708" cy="177" r="5" stroke="black" stroke-width="1" fill="red" />
<circle cx="791" cy="94" r="5" stroke="black" stroke-width="1" fill="red" />
<circle cx="944" cy="-58" r="5" stroke="black" stroke-width="1" fill="red" />
<circle cx="890" cy="-3" r="5" stroke="black" stroke-width="1" fill="red" />
<circle cx="687" cy="198" r="5" stroke="black" stroke-width="1" fill="red" />
<circle cx="697" cy="188" r="5" stroke="black" stroke-width="1" fill="red" />
<circle cx="734" cy="335" r="5" stroke="black" stroke-width="1" fill="red" />
<circle cx="1186" cy="375" r="5" stroke="black" stroke-width="1" fill="red" />
<circle cx="973" cy="356" r="5" stroke="black" stroke-width="1" fill="red" />
<circle cx="791" cy="340" r="5" stroke="black" stroke-width="1" fill="red" />
<circle cx="692" cy="332" r="5" stroke="black" stroke-width="1" fill="red" />
<circle cx="723" cy="334" r="5" stroke="black" stroke-width="1" fill="red" />
<circle cx="824" cy="343" r="5" stroke="black" stroke-width="1" fill="red" />
<circle cx="1039" cy="362" r="5" stroke="black" stroke-width="1" fill="red" />
<circle cx="1076" cy="279" r="5" stroke="black" stroke-width="1" fill="red" />
<circle cx="982" cy="491" r="5" stroke="black" stroke-width="1" fill="red" />
<circle cx="831" cy="829" r="5" stroke="black" stroke-width="1" fill="red" />
<circle cx="890" cy="696" r="5" stroke="black" stroke-width="1" fill="red" />
<circle cx="853" cy="781" r="5" stroke="black" stroke-width="1" fill="red" />
<circle cx="1014" cy="418" r="5" stroke="black" stroke-width="1" fill="red" />
<circle cx="834" cy="822" r="5" stroke="black" stroke-width="1" fill="red" />
<circle cx="468" cy="489" r="5" stroke="black" stroke-width="1" fill="red" />
<circle cx="750" cy="813" r="5" stroke="black" stroke-width="1" fill="red" />
<circle cx="701" cy="757" r="5" stroke="black" stroke-width="1" fill="red" />
<circle cx="707" cy="763" r="5" stroke="black" stroke-width="1" fill="red" />
<circle cx="641" cy="687" r="5" stroke="black" stroke-width="1" fill="red" />
<circle cx="120" cy="374" r="5" stroke="black" stroke-width="1" fill="red" />
<circle cx="329" cy="569" r="5" stroke="black" stroke-width="1" fill="red" />
<circle cx="397" cy="632" r="5" stroke="black" stroke-width="1" fill="red" />
<circle cx="196" cy="445" r="5" stroke="black" stroke-width="1" fill="red" />
<circle cx="549" cy="774" r="5" stroke="black" stroke-width="1" fill="red" />
<circle cx="172" cy="423" r="5" stroke="black" stroke-width="1" fill="red" />
<circle cx="496" cy="725" r="5" stroke="black" stroke-width="1" fill="red" />
<circle cx="138" cy="391" r="5" stroke="black" stroke-width="1" fill="red" />
<circle cx="90" cy="346" r="5" stroke="black" stroke-width="1" fill="red" />
<circle cx="338" cy="577" r="5" stroke="black" stroke-width="1" fill="red" />
<circle cx="27" cy="287" r="5" stroke="black" stroke-width="1" fill="red" />
<circle cx="618" cy="133" r="5" stroke="black" stroke-width="1" fill="red" />
<circle cx="609" cy="407" r="5" stroke="black" stroke-width="1" fill="red" />
<circle cx="612" cy="325" r="5" stroke="black" stroke-width="1" fill="red" />
<circle cx="617" cy="166" r="5" stroke="black" stroke-width="1" fill="red" />
<circle cx="630" cy="-192" r="5" stroke="black" stroke-width="1" fill="red" />
<circle cx="1186" cy="375" r="5" stroke="black" stroke-width="1" fill="red" />
<circle cx="960" cy="179" r="5" stroke="black" stroke-width="1" fill="red" />
<circle cx="973" cy="356" r="5" stroke="black" stroke-width="1" fill="red" />
<circle cx="960" cy="179" r="5" stroke="black" stroke-width="1" fill="red" />
<circle cx="975" cy="392" r="5" stroke="black" stroke-width="1" fill="red" />
<circle cx="163" cy="333" r="5" stroke="black" stroke-width="1" fill="red" />
<circle cx="342" cy="562" r="5" stroke="black" stroke-width="1" fill="red" />
<circle cx="397" cy="632" r="5" stroke="black" stroke-width="1" fill="red" />
<circle cx="178" cy="352" r="5" stroke="black" stroke-width="1" fill="red" />
<circle cx="180" cy="355" r="5" stroke="black" stroke-width="1" fill="red" />
<circle cx="183" cy="358" r="5" stroke="black" stroke-width="1" fill="red" />
<circle cx="136" cy="298" r="5" stroke="black" stroke-width="1" fill="red" />
<circle cx="342" cy="562" r="5" stroke="black" stroke-width="1" fill="red" />
<circle cx="160" cy="329" r="5" stroke="black" stroke-width="1" fill="red" />
<circle cx="172" cy="324" r="5" stroke="black" stroke-width="1" fill="red" />
<circle cx="196" cy="445" r="5" stroke="black" stroke-width="1" fill="red" />
<circle cx="178" cy="352" r="5" stroke="black" stroke-width="1" fill="red" />
<circle cx="180" cy="361" r="5" stroke="black" stroke-width="1" fill="red" />
<circle cx="180" cy="361" r="5" stroke="black" stroke-width="1" fill="red" />
<circle cx="162" cy="272" r="5" stroke="black" stroke-width="1" fill="red" />
<circle cx="129" cy="99" r="5" stroke="black" stroke-width="1" fill="red" />
<circle cx="101" cy="-42" r="5" stroke="black" stroke-width="1" fill="red" />
<circle cx="176" cy="344" r="5" stroke="black" stroke-width="1" fill="red" />
<circle cx="750" cy="813" r="5" stroke="black" stroke-width="1" fill="red" />
<circle cx="549" cy="774" r="5" stroke="black" stroke-width="1" fill="red" />
<circle cx="241" cy="714" r="5" stroke="black" stroke-width="1" fill="red" />
<circle cx="708" cy="805" r="5" stroke="black" stroke-width="1" fill="red" />
<circle cx="589" cy="782" r="5" stroke="black" stroke-width="1" fill="red" />
<circle cx="304" cy="726" r="5" stroke="black" stroke-width="1" fill="red" />
<circle cx="591" cy="782" r="5" stroke="black" stroke-width="1" fill="red" />
<circle cx="837" cy="830" r="5" stroke="black" stroke-width="1" fill="red" />
<circle cx="667" cy="718" r="5" stroke="black" stroke-width="1" fill="red" />
<circle cx="1301" cy="475" r="5" stroke="black" stroke-width="1" fill="red" />
<circle cx="989" cy="595" r="5" stroke="black" stroke-width="1" fill="red" />
<circle cx="855" cy="646" r="5" stroke="black" stroke-width="1" fill="red" />
<circle cx="705" cy="704" r="5" stroke="black" stroke-width="1" fill="red" />
<circle cx="1172" cy="525" r="5" stroke="black" stroke-width="1" fill="red" />
<circle cx="172" cy="423" r="5" stroke="black" stroke-width="1" fill="red" />
<circle cx="180" cy="355" r="5" stroke="black" stroke-width="1" fill="red" />
<circle cx="180" cy="361" r="5" stroke="black" stroke-width="1" fill="red" />
<circle cx="142" cy="669" r="5" stroke="black" stroke-width="1" fill="red" />
<circle cx="113" cy="903" r="5" stroke="black" stroke-width="1" fill="red" />
<circle cx="180" cy="361" r="5" stroke="black" stroke-width="1" fill="red" />
<circle cx="120" cy="847" r="5" stroke="black" stroke-width="1" fill="red" />
<circle cx="195" cy="238" r="5" stroke="black" stroke-width="1" fill="red" />
<circle cx="117" cy="870" r="5" stroke="black" stroke-width="1" fill="red" />
<circle cx="181" cy="348" r="5" stroke="black" stroke-width="1" fill="red" />
<circle cx="552" cy="101" r="5" stroke="black" stroke-width="1" fill="red" />
<circle cx="767" cy="316" r="5" stroke="black" stroke-width="1" fill="red" />
<circle cx="791" cy="340" r="5" stroke="black" stroke-width="1" fill="red" />
<circle cx="688" cy="237" r="5" stroke="black" stroke-width="1" fill="red" />
<circle cx="709" cy="258" r="5" stroke="black" stroke-width="1" fill="red" />
<circle cx="814" cy="363" r="5" stroke="black" stroke-width="1" fill="red" />
<circle cx="701" cy="757" r="5" stroke="black" stroke-width="1" fill="red" />
<circle cx="496" cy="725" r="5" stroke="black" stroke-width="1" fill="red" />
<circle cx="142" cy="669" r="5" stroke="black" stroke-width="1" fill="red" />
<circle cx="259" cy="687" r="5" stroke="black" stroke-width="1" fill="red" />
<circle cx="707" cy="758" r="5" stroke="black" stroke-width="1" fill="red" />
<circle cx="311" cy="695" r="5" stroke="black" stroke-width="1" fill="red" />
<circle cx="611" cy="743" r="5" stroke="black" stroke-width="1" fill="red" />
<circle cx="622" cy="745" r="5" stroke="black" stroke-width="1" fill="red" />
<circle cx="241" cy="714" r="5" stroke="black" stroke-width="1" fill="red" />
<circle cx="113" cy="903" r="5" stroke="black" stroke-width="1" fill="red" />
<circle cx="259" cy="687" r="5" stroke="black" stroke-width="1" fill="red" />
<circle cx="155" cy="841" r="5" stroke="black" stroke-width="1" fill="red" />
<circle cx="120" cy="893" r="5" stroke="black" stroke-width="1" fill="red" />
<circle cx="94" cy="930" r="5" stroke="black" stroke-width="1" fill="red" />
<circle cx="-30" cy="514" r="5" stroke="black" stroke-width="1" fill="red" />
<circle cx="138" cy="391" r="5" stroke="black" stroke-width="1" fill="red" />
<circle cx="183" cy="358" r="5" stroke="black" stroke-width="1" fill="red" />
<circle cx="180" cy="361" r="5" stroke="black" stroke-width="1" fill="red" />
<circle cx="180" cy="361" r="5" stroke="black" stroke-width="1" fill="red" />
<circle cx="-167" cy="613" r="5" stroke="black" stroke-width="1" fill="red" />
<circle cx="188" cy="355" r="5" stroke="black" stroke-width="1" fill="red" />
<circle cx="45" cy="459" r="5" stroke="black" stroke-width="1" fill="red" />
<circle cx="693" cy="359" r="5" stroke="black" stroke-width="1" fill="red" />
<circle cx="692" cy="332" r="5" stroke="black" stroke-width="1" fill="red" />
<circle cx="707" cy="763" r="5" stroke="black" stroke-width="1" fill="red" />
<circle cx="708" cy="805" r="5" stroke="black" stroke-width="1" fill="red" />
<circle cx="688" cy="237" r="5" stroke="black" stroke-width="1" fill="red" />
<circle cx="707" cy="758" r="5" stroke="black" stroke-width="1" fill="red" />
<circle cx="700" cy="576" r="5" stroke="black" stroke-width="1" fill="red" />
<circle cx="564" cy="107" r="5" stroke="black" stroke-width="1" fill="red" />
<circle cx="564" cy="113" r="5" stroke="black" stroke-width="1" fill="red" />
<circle cx="120" cy="847" r="5" stroke="black" stroke-width="1" fill="red" />
<circle cx="155" cy="841" r="5" stroke="black" stroke-width="1" fill="red" />
<circle cx="115" cy="848" r="5" stroke="black" stroke-width="1" fill="red" />
<circle cx="283" cy="816" r="5" stroke="black" stroke-width="1" fill="red" />
<circle cx="86" cy="854" r="5" stroke="black" stroke-width="1" fill="red" />
<circle cx="90" cy="346" r="5" stroke="black" stroke-width="1" fill="red" />
<circle cx="136" cy="298" r="5" stroke="black" stroke-width="1" fill="red" />
<circle cx="162" cy="272" r="5" stroke="black" stroke-width="1" fill="red" />
<circle cx="195" cy="238" r="5" stroke="black" stroke-width="1" fill="red" />
<circle cx="-167" cy="613" r="5" stroke="black" stroke-width="1" fill="red" />
<circle cx="131" cy="303" r="5" stroke="black" stroke-width="1" fill="red" />
<circle cx="39" cy="399" r="5" stroke="black" stroke-width="1" fill="red" />
<circle cx="1023" cy="886" r="5" stroke="black" stroke-width="1" fill="red" />
<circle cx="1578" cy="798" r="5" stroke="black" stroke-width="1" fill="red" />
<circle cx="1104" cy="873" r="5" stroke="black" stroke-width="1" fill="red" />
<circle cx="117" cy="870" r="5" stroke="black" stroke-width="1" fill="red" />
<circle cx="120" cy="893" r="5" stroke="black" stroke-width="1" fill="red" />
<circle cx="115" cy="848" r="5" stroke="black" stroke-width="1" fill="red" />
<circle cx="975" cy="392" r="5" stroke="black" stroke-width="1" fill="red" />
<circle cx="1040" cy="1307" r="5" stroke="black" stroke-width="1" fill="red" />
<circle cx="1018" cy="229" r="5" stroke="black" stroke-width="1" fill="red" />
<circle cx="694" cy="170" r="5" stroke="black" stroke-width="1" fill="red" />
<circle cx="724" cy="341" r="5" stroke="black" stroke-width="1" fill="red" />
<circle cx="723" cy="334" r="5" stroke="black" stroke-width="1" fill="red" />
<circle cx="709" cy="258" r="5" stroke="black" stroke-width="1" fill="red" />
<circle cx="129" cy="99" r="5" stroke="black" stroke-width="1" fill="red" />
<circle cx="589" cy="782" r="5" stroke="black" stroke-width="1" fill="red" />
<circle cx="589" cy="784" r="5" stroke="black" stroke-width="1" fill="red" />
<circle cx="101" cy="-42" r="5" stroke="black" stroke-width="1" fill="red" />
<circle cx="342" cy="561" r="5" stroke="black" stroke-width="1" fill="red" />
<circle cx="338" cy="577" r="5" stroke="black" stroke-width="1" fill="red" />
<circle cx="342" cy="562" r="5" stroke="black" stroke-width="1" fill="red" />
<circle cx="304" cy="726" r="5" stroke="black" stroke-width="1" fill="red" />
<circle cx="311" cy="695" r="5" stroke="black" stroke-width="1" fill="red" />
<circle cx="283" cy="816" r="5" stroke="black" stroke-width="1" fill="red" />
<circle cx="355" cy="505" r="5" stroke="black" stroke-width="1" fill="red" />
<circle cx="870" cy="256" r="5" stroke="black" stroke-width="1" fill="red" />
<circle cx="870" cy="257" r="5" stroke="black" stroke-width="1" fill="red" />
<circle cx="824" cy="343" r="5" stroke="black" stroke-width="1" fill="red" />
<circle cx="641" cy="687" r="5" stroke="black" stroke-width="1" fill="red" />
<circle cx="591" cy="782" r="5" stroke="black" stroke-width="1" fill="red" />
<circle cx="814" cy="363" r="5" stroke="black" stroke-width="1" fill="red" />
<circle cx="611" cy="743" r="5" stroke="black" stroke-width="1" fill="red" />
<circle cx="700" cy="576" r="5" stroke="black" stroke-width="1" fill="red" />
<circle cx="589" cy="784" r="5" stroke="black" stroke-width="1" fill="red" />
<circle cx="614" cy="738" r="5" stroke="black" stroke-width="1" fill="red" />
<circle cx="837" cy="830" r="5" stroke="black" stroke-width="1" fill="red" />
<circle cx="1040" cy="1307" r="5" stroke="black" stroke-width="1" fill="red" />
<circle cx="164" cy="332" r="5" stroke="black" stroke-width="1" fill="red" />
<circle cx="388" cy="535" r="5" stroke="black" stroke-width="1" fill="red" />
<circle cx="160" cy="329" r="5" stroke="black" stroke-width="1" fill="red" />
<circle cx="176" cy="344" r="5" stroke="black" stroke-width="1" fill="red" />
<circle cx="181" cy="348" r="5" stroke="black" stroke-width="1" fill="red" />
<circle cx="622" cy="745" r="5" stroke="black" stroke-width="1" fill="red" />
<circle cx="188" cy="355" r="5" stroke="black" stroke-width="1" fill="red" />
<circle cx="131" cy="303" r="5" stroke="black" stroke-width="1" fill="red" />
<circle cx="355" cy="505" r="5" stroke="black" stroke-width="1" fill="red" />
<circle cx="614" cy="738" r="5" stroke="black" stroke-width="1" fill="red" />
<circle cx="43" cy="445" r="5" stroke="black" stroke-width="1" fill="red" />
<circle cx="27" cy="287" r="5" stroke="black" stroke-width="1" fill="red" />
<circle cx="94" cy="930" r="5" stroke="black" stroke-width="1" fill="red" />
<circle cx="45" cy="459" r="5" stroke="black" stroke-width="1" fill="red" />
<circle cx="86" cy="854" r="5" stroke="black" stroke-width="1" fill="red" />
<circle cx="39" cy="399" r="5" stroke="black" stroke-width="1" fill="red" />
<circle cx="413" cy="33" r="5" stroke="black" stroke-width="1" fill="red" />
<circle cx="421" cy="-29" r="5" stroke="black" stroke-width="1" fill="red" />
<circle cx="420" cy="-20" r="5" stroke="black" stroke-width="1" fill="red" />
<circle cx="404" cy="92" r="5" stroke="black" stroke-width="1" fill="red" />
<circle cx="685" cy="363" r="5" stroke="black" stroke-width="1" fill="red" />
<circle cx="891" cy="349" r="5" stroke="black" stroke-width="1" fill="red" />
<circle cx="1136" cy="332" r="5" stroke="black" stroke-width="1" fill="red" />
<circle cx="972" cy="343" r="5" stroke="black" stroke-width="1" fill="red" />
<circle cx="806" cy="355" r="5" stroke="black" stroke-width="1" fill="red" />
<circle cx="693" cy="363" r="5" stroke="black" stroke-width="1" fill="red" />
<circle cx="727" cy="360" r="5" stroke="black" stroke-width="1" fill="red" />
<circle cx="818" cy="354" r="5" stroke="black" stroke-width="1" fill="red" />
</svg>
